<svg width="10" height="10" viewBox="0 0 10 10" fill="none" xmlns="http://www.w3.org/2000/svg">
<path d="M0 9.70515C0.0589072 9.48763 0.119846 9.26807 0.17469 9.05055C0.318911 8.47319 0.461101 7.89584 0.607353 7.32052C0.621572 7.2636 0.654073 7.20464 0.694698 7.16195C2.50254 5.34857 4.31444 3.53723 6.12431 1.72589C6.13853 1.71166 6.15275 1.69946 6.16088 1.69336C6.87386 2.40692 7.58277 3.11641 8.29982 3.83404C8.28763 3.84827 8.26325 3.8747 8.23888 3.89909C6.44729 5.69011 4.6557 7.48316 2.86004 9.27417C2.8052 9.32906 2.73004 9.37378 2.65488 9.39208C1.88097 9.58927 1.10502 9.7824 0.331099 9.97553C0.154377 10.0203 0.0954702 9.99586 0 9.84136C0 9.79663 0 9.75191 0 9.70515Z" fill="white"/>
<path d="M9.99349 1.83326C9.97927 1.88611 9.97317 1.94303 9.95083 1.98979C9.88583 2.12397 9.83708 2.2744 9.73958 2.38011C9.47754 2.66066 9.19519 2.92088 8.92706 3.18109C8.22627 2.47973 7.51329 1.76617 6.8125 1.06481C7.07454 0.796459 7.32845 0.505749 7.61282 0.2496C7.99064 -0.0899003 8.6244 -0.0797356 9.00425 0.259764C9.26223 0.491519 9.50192 0.745636 9.74161 0.99772C9.88989 1.15222 9.9488 1.35348 9.99552 1.55881C9.99349 1.65029 9.99349 1.74177 9.99349 1.83326Z" fill="white"/>
</svg>
