<svg width="110" height="110" viewBox="0 0 110 110" fill="none" xmlns="http://www.w3.org/2000/svg">
<circle cx="55" cy="55" r="55" fill="#00A040" fill-opacity="0.06"/>
<path d="M28.6968 54.4582C28.9285 53.4415 29.276 52.5061 30.0484 51.7876C31.8376 50.1067 34.2447 50.2287 36.0339 52.113C39.754 56.0172 43.4741 59.9484 47.1813 63.8662C47.3229 64.0153 47.4258 64.2051 47.6189 64.4762C47.8377 64.178 47.9536 64.0017 48.0952 63.8526C56.7196 54.77 65.3439 45.6874 73.9554 36.6048C75.2427 35.2491 76.7358 34.7476 78.4993 35.3305C81.1253 36.1981 82.1808 39.8582 80.4559 42.1221C80.25 42.3932 80.044 42.6508 79.8123 42.8948C70.1581 53.0619 60.504 63.229 50.8627 73.3962C49.5626 74.7653 48.0566 75.3482 46.2931 74.684C45.6623 74.44 45.0316 74.0062 44.5553 73.5046C39.7154 68.4482 34.9012 63.3646 30.0741 58.2946C29.3404 57.4948 28.9156 56.5865 28.6968 55.5427C28.6968 55.1767 28.6968 54.8107 28.6968 54.4582Z" fill="#00A040"/>
</svg>
