<svg width="110" height="110" viewBox="0 0 110 110" fill="none" xmlns="http://www.w3.org/2000/svg">
<circle cx="55" cy="55" r="55" fill="#5566FF" fill-opacity="0.06"/>
<path d="M28.6973 54.4582C28.929 53.4415 29.2765 52.5061 30.0488 51.7876C31.8381 50.1067 34.2452 50.2287 36.0344 52.113C39.7545 56.0172 43.4746 59.9484 47.1817 63.8662C47.3233 64.0153 47.4263 64.2051 47.6194 64.4762C47.8382 64.178 47.9541 64.0017 48.0957 63.8526C56.7201 54.77 65.3444 45.6874 73.9559 36.6048C75.2432 35.2491 76.7363 34.7476 78.4998 35.3305C81.1257 36.1981 82.1813 39.8582 80.4564 42.1221C80.2504 42.3932 80.0445 42.6508 79.8128 42.8948C70.1586 53.0619 60.5045 63.229 50.8632 73.3962C49.5631 74.7653 48.0571 75.3482 46.2936 74.684C45.6628 74.44 45.0321 74.0062 44.5558 73.5046C39.7159 68.4482 34.9017 63.3646 30.0746 58.2946C29.3409 57.4948 28.9161 56.5865 28.6973 55.5427C28.6973 55.1767 28.6973 54.8107 28.6973 54.4582Z" fill="#5566FF"/>
</svg>
