<svg width="16" height="16" viewBox="0 0 16 16" fill="none" xmlns="http://www.w3.org/2000/svg">
<path d="M14.7016 15.9475C12.0541 15.9475 9.40655 15.9475 6.75901 15.9475C6.73175 15.9397 6.70061 15.9281 6.67335 15.9203C6.18278 15.8113 5.80512 15.5426 5.64548 15.0676C5.53258 14.7289 5.50532 14.359 5.45081 14.0008C5.40799 13.7088 5.37684 13.4168 5.3379 13.1131C5.26393 13.1131 5.20163 13.1131 5.14323 13.1131C3.92069 13.1131 2.69426 13.1131 1.47172 13.1131C0.981146 13.1131 0.556762 12.9457 0.280328 12.533C0.147951 12.3383 0.0895491 12.093 0 11.8672C0 8.32806 0 4.78504 0 1.2459C0.00778688 1.22254 0.0194672 1.19918 0.0233606 1.17192C0.0817622 0.829302 0.24918 0.545081 0.517827 0.319262C0.731966 0.140164 0.98504 0.062295 1.2459 0C2.95901 0 4.67213 0 6.38524 0C6.41249 0.00778688 6.44364 0.0194672 6.47089 0.0272541C6.96147 0.13627 7.33913 0.404918 7.49876 0.879917C7.61167 1.21475 7.63893 1.57684 7.69343 1.93115C7.74015 2.22705 7.7713 2.52684 7.81024 2.83442C7.88421 2.83442 7.94651 2.83442 8.0088 2.83442C10.1541 2.83442 12.2955 2.83053 14.4408 2.84221C14.6783 2.84221 14.9352 2.88504 15.1494 2.98237C15.6983 3.23155 15.9514 3.69487 15.9553 4.29446C15.9592 5.24835 15.9553 6.20614 15.9553 7.16003C15.9553 9.59343 15.9553 12.0268 15.9553 14.4641C15.9553 14.9625 15.7918 15.3908 15.3713 15.6711C15.1688 15.7996 14.9235 15.858 14.7016 15.9475ZM7.12889 15.0131C7.21843 15.0131 7.26905 15.0131 7.32356 15.0131C9.69466 15.0131 12.0658 15.0131 14.4408 15.0131C14.8457 15.0131 15.017 14.8418 15.017 14.4369C15.017 11.0729 15.017 7.70901 15.017 4.34897C15.017 3.94016 14.8496 3.77274 14.4408 3.77274C12.3266 3.77274 10.2164 3.77274 8.10224 3.77274C8.04774 3.77274 7.98933 3.77274 7.93093 3.77274C7.93483 3.81557 7.93483 3.84282 7.93872 3.86618C8.07499 4.95245 8.21126 6.03872 8.34364 7.12499C8.56556 8.91987 8.78749 10.7186 9.01331 12.5135C9.03667 12.7121 8.99384 12.8678 8.86536 13.0119C8.70183 13.1949 8.5461 13.3817 8.38647 13.5647C7.97376 14.0358 7.56495 14.5108 7.12889 15.0131ZM8.02827 12.1787C7.93483 11.4467 7.84528 10.7381 7.75962 10.0295C7.58052 8.57335 7.39753 7.11721 7.21843 5.66106C7.04323 4.25942 6.86802 2.86168 6.69671 1.46004C6.64999 1.09406 6.48257 0.934425 6.11659 0.934425C4.58647 0.934425 3.05246 0.934425 1.52233 0.934425C1.10184 0.934425 0.934425 1.09795 0.934425 1.51455C0.934425 4.87459 0.934425 8.23073 0.934425 11.5908C0.934425 12.0113 1.09795 12.1787 1.51455 12.1787C3.62868 12.1787 5.73893 12.1787 7.85306 12.1787C7.90368 12.1787 7.95819 12.1787 8.02827 12.1787ZM6.43975 14.3824C6.81741 13.9424 7.16782 13.5414 7.52991 13.1209C7.09774 13.1209 6.70061 13.1209 6.2879 13.1209C6.33462 13.5336 6.38524 13.9385 6.43975 14.3824Z" fill="#454545"/>
<path d="M11.2439 7.03995C11.2439 6.88032 11.24 6.73626 11.2439 6.5922C11.2516 6.31188 11.4463 6.10942 11.7072 6.10552C11.9758 6.10163 12.1744 6.30798 12.1783 6.5961C12.1822 6.73626 12.1783 6.87642 12.1783 7.02827C12.2367 7.03216 12.2834 7.03605 12.334 7.03605C12.735 7.03605 13.1322 7.03605 13.5332 7.03605C13.8291 7.03605 14.0355 7.22294 14.0471 7.48769C14.0549 7.75245 13.8603 7.94323 13.5644 7.97437C13.5215 7.97827 13.4553 8.0172 13.4437 8.05224C13.21 8.77253 12.848 9.41884 12.3574 10.0145C12.556 10.182 12.7467 10.3455 12.9414 10.5051C13.0855 10.6258 13.2373 10.7348 13.3814 10.8555C13.6072 11.0424 13.6461 11.3188 13.4787 11.5291C13.3113 11.7393 13.031 11.7666 12.8012 11.5836C12.4391 11.2994 12.0848 11.0035 11.7111 10.6998C11.6682 10.7348 11.6215 10.7699 11.5748 10.8088C11.2711 11.058 10.9674 11.311 10.6598 11.5563C10.4029 11.7627 10.1187 11.7471 9.94345 11.5213C9.77214 11.2994 9.82276 11.0307 10.0758 10.8283C10.4068 10.5596 10.7338 10.2949 11.0648 10.0262C10.9129 9.81208 10.7689 9.61351 10.6365 9.41495C10.3601 9.00224 10.1537 8.55839 10.0019 8.08728C9.9746 8.00163 9.93956 7.96659 9.84223 7.96269C9.56969 7.95491 9.37891 7.74855 9.37891 7.49548C9.3828 7.23462 9.58526 7.03605 9.86559 7.03605C10.2705 7.03216 10.6754 7.03605 11.0803 7.03605C11.1271 7.03995 11.1777 7.03995 11.2439 7.03995ZM10.9519 7.98216C11.131 8.48052 11.3801 8.91658 11.7111 9.33318C12.042 8.91658 12.2912 8.47663 12.4703 7.98216C11.9564 7.98216 11.4619 7.98216 10.9519 7.98216Z" fill="#454545"/>
<path d="M4.87899 7.04722C4.45071 7.04722 4.02633 7.04722 3.59026 7.04722C3.49293 7.5378 3.39948 8.02448 3.29825 8.50726C3.24764 8.75255 3.06076 8.90829 2.83104 8.90439C2.61301 8.90439 2.41444 8.74476 2.3794 8.52673C2.36383 8.43718 2.3794 8.33984 2.39887 8.25029C2.69867 6.74743 2.99846 5.24456 3.30215 3.7378C3.36055 3.43801 3.53186 3.30174 3.83166 3.29784C4.10809 3.29395 4.38063 3.29395 4.65706 3.29784C4.94129 3.30174 5.11649 3.4419 5.171 3.71833C5.48247 5.25624 5.79006 6.79415 6.09374 8.33595C6.14825 8.6007 5.98083 8.8421 5.72387 8.89661C5.47469 8.94722 5.23329 8.7798 5.17489 8.50726C5.08534 8.08677 5.00747 7.66239 4.92182 7.24189C4.91014 7.18349 4.89457 7.1173 4.87899 7.04722ZM4.15092 4.24395C4.02633 4.863 3.90563 5.47817 3.78104 6.09333C4.09641 6.09333 4.38842 6.09333 4.69211 6.09333C4.56752 5.47038 4.44293 4.85522 4.32223 4.24395C4.25993 4.24395 4.20932 4.24395 4.15092 4.24395Z" fill="#454545"/>
</svg>
