<svg width="22" height="22" viewBox="0 0 22 22" fill="none" xmlns="http://www.w3.org/2000/svg">
<path d="M17.5535 16.0816C17.6428 16.1434 17.739 16.1915 17.8145 16.267C19.0856 17.5305 20.3498 18.8007 21.6209 20.0642C21.937 20.38 22.0813 20.7439 21.9645 21.1834C21.7515 21.9662 20.8308 22.2614 20.1987 21.7464C20.1231 21.6846 20.0613 21.616 19.9926 21.5542C18.7352 20.2976 17.4848 19.0479 16.2274 17.7914C16.1656 17.7296 16.1037 17.6747 16.035 17.606C13.4654 19.5492 10.6072 20.2152 7.47414 19.4531C5.04191 18.8557 3.12498 17.4755 1.70961 15.4225C-1.07302 11.385 -0.392823 5.80949 3.26926 2.54794C7.06189 -0.83034 12.6134 -0.850939 16.4473 2.52734C20.2124 5.85068 20.9819 11.7283 17.5535 16.0816ZM17.5535 9.895C17.5809 5.67216 14.1593 2.23208 9.91324 2.20462C5.66027 2.17715 2.21117 5.58289 2.19056 9.83321C2.16995 14.0904 5.58469 17.5373 9.85827 17.5579C14.0838 17.5854 17.526 14.1522 17.5535 9.895Z" fill="#5F5BFE"/>
</svg>
