<svg width="155" height="152" viewBox="0 0 155 152" fill="none" xmlns="http://www.w3.org/2000/svg">
<circle cx="76" cy="76" r="76" fill="#48C24D"/>
<path d="M152 76C152 87.7529 149.274 99.3456 144.037 109.867C138.8 120.388 131.194 129.552 121.816 136.637C112.439 143.722 101.547 148.536 89.9949 150.7C78.4431 152.865 66.5467 152.32 55.2407 149.11C43.9348 145.9 33.5275 140.111 24.8367 132.199C16.146 124.287 9.40859 114.467 5.15417 103.511C0.899753 92.5554 -0.755788 80.7622 0.317668 69.0585C1.39112 57.3547 5.16433 46.0594 11.3407 36.0603L76 76H152Z" fill="#498CDB"/>
<path d="M152 76C152 88.3232 149.003 100.461 143.268 111.369C137.534 122.276 129.232 131.625 119.08 138.611C108.928 145.596 97.2295 150.008 84.9929 151.466C72.7563 152.924 60.3487 151.385 48.8394 146.981L76 76H152Z" fill="#EC6767"/>
<path d="M82.37 96.51C82.37 95.83 82.5267 95.22 82.84 94.68C83.16 94.14 83.59 93.72 84.13 93.42C84.6767 93.1133 85.2733 92.96 85.92 92.96C86.66 92.96 87.3167 93.1433 87.89 93.51C88.47 93.87 88.89 94.3833 89.15 95.05H87.78C87.6 94.6833 87.35 94.41 87.03 94.23C86.71 94.05 86.34 93.96 85.92 93.96C85.46 93.96 85.05 94.0633 84.69 94.27C84.33 94.4767 84.0467 94.7733 83.84 95.16C83.64 95.5467 83.54 95.9967 83.54 96.51C83.54 97.0233 83.64 97.4733 83.84 97.86C84.0467 98.2467 84.33 98.5467 84.69 98.76C85.05 98.9667 85.46 99.07 85.92 99.07C86.34 99.07 86.71 98.98 87.03 98.8C87.35 98.62 87.6 98.3467 87.78 97.98H89.15C88.89 98.6467 88.47 99.16 87.89 99.52C87.3167 99.88 86.66 100.06 85.92 100.06C85.2667 100.06 84.67 99.91 84.13 99.61C83.59 99.3033 83.16 98.88 82.84 98.34C82.5267 97.8 82.37 97.19 82.37 96.51ZM91.6244 95.29C91.791 95.01 92.011 94.7933 92.2844 94.64C92.5644 94.48 92.8944 94.4 93.2744 94.4V95.58H92.9844C92.5377 95.58 92.1977 95.6933 91.9644 95.92C91.7377 96.1467 91.6244 96.54 91.6244 97.1V100H90.4844V94.49H91.6244V95.29ZM94.9023 93.76C94.6956 93.76 94.5223 93.69 94.3823 93.55C94.2423 93.41 94.1723 93.2367 94.1723 93.03C94.1723 92.8233 94.2423 92.65 94.3823 92.51C94.5223 92.37 94.6956 92.3 94.9023 92.3C95.1023 92.3 95.2723 92.37 95.4123 92.51C95.5523 92.65 95.6223 92.8233 95.6223 93.03C95.6223 93.2367 95.5523 93.41 95.4123 93.55C95.2723 93.69 95.1023 93.76 94.9023 93.76ZM95.4623 94.49V100H94.3223V94.49H95.4623ZM98.289 95.42V98.47C98.289 98.6767 98.3357 98.8267 98.429 98.92C98.529 99.0067 98.6957 99.05 98.929 99.05H99.629V100H98.729C98.2157 100 97.8223 99.88 97.549 99.64C97.2757 99.4 97.139 99.01 97.139 98.47V95.42H96.489V94.49H97.139V93.12H98.289V94.49H99.629V95.42H98.289ZM101.26 93.76C101.053 93.76 100.88 93.69 100.74 93.55C100.6 93.41 100.53 93.2367 100.53 93.03C100.53 92.8233 100.6 92.65 100.74 92.51C100.88 92.37 101.053 92.3 101.26 92.3C101.46 92.3 101.63 92.37 101.77 92.51C101.91 92.65 101.98 92.8233 101.98 93.03C101.98 93.2367 101.91 93.41 101.77 93.55C101.63 93.69 101.46 93.76 101.26 93.76ZM101.82 94.49V100H100.68V94.49H101.82ZM102.936 97.24C102.936 96.6733 103.05 96.1767 103.276 95.75C103.51 95.3167 103.83 94.9833 104.236 94.75C104.643 94.5167 105.11 94.4 105.636 94.4C106.303 94.4 106.853 94.56 107.286 94.88C107.726 95.1933 108.023 95.6433 108.176 96.23H106.946C106.846 95.9567 106.686 95.7433 106.466 95.59C106.246 95.4367 105.97 95.36 105.636 95.36C105.17 95.36 104.796 95.5267 104.516 95.86C104.243 96.1867 104.106 96.6467 104.106 97.24C104.106 97.8333 104.243 98.2967 104.516 98.63C104.796 98.9633 105.17 99.13 105.636 99.13C106.296 99.13 106.733 98.84 106.946 98.26H108.176C108.016 98.82 107.716 99.2667 107.276 99.6C106.836 99.9267 106.29 100.09 105.636 100.09C105.11 100.09 104.643 99.9733 104.236 99.74C103.83 99.5 103.51 99.1667 103.276 98.74C103.05 98.3067 102.936 97.8067 102.936 97.24ZM108.933 97.22C108.933 96.6667 109.046 96.1767 109.273 95.75C109.506 95.3233 109.819 94.9933 110.213 94.76C110.613 94.52 111.053 94.4 111.533 94.4C111.966 94.4 112.343 94.4867 112.663 94.66C112.989 94.8267 113.249 95.0367 113.443 95.29V94.49H114.593V100H113.443V99.18C113.249 99.44 112.986 99.6567 112.653 99.83C112.319 100.003 111.939 100.09 111.513 100.09C111.039 100.09 110.606 99.97 110.213 99.73C109.819 99.4833 109.506 99.1433 109.273 98.71C109.046 98.27 108.933 97.7733 108.933 97.22ZM113.443 97.24C113.443 96.86 113.363 96.53 113.203 96.25C113.049 95.97 112.846 95.7567 112.593 95.61C112.339 95.4633 112.066 95.39 111.773 95.39C111.479 95.39 111.206 95.4633 110.953 95.61C110.699 95.75 110.493 95.96 110.333 96.24C110.179 96.5133 110.103 96.84 110.103 97.22C110.103 97.6 110.179 97.9333 110.333 98.22C110.493 98.5067 110.699 98.7267 110.953 98.88C111.213 99.0267 111.486 99.1 111.773 99.1C112.066 99.1 112.339 99.0267 112.593 98.88C112.846 98.7333 113.049 98.52 113.203 98.24C113.363 97.9533 113.443 97.62 113.443 97.24ZM117.23 92.6V100H116.09V92.6H117.23ZM87.61 106.12C87.61 106.473 87.5267 106.807 87.36 107.12C87.1933 107.433 86.9267 107.69 86.56 107.89C86.1933 108.083 85.7233 108.18 85.15 108.18H83.89V111H82.75V104.05H85.15C85.6833 104.05 86.1333 104.143 86.5 104.33C86.8733 104.51 87.15 104.757 87.33 105.07C87.5167 105.383 87.61 105.733 87.61 106.12ZM85.15 107.25C85.5833 107.25 85.9067 107.153 86.12 106.96C86.3333 106.76 86.44 106.48 86.44 106.12C86.44 105.36 86.01 104.98 85.15 104.98H83.89V107.25H85.15ZM88.3173 108.22C88.3173 107.667 88.4306 107.177 88.6573 106.75C88.8906 106.323 89.2039 105.993 89.5973 105.76C89.9973 105.52 90.4373 105.4 90.9173 105.4C91.3506 105.4 91.7273 105.487 92.0473 105.66C92.3739 105.827 92.6339 106.037 92.8273 106.29V105.49H93.9773V111H92.8273V110.18C92.6339 110.44 92.3706 110.657 92.0373 110.83C91.7039 111.003 91.3239 111.09 90.8973 111.09C90.4239 111.09 89.9906 110.97 89.5973 110.73C89.2039 110.483 88.8906 110.143 88.6573 109.71C88.4306 109.27 88.3173 108.773 88.3173 108.22ZM92.8273 108.24C92.8273 107.86 92.7473 107.53 92.5873 107.25C92.4339 106.97 92.2306 106.757 91.9773 106.61C91.7239 106.463 91.4506 106.39 91.1573 106.39C90.8639 106.39 90.5906 106.463 90.3373 106.61C90.0839 106.75 89.8773 106.96 89.7173 107.24C89.5639 107.513 89.4873 107.84 89.4873 108.22C89.4873 108.6 89.5639 108.933 89.7173 109.22C89.8773 109.507 90.0839 109.727 90.3373 109.88C90.5973 110.027 90.8706 110.1 91.1573 110.1C91.4506 110.1 91.7239 110.027 91.9773 109.88C92.2306 109.733 92.4339 109.52 92.5873 109.24C92.7473 108.953 92.8273 108.62 92.8273 108.24ZM96.8046 106.42V109.47C96.8046 109.677 96.8513 109.827 96.9446 109.92C97.0446 110.007 97.2113 110.05 97.4446 110.05H98.1446V111H97.2446C96.7313 111 96.3379 110.88 96.0646 110.64C95.7913 110.4 95.6546 110.01 95.6546 109.47V106.42H95.0046V105.49H95.6546V104.12H96.8046V105.49H98.1446V106.42H96.8046ZM99.7753 104.76C99.5686 104.76 99.3953 104.69 99.2553 104.55C99.1153 104.41 99.0453 104.237 99.0453 104.03C99.0453 103.823 99.1153 103.65 99.2553 103.51C99.3953 103.37 99.5686 103.3 99.7753 103.3C99.9753 103.3 100.145 103.37 100.285 103.51C100.425 103.65 100.495 103.823 100.495 104.03C100.495 104.237 100.425 104.41 100.285 104.55C100.145 104.69 99.9753 104.76 99.7753 104.76ZM100.335 105.49V111H99.1953V105.49H100.335ZM106.882 108.11C106.882 108.317 106.869 108.503 106.842 108.67H102.632C102.665 109.11 102.829 109.463 103.122 109.73C103.415 109.997 103.775 110.13 104.202 110.13C104.815 110.13 105.249 109.873 105.502 109.36H106.732C106.565 109.867 106.262 110.283 105.822 110.61C105.389 110.93 104.849 111.09 104.202 111.09C103.675 111.09 103.202 110.973 102.782 110.74C102.369 110.5 102.042 110.167 101.802 109.74C101.569 109.307 101.452 108.807 101.452 108.24C101.452 107.673 101.565 107.177 101.792 106.75C102.025 106.317 102.349 105.983 102.762 105.75C103.182 105.517 103.662 105.4 104.202 105.4C104.722 105.4 105.185 105.513 105.592 105.74C105.999 105.967 106.315 106.287 106.542 106.7C106.769 107.107 106.882 107.577 106.882 108.11ZM105.692 107.75C105.685 107.33 105.535 106.993 105.242 106.74C104.949 106.487 104.585 106.36 104.152 106.36C103.759 106.36 103.422 106.487 103.142 106.74C102.862 106.987 102.695 107.323 102.642 107.75H105.692ZM110.784 105.4C111.217 105.4 111.604 105.49 111.944 105.67C112.291 105.85 112.561 106.117 112.754 106.47C112.947 106.823 113.044 107.25 113.044 107.75V111H111.914V107.92C111.914 107.427 111.791 107.05 111.544 106.79C111.297 106.523 110.961 106.39 110.534 106.39C110.107 106.39 109.767 106.523 109.514 106.79C109.267 107.05 109.144 107.427 109.144 107.92V111H108.004V105.49H109.144V106.12C109.331 105.893 109.567 105.717 109.854 105.59C110.147 105.463 110.457 105.4 110.784 105.4ZM115.828 106.42V109.47C115.828 109.677 115.875 109.827 115.968 109.92C116.068 110.007 116.235 110.05 116.468 110.05H117.168V111H116.268C115.755 111 115.361 110.88 115.088 110.64C114.815 110.4 114.678 110.01 114.678 109.47V106.42H114.028V105.49H114.678V104.12H115.828V105.49H117.168V106.42H115.828ZM120.219 111.09C119.785 111.09 119.395 111.013 119.049 110.86C118.709 110.7 118.439 110.487 118.239 110.22C118.039 109.947 117.932 109.643 117.919 109.31H119.099C119.119 109.543 119.229 109.74 119.429 109.9C119.635 110.053 119.892 110.13 120.199 110.13C120.519 110.13 120.765 110.07 120.939 109.95C121.119 109.823 121.209 109.663 121.209 109.47C121.209 109.263 121.109 109.11 120.909 109.01C120.715 108.91 120.405 108.8 119.979 108.68C119.565 108.567 119.229 108.457 118.969 108.35C118.709 108.243 118.482 108.08 118.289 107.86C118.102 107.64 118.009 107.35 118.009 106.99C118.009 106.697 118.095 106.43 118.269 106.19C118.442 105.943 118.689 105.75 119.009 105.61C119.335 105.47 119.709 105.4 120.129 105.4C120.755 105.4 121.259 105.56 121.639 105.88C122.025 106.193 122.232 106.623 122.259 107.17H121.119C121.099 106.923 120.999 106.727 120.819 106.58C120.639 106.433 120.395 106.36 120.089 106.36C119.789 106.36 119.559 106.417 119.399 106.53C119.239 106.643 119.159 106.793 119.159 106.98C119.159 107.127 119.212 107.25 119.319 107.35C119.425 107.45 119.555 107.53 119.709 107.59C119.862 107.643 120.089 107.713 120.389 107.8C120.789 107.907 121.115 108.017 121.369 108.13C121.629 108.237 121.852 108.397 122.039 108.61C122.225 108.823 122.322 109.107 122.329 109.46C122.329 109.773 122.242 110.053 122.069 110.3C121.895 110.547 121.649 110.74 121.329 110.88C121.015 111.02 120.645 111.09 120.219 111.09Z" fill="white"/>
<path d="M79.24 22.05V22.98H77.39V29H76.25V22.98H74.39V22.05H79.24ZM82.7845 29.09C82.2645 29.09 81.7945 28.9733 81.3745 28.74C80.9545 28.5 80.6245 28.1667 80.3845 27.74C80.1445 27.3067 80.0245 26.8067 80.0245 26.24C80.0245 25.68 80.1479 25.1833 80.3945 24.75C80.6412 24.3167 80.9779 23.9833 81.4045 23.75C81.8312 23.5167 82.3079 23.4 82.8345 23.4C83.3612 23.4 83.8379 23.5167 84.2645 23.75C84.6912 23.9833 85.0279 24.3167 85.2745 24.75C85.5212 25.1833 85.6445 25.68 85.6445 26.24C85.6445 26.8 85.5179 27.2967 85.2645 27.73C85.0112 28.1633 84.6645 28.5 84.2245 28.74C83.7912 28.9733 83.3112 29.09 82.7845 29.09ZM82.7845 28.1C83.0779 28.1 83.3512 28.03 83.6045 27.89C83.8645 27.75 84.0745 27.54 84.2345 27.26C84.3945 26.98 84.4745 26.64 84.4745 26.24C84.4745 25.84 84.3979 25.5033 84.2445 25.23C84.0912 24.95 83.8879 24.74 83.6345 24.6C83.3812 24.46 83.1079 24.39 82.8145 24.39C82.5212 24.39 82.2479 24.46 81.9945 24.6C81.7479 24.74 81.5512 24.95 81.4045 25.23C81.2579 25.5033 81.1845 25.84 81.1845 26.24C81.1845 26.8333 81.3345 27.2933 81.6345 27.62C81.9412 27.94 82.3245 28.1 82.7845 28.1ZM88.1015 24.42V27.47C88.1015 27.6767 88.1482 27.8267 88.2415 27.92C88.3415 28.0067 88.5082 28.05 88.7415 28.05H89.4415V29H88.5415C88.0282 29 87.6348 28.88 87.3615 28.64C87.0882 28.4 86.9515 28.01 86.9515 27.47V24.42H86.3015V23.49H86.9515V22.12H88.1015V23.49H89.4415V24.42H88.1015ZM90.1122 26.22C90.1122 25.6667 90.2255 25.1767 90.4522 24.75C90.6855 24.3233 90.9989 23.9933 91.3922 23.76C91.7922 23.52 92.2322 23.4 92.7122 23.4C93.1455 23.4 93.5222 23.4867 93.8422 23.66C94.1689 23.8267 94.4289 24.0367 94.6222 24.29V23.49H95.7722V29H94.6222V28.18C94.4289 28.44 94.1655 28.6567 93.8322 28.83C93.4989 29.0033 93.1189 29.09 92.6922 29.09C92.2189 29.09 91.7855 28.97 91.3922 28.73C90.9989 28.4833 90.6855 28.1433 90.4522 27.71C90.2255 27.27 90.1122 26.7733 90.1122 26.22ZM94.6222 26.24C94.6222 25.86 94.5422 25.53 94.3822 25.25C94.2289 24.97 94.0255 24.7567 93.7722 24.61C93.5189 24.4633 93.2455 24.39 92.9522 24.39C92.6589 24.39 92.3855 24.4633 92.1322 24.61C91.8789 24.75 91.6722 24.96 91.5122 25.24C91.3589 25.5133 91.2822 25.84 91.2822 26.22C91.2822 26.6 91.3589 26.9333 91.5122 27.22C91.6722 27.5067 91.8789 27.7267 92.1322 27.88C92.3922 28.0267 92.6655 28.1 92.9522 28.1C93.2455 28.1 93.5189 28.0267 93.7722 27.88C94.0255 27.7333 94.2289 27.52 94.3822 27.24C94.5422 26.9533 94.6222 26.62 94.6222 26.24ZM98.4095 21.6V29H97.2695V21.6H98.4095ZM79.61 35.12C79.61 35.4733 79.5267 35.8067 79.36 36.12C79.1933 36.4333 78.9267 36.69 78.56 36.89C78.1933 37.0833 77.7233 37.18 77.15 37.18H75.89V40H74.75V33.05H77.15C77.6833 33.05 78.1333 33.1433 78.5 33.33C78.8733 33.51 79.15 33.7567 79.33 34.07C79.5167 34.3833 79.61 34.7333 79.61 35.12ZM77.15 36.25C77.5833 36.25 77.9067 36.1533 78.12 35.96C78.3333 35.76 78.44 35.48 78.44 35.12C78.44 34.36 78.01 33.98 77.15 33.98H75.89V36.25H77.15ZM80.3173 37.22C80.3173 36.6667 80.4306 36.1767 80.6573 35.75C80.8906 35.3233 81.2039 34.9933 81.5973 34.76C81.9973 34.52 82.4373 34.4 82.9173 34.4C83.3506 34.4 83.7273 34.4867 84.0473 34.66C84.3739 34.8267 84.6339 35.0367 84.8273 35.29V34.49H85.9773V40H84.8273V39.18C84.6339 39.44 84.3706 39.6567 84.0373 39.83C83.7039 40.0033 83.3239 40.09 82.8973 40.09C82.4239 40.09 81.9906 39.97 81.5973 39.73C81.2039 39.4833 80.8906 39.1433 80.6573 38.71C80.4306 38.27 80.3173 37.7733 80.3173 37.22ZM84.8273 37.24C84.8273 36.86 84.7473 36.53 84.5873 36.25C84.4339 35.97 84.2306 35.7567 83.9773 35.61C83.7239 35.4633 83.4506 35.39 83.1573 35.39C82.8639 35.39 82.5906 35.4633 82.3373 35.61C82.0839 35.75 81.8773 35.96 81.7173 36.24C81.5639 36.5133 81.4873 36.84 81.4873 37.22C81.4873 37.6 81.5639 37.9333 81.7173 38.22C81.8773 38.5067 82.0839 38.7267 82.3373 38.88C82.5973 39.0267 82.8706 39.1 83.1573 39.1C83.4506 39.1 83.7239 39.0267 83.9773 38.88C84.2306 38.7333 84.4339 38.52 84.5873 38.24C84.7473 37.9533 84.8273 37.62 84.8273 37.24ZM88.8046 35.42V38.47C88.8046 38.6767 88.8513 38.8267 88.9446 38.92C89.0446 39.0067 89.2113 39.05 89.4446 39.05H90.1446V40H89.2446C88.7313 40 88.3379 39.88 88.0646 39.64C87.7913 39.4 87.6546 39.01 87.6546 38.47V35.42H87.0046V34.49H87.6546V33.12H88.8046V34.49H90.1446V35.42H88.8046ZM91.7753 33.76C91.5686 33.76 91.3953 33.69 91.2553 33.55C91.1153 33.41 91.0453 33.2367 91.0453 33.03C91.0453 32.8233 91.1153 32.65 91.2553 32.51C91.3953 32.37 91.5686 32.3 91.7753 32.3C91.9753 32.3 92.1453 32.37 92.2853 32.51C92.4253 32.65 92.4953 32.8233 92.4953 33.03C92.4953 33.2367 92.4253 33.41 92.2853 33.55C92.1453 33.69 91.9753 33.76 91.7753 33.76ZM92.3353 34.49V40H91.1953V34.49H92.3353ZM98.882 37.11C98.882 37.3167 98.8687 37.5033 98.842 37.67H94.632C94.6654 38.11 94.8287 38.4633 95.122 38.73C95.4154 38.9967 95.7754 39.13 96.202 39.13C96.8154 39.13 97.2487 38.8733 97.502 38.36H98.732C98.5654 38.8667 98.262 39.2833 97.822 39.61C97.3887 39.93 96.8487 40.09 96.202 40.09C95.6754 40.09 95.202 39.9733 94.782 39.74C94.3687 39.5 94.042 39.1667 93.802 38.74C93.5687 38.3067 93.452 37.8067 93.452 37.24C93.452 36.6733 93.5654 36.1767 93.792 35.75C94.0254 35.3167 94.3487 34.9833 94.762 34.75C95.182 34.5167 95.662 34.4 96.202 34.4C96.722 34.4 97.1854 34.5133 97.592 34.74C97.9987 34.9667 98.3154 35.2867 98.542 35.7C98.7687 36.1067 98.882 36.5767 98.882 37.11ZM97.692 36.75C97.6854 36.33 97.5354 35.9933 97.242 35.74C96.9487 35.4867 96.5854 35.36 96.152 35.36C95.7587 35.36 95.422 35.4867 95.142 35.74C94.862 35.9867 94.6954 36.3233 94.642 36.75H97.692ZM102.784 34.4C103.217 34.4 103.604 34.49 103.944 34.67C104.291 34.85 104.561 35.1167 104.754 35.47C104.947 35.8233 105.044 36.25 105.044 36.75V40H103.914V36.92C103.914 36.4267 103.791 36.05 103.544 35.79C103.297 35.5233 102.961 35.39 102.534 35.39C102.107 35.39 101.767 35.5233 101.514 35.79C101.267 36.05 101.144 36.4267 101.144 36.92V40H100.004V34.49H101.144V35.12C101.331 34.8933 101.567 34.7167 101.854 34.59C102.147 34.4633 102.457 34.4 102.784 34.4ZM107.828 35.42V38.47C107.828 38.6767 107.875 38.8267 107.968 38.92C108.068 39.0067 108.235 39.05 108.468 39.05H109.168V40H108.268C107.755 40 107.361 39.88 107.088 39.64C106.815 39.4 106.678 39.01 106.678 38.47V35.42H106.028V34.49H106.678V33.12H107.828V34.49H109.168V35.42H107.828ZM112.219 40.09C111.785 40.09 111.395 40.0133 111.049 39.86C110.709 39.7 110.439 39.4867 110.239 39.22C110.039 38.9467 109.932 38.6433 109.919 38.31H111.099C111.119 38.5433 111.229 38.74 111.429 38.9C111.635 39.0533 111.892 39.13 112.199 39.13C112.519 39.13 112.765 39.07 112.939 38.95C113.119 38.8233 113.209 38.6633 113.209 38.47C113.209 38.2633 113.109 38.11 112.909 38.01C112.715 37.91 112.405 37.8 111.979 37.68C111.565 37.5667 111.229 37.4567 110.969 37.35C110.709 37.2433 110.482 37.08 110.289 36.86C110.102 36.64 110.009 36.35 110.009 35.99C110.009 35.6967 110.095 35.43 110.269 35.19C110.442 34.9433 110.689 34.75 111.009 34.61C111.335 34.47 111.709 34.4 112.129 34.4C112.755 34.4 113.259 34.56 113.639 34.88C114.025 35.1933 114.232 35.6233 114.259 36.17H113.119C113.099 35.9233 112.999 35.7267 112.819 35.58C112.639 35.4333 112.395 35.36 112.089 35.36C111.789 35.36 111.559 35.4167 111.399 35.53C111.239 35.6433 111.159 35.7933 111.159 35.98C111.159 36.1267 111.212 36.25 111.319 36.35C111.425 36.45 111.555 36.53 111.709 36.59C111.862 36.6433 112.089 36.7133 112.389 36.8C112.789 36.9067 113.115 37.0167 113.369 37.13C113.629 37.2367 113.852 37.3967 114.039 37.61C114.225 37.8233 114.322 38.1067 114.329 38.46C114.329 38.7733 114.242 39.0533 114.069 39.3C113.895 39.5467 113.649 39.74 113.329 39.88C113.015 40.02 112.645 40.09 112.219 40.09Z" fill="white"/>
<path d="M16.88 69.05V73.48C16.88 74.0067 17.0167 74.4033 17.29 74.67C17.57 74.9367 17.9567 75.07 18.45 75.07C18.95 75.07 19.3367 74.9367 19.61 74.67C19.89 74.4033 20.03 74.0067 20.03 73.48V69.05H21.17V73.46C21.17 74.0267 21.0467 74.5067 20.8 74.9C20.5533 75.2933 20.2233 75.5867 19.81 75.78C19.3967 75.9733 18.94 76.07 18.44 76.07C17.94 76.07 17.4833 75.9733 17.07 75.78C16.6633 75.5867 16.34 75.2933 16.1 74.9C15.86 74.5067 15.74 74.0267 15.74 73.46V69.05H16.88ZM25.4343 70.4C25.8676 70.4 26.2543 70.49 26.5943 70.67C26.941 70.85 27.211 71.1167 27.4043 71.47C27.5976 71.8233 27.6943 72.25 27.6943 72.75V76H26.5643V72.92C26.5643 72.4267 26.441 72.05 26.1943 71.79C25.9476 71.5233 25.611 71.39 25.1843 71.39C24.7576 71.39 24.4176 71.5233 24.1643 71.79C23.9176 72.05 23.7943 72.4267 23.7943 72.92V76H22.6543V70.49H23.7943V71.12C23.981 70.8933 24.2176 70.7167 24.5043 70.59C24.7976 70.4633 25.1076 70.4 25.4343 70.4ZM28.7684 73.22C28.7684 72.6667 28.8818 72.1767 29.1084 71.75C29.3418 71.3233 29.6551 70.9933 30.0484 70.76C30.4484 70.52 30.8918 70.4 31.3784 70.4C31.7384 70.4 32.0918 70.48 32.4384 70.64C32.7918 70.7933 33.0718 71 33.2784 71.26V68.6H34.4284V76H33.2784V75.17C33.0918 75.4367 32.8318 75.6567 32.4984 75.83C32.1718 76.0033 31.7951 76.09 31.3684 76.09C30.8884 76.09 30.4484 75.97 30.0484 75.73C29.6551 75.4833 29.3418 75.1433 29.1084 74.71C28.8818 74.27 28.7684 73.7733 28.7684 73.22ZM33.2784 73.24C33.2784 72.86 33.1984 72.53 33.0384 72.25C32.8851 71.97 32.6818 71.7567 32.4284 71.61C32.1751 71.4633 31.9018 71.39 31.6084 71.39C31.3151 71.39 31.0418 71.4633 30.7884 71.61C30.5351 71.75 30.3284 71.96 30.1684 72.24C30.0151 72.5133 29.9384 72.84 29.9384 73.22C29.9384 73.6 30.0151 73.9333 30.1684 74.22C30.3284 74.5067 30.5351 74.7267 30.7884 74.88C31.0484 75.0267 31.3218 75.1 31.6084 75.1C31.9018 75.1 32.1751 75.0267 32.4284 74.88C32.6818 74.7333 32.8851 74.52 33.0384 74.24C33.1984 73.9533 33.2784 73.62 33.2784 73.24ZM40.9758 73.11C40.9758 73.3167 40.9624 73.5033 40.9358 73.67H36.7258C36.7591 74.11 36.9224 74.4633 37.2158 74.73C37.5091 74.9967 37.8691 75.13 38.2958 75.13C38.9091 75.13 39.3424 74.8733 39.5958 74.36H40.8258C40.6591 74.8667 40.3558 75.2833 39.9158 75.61C39.4824 75.93 38.9424 76.09 38.2958 76.09C37.7691 76.09 37.2958 75.9733 36.8758 75.74C36.4624 75.5 36.1358 75.1667 35.8958 74.74C35.6624 74.3067 35.5458 73.8067 35.5458 73.24C35.5458 72.6733 35.6591 72.1767 35.8858 71.75C36.1191 71.3167 36.4424 70.9833 36.8558 70.75C37.2758 70.5167 37.7558 70.4 38.2958 70.4C38.8158 70.4 39.2791 70.5133 39.6858 70.74C40.0924 70.9667 40.4091 71.2867 40.6358 71.7C40.8624 72.1067 40.9758 72.5767 40.9758 73.11ZM39.7858 72.75C39.7791 72.33 39.6291 71.9933 39.3358 71.74C39.0424 71.4867 38.6791 71.36 38.2458 71.36C37.8524 71.36 37.5158 71.4867 37.2358 71.74C36.9558 71.9867 36.7891 72.3233 36.7358 72.75H39.7858ZM43.2377 71.29C43.4043 71.01 43.6243 70.7933 43.8977 70.64C44.1777 70.48 44.5077 70.4 44.8877 70.4V71.58H44.5977C44.151 71.58 43.811 71.6933 43.5777 71.92C43.351 72.1467 43.2377 72.54 43.2377 73.1V76H42.0977V70.49H43.2377V71.29ZM20.24 80.05V80.98H18.39V87H17.25V80.98H15.39V80.05H20.24ZM22.5345 82.29C22.7012 82.01 22.9212 81.7933 23.1945 81.64C23.4745 81.48 23.8045 81.4 24.1845 81.4V82.58H23.8945C23.4479 82.58 23.1079 82.6933 22.8745 82.92C22.6479 83.1467 22.5345 83.54 22.5345 84.1V87H21.3945V81.49H22.5345V82.29ZM30.2824 84.11C30.2824 84.3167 30.2691 84.5033 30.2424 84.67H26.0324C26.0658 85.11 26.2291 85.4633 26.5224 85.73C26.8158 85.9967 27.1758 86.13 27.6024 86.13C28.2158 86.13 28.6491 85.8733 28.9024 85.36H30.1324C29.9658 85.8667 29.6624 86.2833 29.2224 86.61C28.7891 86.93 28.2491 87.09 27.6024 87.09C27.0758 87.09 26.6024 86.9733 26.1824 86.74C25.7691 86.5 25.4424 86.1667 25.2024 85.74C24.9691 85.3067 24.8524 84.8067 24.8524 84.24C24.8524 83.6733 24.9658 83.1767 25.1924 82.75C25.4258 82.3167 25.7491 81.9833 26.1624 81.75C26.5824 81.5167 27.0624 81.4 27.6024 81.4C28.1224 81.4 28.5858 81.5133 28.9924 81.74C29.3991 81.9667 29.7158 82.2867 29.9424 82.7C30.1691 83.1067 30.2824 83.5767 30.2824 84.11ZM29.0924 83.75C29.0858 83.33 28.9358 82.9933 28.6424 82.74C28.3491 82.4867 27.9858 82.36 27.5524 82.36C27.1591 82.36 26.8224 82.4867 26.5424 82.74C26.2624 82.9867 26.0958 83.3233 26.0424 83.75H29.0924ZM31.0243 84.22C31.0243 83.6667 31.1376 83.1767 31.3643 82.75C31.5976 82.3233 31.911 81.9933 32.3043 81.76C32.7043 81.52 33.1443 81.4 33.6243 81.4C34.0576 81.4 34.4343 81.4867 34.7543 81.66C35.081 81.8267 35.341 82.0367 35.5343 82.29V81.49H36.6843V87H35.5343V86.18C35.341 86.44 35.0776 86.6567 34.7443 86.83C34.411 87.0033 34.031 87.09 33.6043 87.09C33.131 87.09 32.6976 86.97 32.3043 86.73C31.911 86.4833 31.5976 86.1433 31.3643 85.71C31.1376 85.27 31.0243 84.7733 31.0243 84.22ZM35.5343 84.24C35.5343 83.86 35.4543 83.53 35.2943 83.25C35.141 82.97 34.9376 82.7567 34.6843 82.61C34.431 82.4633 34.1576 82.39 33.8643 82.39C33.571 82.39 33.2976 82.4633 33.0443 82.61C32.791 82.75 32.5843 82.96 32.4243 83.24C32.271 83.5133 32.1943 83.84 32.1943 84.22C32.1943 84.6 32.271 84.9333 32.4243 85.22C32.5843 85.5067 32.791 85.7267 33.0443 85.88C33.3043 86.0267 33.5776 86.1 33.8643 86.1C34.1576 86.1 34.431 86.0267 34.6843 85.88C34.9376 85.7333 35.141 85.52 35.2943 85.24C35.4543 84.9533 35.5343 84.62 35.5343 84.24ZM39.5116 82.42V85.47C39.5116 85.6767 39.5583 85.8267 39.6516 85.92C39.7516 86.0067 39.9183 86.05 40.1516 86.05H40.8516V87H39.9516C39.4383 87 39.045 86.88 38.7716 86.64C38.4983 86.4 38.3616 86.01 38.3616 85.47V82.42H37.7116V81.49H38.3616V80.12H39.5116V81.49H40.8516V82.42H39.5116ZM48.5723 81.4C49.0057 81.4 49.3923 81.49 49.7323 81.67C50.079 81.85 50.349 82.1167 50.5423 82.47C50.7423 82.8233 50.8423 83.25 50.8423 83.75V87H49.7123V83.92C49.7123 83.4267 49.589 83.05 49.3423 82.79C49.0957 82.5233 48.759 82.39 48.3323 82.39C47.9057 82.39 47.5657 82.5233 47.3123 82.79C47.0657 83.05 46.9423 83.4267 46.9423 83.92V87H45.8123V83.92C45.8123 83.4267 45.689 83.05 45.4423 82.79C45.1957 82.5233 44.859 82.39 44.4323 82.39C44.0057 82.39 43.6657 82.5233 43.4123 82.79C43.1657 83.05 43.0423 83.4267 43.0423 83.92V87H41.9023V81.49H43.0423V82.12C43.229 81.8933 43.4657 81.7167 43.7523 81.59C44.039 81.4633 44.3457 81.4 44.6723 81.4C45.1123 81.4 45.5057 81.4933 45.8523 81.68C46.199 81.8667 46.4657 82.1367 46.6523 82.49C46.819 82.1567 47.079 81.8933 47.4323 81.7C47.7857 81.5 48.1657 81.4 48.5723 81.4ZM57.343 84.11C57.343 84.3167 57.3296 84.5033 57.303 84.67H53.093C53.1263 85.11 53.2896 85.4633 53.583 85.73C53.8763 85.9967 54.2363 86.13 54.663 86.13C55.2763 86.13 55.7096 85.8733 55.963 85.36H57.193C57.0263 85.8667 56.723 86.2833 56.283 86.61C55.8496 86.93 55.3096 87.09 54.663 87.09C54.1363 87.09 53.663 86.9733 53.243 86.74C52.8296 86.5 52.503 86.1667 52.263 85.74C52.0296 85.3067 51.913 84.8067 51.913 84.24C51.913 83.6733 52.0263 83.1767 52.253 82.75C52.4863 82.3167 52.8096 81.9833 53.223 81.75C53.643 81.5167 54.123 81.4 54.663 81.4C55.183 81.4 55.6463 81.5133 56.053 81.74C56.4596 81.9667 56.7763 82.2867 57.003 82.7C57.2296 83.1067 57.343 83.5767 57.343 84.11ZM56.153 83.75C56.1463 83.33 55.9963 82.9933 55.703 82.74C55.4096 82.4867 55.0463 82.36 54.613 82.36C54.2196 82.36 53.883 82.4867 53.603 82.74C53.323 82.9867 53.1563 83.3233 53.103 83.75H56.153ZM61.2448 81.4C61.6782 81.4 62.0648 81.49 62.4048 81.67C62.7515 81.85 63.0215 82.1167 63.2148 82.47C63.4082 82.8233 63.5048 83.25 63.5048 83.75V87H62.3748V83.92C62.3748 83.4267 62.2515 83.05 62.0048 82.79C61.7582 82.5233 61.4215 82.39 60.9948 82.39C60.5682 82.39 60.2282 82.5233 59.9748 82.79C59.7282 83.05 59.6048 83.4267 59.6048 83.92V87H58.4648V81.49H59.6048V82.12C59.7915 81.8933 60.0282 81.7167 60.3148 81.59C60.6082 81.4633 60.9182 81.4 61.2448 81.4ZM66.289 82.42V85.47C66.289 85.6767 66.3357 85.8267 66.429 85.92C66.529 86.0067 66.6957 86.05 66.929 86.05H67.629V87H66.729C66.2157 87 65.8223 86.88 65.549 86.64C65.2757 86.4 65.139 86.01 65.139 85.47V82.42H64.489V81.49H65.139V80.12H66.289V81.49H67.629V82.42H66.289Z" fill="white"/>
<path d="M83.746 128.156C84.898 127.196 85.816 126.398 86.5 125.762C87.184 125.114 87.754 124.442 88.21 123.746C88.666 123.05 88.894 122.366 88.894 121.694C88.894 121.082 88.75 120.602 88.462 120.254C88.174 119.906 87.73 119.732 87.13 119.732C86.53 119.732 86.068 119.936 85.744 120.344C85.42 120.74 85.252 121.286 85.24 121.982H82.792C82.84 120.542 83.266 119.45 84.07 118.706C84.886 117.962 85.918 117.59 87.166 117.59C88.534 117.59 89.584 117.956 90.316 118.688C91.048 119.408 91.414 120.362 91.414 121.55C91.414 122.486 91.162 123.38 90.658 124.232C90.154 125.084 89.578 125.828 88.93 126.464C88.282 127.088 87.436 127.844 86.392 128.732H91.702V130.82H82.81V128.948L83.746 128.156ZM93.3259 121.334C93.3859 120.134 93.8059 119.21 94.5859 118.562C95.3779 117.902 96.4159 117.572 97.6999 117.572C98.5759 117.572 99.3259 117.728 99.9499 118.04C100.574 118.34 101.042 118.754 101.354 119.282C101.678 119.798 101.84 120.386 101.84 121.046C101.84 121.802 101.642 122.444 101.246 122.972C100.862 123.488 100.4 123.836 99.8599 124.016V124.088C100.556 124.304 101.096 124.688 101.48 125.24C101.876 125.792 102.074 126.5 102.074 127.364C102.074 128.084 101.906 128.726 101.57 129.29C101.246 129.854 100.76 130.298 100.112 130.622C99.4759 130.934 98.7079 131.09 97.8079 131.09C96.4519 131.09 95.3479 130.748 94.4959 130.064C93.6439 129.38 93.1939 128.372 93.1459 127.04H95.5939C95.6179 127.628 95.8159 128.102 96.1879 128.462C96.5719 128.81 97.0939 128.984 97.7539 128.984C98.3659 128.984 98.8339 128.816 99.1579 128.48C99.4939 128.132 99.6619 127.688 99.6619 127.148C99.6619 126.428 99.4339 125.912 98.9779 125.6C98.5219 125.288 97.8139 125.132 96.8539 125.132H96.3319V123.062H96.8539C98.5579 123.062 99.4099 122.492 99.4099 121.352C99.4099 120.836 99.2539 120.434 98.9419 120.146C98.6419 119.858 98.2039 119.714 97.6279 119.714C97.0639 119.714 96.6259 119.87 96.3139 120.182C96.0139 120.482 95.8399 120.866 95.7919 121.334H93.3259Z" fill="white"/>
<path d="M75.746 56.156C76.898 55.196 77.816 54.398 78.5 53.762C79.184 53.114 79.754 52.442 80.21 51.746C80.666 51.05 80.894 50.366 80.894 49.694C80.894 49.082 80.75 48.602 80.462 48.254C80.174 47.906 79.73 47.732 79.13 47.732C78.53 47.732 78.068 47.936 77.744 48.344C77.42 48.74 77.252 49.286 77.24 49.982H74.792C74.84 48.542 75.266 47.45 76.07 46.706C76.886 45.962 77.918 45.59 79.166 45.59C80.534 45.59 81.584 45.956 82.316 46.688C83.048 47.408 83.414 48.362 83.414 49.55C83.414 50.486 83.162 51.38 82.658 52.232C82.154 53.084 81.578 53.828 80.93 54.464C80.282 55.088 79.436 55.844 78.392 56.732H83.702V58.82H74.81V56.948L75.746 56.156ZM85.3259 49.334C85.3859 48.134 85.8059 47.21 86.5859 46.562C87.3779 45.902 88.4159 45.572 89.6999 45.572C90.5759 45.572 91.3259 45.728 91.9499 46.04C92.5739 46.34 93.0419 46.754 93.3539 47.282C93.6779 47.798 93.8399 48.386 93.8399 49.046C93.8399 49.802 93.6419 50.444 93.2459 50.972C92.8619 51.488 92.3999 51.836 91.8599 52.016V52.088C92.5559 52.304 93.0959 52.688 93.4799 53.24C93.8759 53.792 94.0739 54.5 94.0739 55.364C94.0739 56.084 93.9059 56.726 93.5699 57.29C93.2459 57.854 92.7599 58.298 92.1119 58.622C91.4759 58.934 90.7079 59.09 89.8079 59.09C88.4519 59.09 87.3479 58.748 86.4959 58.064C85.6439 57.38 85.1939 56.372 85.1459 55.04H87.5939C87.6179 55.628 87.8159 56.102 88.1879 56.462C88.5719 56.81 89.0939 56.984 89.7539 56.984C90.3659 56.984 90.8339 56.816 91.1579 56.48C91.4939 56.132 91.6619 55.688 91.6619 55.148C91.6619 54.428 91.4339 53.912 90.9779 53.6C90.5219 53.288 89.8139 53.132 88.8539 53.132H88.3319V51.062H88.8539C90.5579 51.062 91.4099 50.492 91.4099 49.352C91.4099 48.836 91.2539 48.434 90.9419 48.146C90.6419 47.858 90.2039 47.714 89.6279 47.714C89.0639 47.714 88.6259 47.87 88.3139 48.182C88.0139 48.482 87.8399 48.866 87.7919 49.334H85.3259Z" fill="white"/>
<path d="M15.648 97.2V94.878H19.986V108H17.394V97.2H15.648ZM24.6715 101.052C23.4715 100.428 22.8715 99.462 22.8715 98.154C22.8715 97.506 23.0335 96.918 23.3575 96.39C23.6935 95.85 24.1915 95.424 24.8515 95.112C25.5235 94.788 26.3395 94.626 27.2995 94.626C28.2595 94.626 29.0695 94.788 29.7295 95.112C30.4015 95.424 30.8995 95.85 31.2235 96.39C31.5595 96.918 31.7275 97.506 31.7275 98.154C31.7275 98.814 31.5655 99.396 31.2415 99.9C30.9175 100.392 30.4855 100.776 29.9455 101.052C30.6055 101.34 31.1215 101.76 31.4935 102.312C31.8655 102.864 32.0515 103.518 32.0515 104.274C32.0515 105.09 31.8415 105.804 31.4215 106.416C31.0135 107.016 30.4495 107.478 29.7295 107.802C29.0095 108.126 28.1995 108.288 27.2995 108.288C26.3995 108.288 25.5895 108.126 24.8695 107.802C24.1615 107.478 23.5975 107.016 23.1775 106.416C22.7695 105.804 22.5655 105.09 22.5655 104.274C22.5655 103.518 22.7515 102.864 23.1235 102.312C23.4955 101.748 24.0115 101.328 24.6715 101.052ZM29.2795 98.514C29.2795 97.926 29.0995 97.47 28.7395 97.146C28.3915 96.822 27.9115 96.66 27.2995 96.66C26.6995 96.66 26.2195 96.822 25.8595 97.146C25.5115 97.47 25.3375 97.932 25.3375 98.532C25.3375 99.072 25.5175 99.504 25.8775 99.828C26.2495 100.152 26.7235 100.314 27.2995 100.314C27.8755 100.314 28.3495 100.152 28.7215 99.828C29.0935 99.492 29.2795 99.054 29.2795 98.514ZM27.2995 102.15C26.6155 102.15 26.0575 102.324 25.6255 102.672C25.2055 103.02 24.9955 103.518 24.9955 104.166C24.9955 104.766 25.1995 105.258 25.6075 105.642C26.0275 106.014 26.5915 106.2 27.2995 106.2C28.0075 106.2 28.5655 106.008 28.9735 105.624C29.3815 105.24 29.5855 104.754 29.5855 104.166C29.5855 103.53 29.3755 103.038 28.9555 102.69C28.5355 102.33 27.9835 102.15 27.2995 102.15ZM42.8619 97.056H37.0299V100.134C37.2819 99.822 37.6419 99.57 38.1099 99.378C38.5779 99.174 39.0759 99.072 39.6039 99.072C40.5639 99.072 41.3499 99.282 41.9619 99.702C42.5739 100.122 43.0179 100.662 43.2939 101.322C43.5699 101.97 43.7079 102.666 43.7079 103.41C43.7079 104.79 43.3119 105.9 42.5199 106.74C41.7399 107.58 40.6239 108 39.1719 108C37.8039 108 36.7119 107.658 35.8959 106.974C35.0799 106.29 34.6179 105.396 34.5099 104.292H36.9579C37.0659 104.772 37.3059 105.156 37.6779 105.444C38.0619 105.732 38.5479 105.876 39.1359 105.876C39.8439 105.876 40.3779 105.654 40.7379 105.21C41.0979 104.766 41.2779 104.178 41.2779 103.446C41.2779 102.702 41.0919 102.138 40.7199 101.754C40.3599 101.358 39.8259 101.16 39.1179 101.16C38.6139 101.16 38.1939 101.286 37.8579 101.538C37.5219 101.79 37.2819 102.126 37.1379 102.546H34.7259V94.842H42.8619V97.056Z" fill="white"/>
</svg>
