<svg width="95" height="30" viewBox="0 0 95 30" fill="none" xmlns="http://www.w3.org/2000/svg">
<path d="M0 0H75C86.0457 0 95 8.95431 95 20V30H20C8.9543 30 0 21.0457 0 10V0Z" fill="#5F5BFE"/>
<path d="M30.89 12.97V15.01H33.29V15.94H30.89V18.07H33.59V19H29.75V12.04H33.59V12.97H30.89ZM34.6141 16.22C34.6141 15.6667 34.7275 15.1767 34.9541 14.75C35.1875 14.3233 35.5008 13.9933 35.8941 13.76C36.2941 13.52 36.7375 13.4 37.2241 13.4C37.5841 13.4 37.9375 13.48 38.2841 13.64C38.6375 13.7933 38.9175 14 39.1241 14.26V11.6H40.2741V19H39.1241V18.17C38.9375 18.4367 38.6775 18.6567 38.3441 18.83C38.0175 19.0033 37.6408 19.09 37.2141 19.09C36.7341 19.09 36.2941 18.97 35.8941 18.73C35.5008 18.4833 35.1875 18.1433 34.9541 17.71C34.7275 17.27 34.6141 16.7733 34.6141 16.22ZM39.1241 16.24C39.1241 15.86 39.0441 15.53 38.8841 15.25C38.7308 14.97 38.5275 14.7567 38.2741 14.61C38.0208 14.4633 37.7475 14.39 37.4541 14.39C37.1608 14.39 36.8875 14.4633 36.6341 14.61C36.3808 14.75 36.1741 14.96 36.0141 15.24C35.8608 15.5133 35.7841 15.84 35.7841 16.22C35.7841 16.6 35.8608 16.9333 36.0141 17.22C36.1741 17.5067 36.3808 17.7267 36.6341 17.88C36.8941 18.0267 37.1675 18.1 37.4541 18.1C37.7475 18.1 38.0208 18.0267 38.2741 17.88C38.5275 17.7333 38.7308 17.52 38.8841 17.24C39.0441 16.9533 39.1241 16.62 39.1241 16.24ZM42.3515 12.76C42.1448 12.76 41.9715 12.69 41.8315 12.55C41.6915 12.41 41.6215 12.2367 41.6215 12.03C41.6215 11.8233 41.6915 11.65 41.8315 11.51C41.9715 11.37 42.1448 11.3 42.3515 11.3C42.5515 11.3 42.7215 11.37 42.8615 11.51C43.0015 11.65 43.0715 11.8233 43.0715 12.03C43.0715 12.2367 43.0015 12.41 42.8615 12.55C42.7215 12.69 42.5515 12.76 42.3515 12.76ZM42.9115 13.49V19H41.7715V13.49H42.9115ZM45.7382 14.42V17.47C45.7382 17.6767 45.7849 17.8267 45.8782 17.92C45.9782 18.0067 46.1449 18.05 46.3782 18.05H47.0782V19H46.1782C45.6649 19 45.2715 18.88 44.9982 18.64C44.7249 18.4 44.5882 18.01 44.5882 17.47V14.42H43.9382V13.49H44.5882V12.12H45.7382V13.49H47.0782V14.42H45.7382ZM57.3966 13.4C57.8299 13.4 58.2166 13.49 58.5566 13.67C58.9032 13.85 59.1732 14.1167 59.3666 14.47C59.5666 14.8233 59.6666 15.25 59.6666 15.75V19H58.5366V15.92C58.5366 15.4267 58.4132 15.05 58.1666 14.79C57.9199 14.5233 57.5832 14.39 57.1566 14.39C56.7299 14.39 56.3899 14.5233 56.1366 14.79C55.8899 15.05 55.7666 15.4267 55.7666 15.92V19H54.6366V15.92C54.6366 15.4267 54.5132 15.05 54.2666 14.79C54.0199 14.5233 53.6832 14.39 53.2566 14.39C52.8299 14.39 52.4899 14.5233 52.2366 14.79C51.9899 15.05 51.8666 15.4267 51.8666 15.92V19H50.7266V13.49H51.8666V14.12C52.0532 13.8933 52.2899 13.7167 52.5766 13.59C52.8632 13.4633 53.1699 13.4 53.4966 13.4C53.9366 13.4 54.3299 13.4933 54.6766 13.68C55.0232 13.8667 55.2899 14.1367 55.4766 14.49C55.6432 14.1567 55.9032 13.8933 56.2566 13.7C56.6099 13.5 56.9899 13.4 57.3966 13.4ZM63.5072 19.09C62.9872 19.09 62.5172 18.9733 62.0972 18.74C61.6772 18.5 61.3472 18.1667 61.1072 17.74C60.8672 17.3067 60.7472 16.8067 60.7472 16.24C60.7472 15.68 60.8705 15.1833 61.1172 14.75C61.3639 14.3167 61.7005 13.9833 62.1272 13.75C62.5539 13.5167 63.0305 13.4 63.5572 13.4C64.0839 13.4 64.5605 13.5167 64.9872 13.75C65.4139 13.9833 65.7505 14.3167 65.9972 14.75C66.2439 15.1833 66.3672 15.68 66.3672 16.24C66.3672 16.8 66.2405 17.2967 65.9872 17.73C65.7339 18.1633 65.3872 18.5 64.9472 18.74C64.5139 18.9733 64.0339 19.09 63.5072 19.09ZM63.5072 18.1C63.8005 18.1 64.0739 18.03 64.3272 17.89C64.5872 17.75 64.7972 17.54 64.9572 17.26C65.1172 16.98 65.1972 16.64 65.1972 16.24C65.1972 15.84 65.1205 15.5033 64.9672 15.23C64.8139 14.95 64.6105 14.74 64.3572 14.6C64.1039 14.46 63.8305 14.39 63.5372 14.39C63.2439 14.39 62.9705 14.46 62.7172 14.6C62.4705 14.74 62.2739 14.95 62.1272 15.23C61.9805 15.5033 61.9072 15.84 61.9072 16.24C61.9072 16.8333 62.0572 17.2933 62.3572 17.62C62.6639 17.94 63.0472 18.1 63.5072 18.1ZM67.1141 16.22C67.1141 15.6667 67.2275 15.1767 67.4541 14.75C67.6875 14.3233 68.0008 13.9933 68.3941 13.76C68.7941 13.52 69.2375 13.4 69.7241 13.4C70.0841 13.4 70.4375 13.48 70.7841 13.64C71.1375 13.7933 71.4175 14 71.6241 14.26V11.6H72.7741V19H71.6241V18.17C71.4375 18.4367 71.1775 18.6567 70.8441 18.83C70.5175 19.0033 70.1408 19.09 69.7141 19.09C69.2341 19.09 68.7941 18.97 68.3941 18.73C68.0008 18.4833 67.6875 18.1433 67.4541 17.71C67.2275 17.27 67.1141 16.7733 67.1141 16.22ZM71.6241 16.24C71.6241 15.86 71.5441 15.53 71.3841 15.25C71.2308 14.97 71.0275 14.7567 70.7741 14.61C70.5208 14.4633 70.2475 14.39 69.9541 14.39C69.6608 14.39 69.3875 14.4633 69.1341 14.61C68.8808 14.75 68.6741 14.96 68.5141 15.24C68.3608 15.5133 68.2841 15.84 68.2841 16.22C68.2841 16.6 68.3608 16.9333 68.5141 17.22C68.6741 17.5067 68.8808 17.7267 69.1341 17.88C69.3941 18.0267 69.6675 18.1 69.9541 18.1C70.2475 18.1 70.5208 18.0267 70.7741 17.88C71.0275 17.7333 71.2308 17.52 71.3841 17.24C71.5441 16.9533 71.6241 16.62 71.6241 16.24ZM79.3215 16.11C79.3215 16.3167 79.3082 16.5033 79.2815 16.67H75.0715C75.1048 17.11 75.2682 17.4633 75.5615 17.73C75.8548 17.9967 76.2148 18.13 76.6415 18.13C77.2548 18.13 77.6882 17.8733 77.9415 17.36H79.1715C79.0048 17.8667 78.7015 18.2833 78.2615 18.61C77.8282 18.93 77.2882 19.09 76.6415 19.09C76.1148 19.09 75.6415 18.9733 75.2215 18.74C74.8082 18.5 74.4815 18.1667 74.2415 17.74C74.0082 17.3067 73.8915 16.8067 73.8915 16.24C73.8915 15.6733 74.0048 15.1767 74.2315 14.75C74.4648 14.3167 74.7882 13.9833 75.2015 13.75C75.6215 13.5167 76.1015 13.4 76.6415 13.4C77.1615 13.4 77.6248 13.5133 78.0315 13.74C78.4382 13.9667 78.7548 14.2867 78.9815 14.7C79.2082 15.1067 79.3215 15.5767 79.3215 16.11ZM78.1315 15.75C78.1248 15.33 77.9748 14.9933 77.6815 14.74C77.3882 14.4867 77.0248 14.36 76.5915 14.36C76.1982 14.36 75.8615 14.4867 75.5815 14.74C75.3015 14.9867 75.1348 15.3233 75.0815 15.75H78.1315Z" fill="white"/>
<path d="M14 20.7052C14.0589 20.4876 14.1198 20.2681 14.1747 20.0505C14.3189 19.4732 14.4611 18.8958 14.6074 18.3205C14.6216 18.2636 14.6541 18.2046 14.6947 18.162C16.5025 16.3486 18.3144 14.5372 20.1243 12.7259C20.1385 12.7117 20.1528 12.6995 20.1609 12.6934C20.8739 13.4069 21.5828 14.1164 22.2998 14.834C22.2876 14.8483 22.2633 14.8747 22.2389 14.8991C20.4473 16.6901 18.6557 18.4832 16.86 20.2742C16.8052 20.3291 16.73 20.3738 16.6549 20.3921C15.881 20.5893 15.105 20.7824 14.3311 20.9755C14.1544 21.0203 14.0955 20.9959 14 20.8414C14 20.7966 14 20.7519 14 20.7052Z" fill="white"/>
<path d="M23.9935 12.8333C23.9793 12.8861 23.9732 12.943 23.9508 12.9898C23.8858 13.124 23.8371 13.2744 23.7396 13.3801C23.4775 13.6607 23.1952 13.9209 22.9271 14.1811C22.2263 13.4797 21.5133 12.7662 20.8125 12.0648C21.0745 11.7965 21.3284 11.5057 21.6128 11.2496C21.9906 10.9101 22.6244 10.9203 23.0043 11.2598C23.2622 11.4915 23.5019 11.7456 23.7416 11.9977C23.8899 12.1522 23.9488 12.3535 23.9955 12.5588C23.9935 12.6503 23.9935 12.7418 23.9935 12.8333Z" fill="white"/>
</svg>
