<svg width="95" height="30" viewBox="0 0 95 30" fill="none" xmlns="http://www.w3.org/2000/svg">
<path d="M0 0H75C86.0457 0 95 8.95431 95 20V30H20C8.9543 30 0 21.0457 0 10V0Z" fill="#3A72A6"/>
<g clip-path="url(#clip0_2239_3)">
<path d="M10 14.3617C10.127 14.1863 10.2385 13.999 10.3778 13.8355C11.1366 12.9496 12.0255 12.2093 13.1002 11.6861C13.8342 11.3293 14.6054 11.1034 15.4261 11.0291C17.018 10.8834 18.4612 11.2907 19.7806 12.135C20.6385 12.685 21.3508 13.3747 21.9733 14.1566C22.1282 14.3498 22.1282 14.5579 21.9733 14.7512C21.2548 15.655 20.4155 16.4309 19.3903 17.0077C18.5417 17.4863 17.6343 17.7895 16.6494 17.8787C15.2186 18.0095 13.8961 17.6885 12.6666 16.9898C11.6507 16.4131 10.8176 15.6371 10.1084 14.7393C10.0619 14.6798 10.0341 14.6085 10 14.5431C10 14.4836 10 14.4242 10 14.3617ZM15.9619 12.0161C14.5837 12.0399 13.4811 13.1666 13.5028 14.5252C13.5245 15.8542 14.7014 16.9155 16.1229 16.8887C17.498 16.865 18.6068 15.7323 18.582 14.3796C18.5603 13.0507 17.3834 11.9923 15.9619 12.0161Z" fill="white"/>
<path d="M16.0478 13.1406C16.7911 13.1406 17.4105 13.7233 17.4136 14.4279C17.4167 15.1682 16.8004 15.7657 16.0354 15.7657C15.2921 15.7657 14.6758 15.1741 14.6758 14.4606C14.6758 13.7352 15.2952 13.1406 16.0478 13.1406Z" fill="white"/>
</g>
<path d="M33.74 11.05L31.13 18H29.81L27.19 11.05H28.41L30.47 16.83L32.54 11.05H33.74ZM35.2734 11.76C35.0667 11.76 34.8934 11.69 34.7534 11.55C34.6134 11.41 34.5434 11.2367 34.5434 11.03C34.5434 10.8233 34.6134 10.65 34.7534 10.51C34.8934 10.37 35.0667 10.3 35.2734 10.3C35.4734 10.3 35.6434 10.37 35.7834 10.51C35.9234 10.65 35.9934 10.8233 35.9934 11.03C35.9934 11.2367 35.9234 11.41 35.7834 11.55C35.6434 11.69 35.4734 11.76 35.2734 11.76ZM35.8334 12.49V18H34.6934V12.49H35.8334ZM42.3801 15.11C42.3801 15.3167 42.3667 15.5033 42.3401 15.67H38.1301C38.1634 16.11 38.3267 16.4633 38.6201 16.73C38.9134 16.9967 39.2734 17.13 39.7001 17.13C40.3134 17.13 40.7467 16.8733 41.0001 16.36H42.2301C42.0634 16.8667 41.7601 17.2833 41.3201 17.61C40.8867 17.93 40.3467 18.09 39.7001 18.09C39.1734 18.09 38.7001 17.9733 38.2801 17.74C37.8667 17.5 37.5401 17.1667 37.3001 16.74C37.0667 16.3067 36.9501 15.8067 36.9501 15.24C36.9501 14.6733 37.0634 14.1767 37.2901 13.75C37.5234 13.3167 37.8467 12.9833 38.2601 12.75C38.6801 12.5167 39.1601 12.4 39.7001 12.4C40.2201 12.4 40.6834 12.5133 41.0901 12.74C41.4967 12.9667 41.8134 13.2867 42.0401 13.7C42.2667 14.1067 42.3801 14.5767 42.3801 15.11ZM41.1901 14.75C41.1834 14.33 41.0334 13.9933 40.7401 13.74C40.4467 13.4867 40.0834 13.36 39.6501 13.36C39.2567 13.36 38.9201 13.4867 38.6401 13.74C38.3601 13.9867 38.1934 14.3233 38.1401 14.75H41.1901ZM50.902 12.49L49.192 18H47.992L46.882 13.93L45.772 18H44.572L42.852 12.49H44.012L45.162 16.92L46.332 12.49H47.522L48.642 16.9L49.782 12.49H50.902ZM61.0216 12.4C61.4549 12.4 61.8416 12.49 62.1816 12.67C62.5282 12.85 62.7982 13.1167 62.9916 13.47C63.1916 13.8233 63.2916 14.25 63.2916 14.75V18H62.1616V14.92C62.1616 14.4267 62.0382 14.05 61.7916 13.79C61.5449 13.5233 61.2082 13.39 60.7816 13.39C60.3549 13.39 60.0149 13.5233 59.7616 13.79C59.5149 14.05 59.3916 14.4267 59.3916 14.92V18H58.2616V14.92C58.2616 14.4267 58.1382 14.05 57.8916 13.79C57.6449 13.5233 57.3082 13.39 56.8816 13.39C56.4549 13.39 56.1149 13.5233 55.8616 13.79C55.6149 14.05 55.4916 14.4267 55.4916 14.92V18H54.3516V12.49H55.4916V13.12C55.6782 12.8933 55.9149 12.7167 56.2016 12.59C56.4882 12.4633 56.7949 12.4 57.1216 12.4C57.5616 12.4 57.9549 12.4933 58.3016 12.68C58.6482 12.8667 58.9149 13.1367 59.1016 13.49C59.2682 13.1567 59.5282 12.8933 59.8816 12.7C60.2349 12.5 60.6149 12.4 61.0216 12.4ZM67.1322 18.09C66.6122 18.09 66.1422 17.9733 65.7222 17.74C65.3022 17.5 64.9722 17.1667 64.7322 16.74C64.4922 16.3067 64.3722 15.8067 64.3722 15.24C64.3722 14.68 64.4955 14.1833 64.7422 13.75C64.9889 13.3167 65.3255 12.9833 65.7522 12.75C66.1789 12.5167 66.6555 12.4 67.1822 12.4C67.7089 12.4 68.1855 12.5167 68.6122 12.75C69.0389 12.9833 69.3755 13.3167 69.6222 13.75C69.8689 14.1833 69.9922 14.68 69.9922 15.24C69.9922 15.8 69.8655 16.2967 69.6122 16.73C69.3589 17.1633 69.0122 17.5 68.5722 17.74C68.1389 17.9733 67.6589 18.09 67.1322 18.09ZM67.1322 17.1C67.4255 17.1 67.6989 17.03 67.9522 16.89C68.2122 16.75 68.4222 16.54 68.5822 16.26C68.7422 15.98 68.8222 15.64 68.8222 15.24C68.8222 14.84 68.7455 14.5033 68.5922 14.23C68.4389 13.95 68.2355 13.74 67.9822 13.6C67.7289 13.46 67.4555 13.39 67.1622 13.39C66.8689 13.39 66.5955 13.46 66.3422 13.6C66.0955 13.74 65.8989 13.95 65.7522 14.23C65.6055 14.5033 65.5322 14.84 65.5322 15.24C65.5322 15.8333 65.6822 16.2933 65.9822 16.62C66.2889 16.94 66.6722 17.1 67.1322 17.1ZM70.7391 15.22C70.7391 14.6667 70.8525 14.1767 71.0791 13.75C71.3125 13.3233 71.6258 12.9933 72.0191 12.76C72.4191 12.52 72.8625 12.4 73.3491 12.4C73.7091 12.4 74.0625 12.48 74.4091 12.64C74.7625 12.7933 75.0425 13 75.2491 13.26V10.6H76.3991V18H75.2491V17.17C75.0625 17.4367 74.8025 17.6567 74.4691 17.83C74.1425 18.0033 73.7658 18.09 73.3391 18.09C72.8591 18.09 72.4191 17.97 72.0191 17.73C71.6258 17.4833 71.3125 17.1433 71.0791 16.71C70.8525 16.27 70.7391 15.7733 70.7391 15.22ZM75.2491 15.24C75.2491 14.86 75.1691 14.53 75.0091 14.25C74.8558 13.97 74.6525 13.7567 74.3991 13.61C74.1458 13.4633 73.8725 13.39 73.5791 13.39C73.2858 13.39 73.0125 13.4633 72.7591 13.61C72.5058 13.75 72.2991 13.96 72.1391 14.24C71.9858 14.5133 71.9091 14.84 71.9091 15.22C71.9091 15.6 71.9858 15.9333 72.1391 16.22C72.2991 16.5067 72.5058 16.7267 72.7591 16.88C73.0191 17.0267 73.2925 17.1 73.5791 17.1C73.8725 17.1 74.1458 17.0267 74.3991 16.88C74.6525 16.7333 74.8558 16.52 75.0091 16.24C75.1691 15.9533 75.2491 15.62 75.2491 15.24ZM82.9465 15.11C82.9465 15.3167 82.9332 15.5033 82.9065 15.67H78.6965C78.7298 16.11 78.8932 16.4633 79.1865 16.73C79.4798 16.9967 79.8398 17.13 80.2665 17.13C80.8798 17.13 81.3132 16.8733 81.5665 16.36H82.7965C82.6298 16.8667 82.3265 17.2833 81.8865 17.61C81.4532 17.93 80.9132 18.09 80.2665 18.09C79.7398 18.09 79.2665 17.9733 78.8465 17.74C78.4332 17.5 78.1065 17.1667 77.8665 16.74C77.6332 16.3067 77.5165 15.8067 77.5165 15.24C77.5165 14.6733 77.6298 14.1767 77.8565 13.75C78.0898 13.3167 78.4132 12.9833 78.8265 12.75C79.2465 12.5167 79.7265 12.4 80.2665 12.4C80.7865 12.4 81.2498 12.5133 81.6565 12.74C82.0632 12.9667 82.3798 13.2867 82.6065 13.7C82.8332 14.1067 82.9465 14.5767 82.9465 15.11ZM81.7565 14.75C81.7498 14.33 81.5998 13.9933 81.3065 13.74C81.0132 13.4867 80.6498 13.36 80.2165 13.36C79.8232 13.36 79.4865 13.4867 79.2065 13.74C78.9265 13.9867 78.7598 14.3233 78.7065 14.75H81.7565Z" fill="white"/>
<defs>
<clipPath id="clip0_2239_3">
<path d="M10 11H15.1819C18.9977 11 22.091 14.0933 22.091 17.9091H16.9091C13.0933 17.9091 10 14.8158 10 11Z" fill="white"/>
</clipPath>
</defs>
</svg>
