<svg width="18" height="17" viewBox="0 0 18 17" fill="none" xmlns="http://www.w3.org/2000/svg">
<path d="M17.697 6.36332C16.4357 5.43178 15.1789 4.49577 13.9176 3.56424C12.4586 2.48491 10.9996 1.40111 9.54062 0.321787C9.10996 0.00381199 8.89023 -0.000666529 8.46395 0.317309C5.76568 2.31473 3.06741 4.31663 0.36475 6.31405C0.197756 6.43945 0.0703132 6.58276 0 6.77534V7.06196C0.030762 7.1381 0.0571295 7.21423 0.0966807 7.28589C0.241702 7.58595 0.474614 7.7427 0.812997 7.7427C1.28761 7.73822 1.75783 7.7427 2.25442 7.7427V7.96663C2.25442 10.6403 2.25442 13.314 2.25442 15.9921C2.25442 16.0683 2.25442 16.1489 2.25881 16.225C2.28957 16.6102 2.53128 16.8655 2.90481 16.9102C2.97952 16.9192 3.05862 16.9192 3.13333 16.9192H6.37653V13.5155C6.37653 12.781 6.96101 12.1899 7.67732 12.1899H10.3316C11.0524 12.1899 11.6324 12.7855 11.6324 13.5155V16.9147H14.8712C14.9416 16.9147 15.0119 16.9147 15.0822 16.9102C15.4733 16.8699 15.7238 16.6102 15.7502 16.2116C15.7546 16.1399 15.7546 16.0683 15.7546 15.9966C15.7546 13.3229 15.7546 10.6493 15.7546 7.97111V7.7427C16.2336 7.7427 16.695 7.7427 17.1564 7.7427C17.6091 7.7427 17.8947 7.50534 17.987 7.05749C18.0397 6.7619 17.9299 6.53798 17.697 6.36332Z" fill="#454545"/>
</svg>
