<svg width="19" height="19" viewBox="0 0 19 19" fill="none" xmlns="http://www.w3.org/2000/svg">
<path d="M9.70198 0.0262947C9.839 0.0411237 9.97231 0.0633671 10.1056 0.0893178C10.25 0.118976 10.3945 0.148634 10.5352 0.185706C10.5426 0.185706 10.5463 0.189413 10.5537 0.189413C10.6055 0.204242 10.6574 0.219071 10.7092 0.2339C12.6089 0.808522 14.1976 2.70663 13.9939 5.14229C13.8087 7.33327 12.1386 9.00894 10.1612 9.36113C7.50973 9.83195 5.02863 8.04506 4.63981 5.37955C4.59907 5.10151 4.58426 4.81605 4.59537 4.5343C4.60648 4.25996 4.64351 3.98192 4.70276 3.715C4.76201 3.44808 4.84348 3.18857 4.94717 2.93648C5.05085 2.68809 5.17676 2.44712 5.32118 2.21727C5.4656 1.98742 5.62854 1.77241 5.80999 1.57221C5.99145 1.37202 6.18771 1.18666 6.40249 1.01984C6.61728 0.849302 6.84317 0.701012 7.08387 0.571259C7.32828 0.441506 7.58009 0.330288 7.84301 0.245022C8.20592 0.12639 8.58734 0.0633671 8.96506 0.0188802C9.20947 -0.0107777 9.45757 -0.00336323 9.70198 0.0262947Z" fill="#454545"/>
<path d="M9.85352 18.9922C9.85352 17.1757 9.85722 15.3591 9.85352 13.5463C9.85352 13.3943 9.89425 13.2756 9.97942 13.157C10.783 12.0337 11.5792 10.903 12.3865 9.77972C12.4827 9.64255 12.6309 9.53875 12.7679 9.43865C12.8901 9.34968 13.2345 9.55358 13.2345 9.70928C13.2345 10.9327 13.2345 12.1561 13.2382 13.3795C13.2382 13.5055 13.1789 13.5426 13.0826 13.5908C12.4494 13.8948 12.1013 14.5398 12.1865 15.2479C12.2643 15.8967 12.7827 16.4528 13.4418 16.5899C14.2158 16.753 14.9898 16.323 15.2638 15.5741C15.5341 14.829 15.2231 13.9949 14.5232 13.6278C14.3861 13.5537 14.3343 13.4833 14.3343 13.3238C14.3454 12.3525 14.338 11.385 14.338 10.4137C14.338 10.3543 14.338 10.2913 14.338 10.2061C14.4047 10.2431 14.4528 10.2654 14.4972 10.295C16.7191 11.8447 18.0782 13.9504 18.5003 16.6344C18.5855 17.1794 18.5781 17.7429 18.6077 18.2953C18.6188 18.5288 18.6188 18.7624 18.6262 18.9959C15.7045 18.9922 12.779 18.9922 9.85352 18.9922ZM11.1607 17.2202C11.457 17.2202 11.7162 16.9792 11.7162 16.6937C11.7162 16.3749 11.4681 16.1154 11.1644 16.1191C10.8793 16.1228 10.6238 16.3638 10.6164 16.6381C10.6127 16.9569 10.8534 17.2164 11.1607 17.2202Z" fill="#454545"/>
<path d="M0.00242939 18.9925C-0.00127374 18.1102 -0.0197894 17.2241 0.150554 16.3529C0.665289 13.6986 2.06507 11.641 4.32028 10.1618C4.3499 10.1433 4.38323 10.1248 4.43507 10.0988C4.43878 10.1581 4.44618 10.2063 4.44618 10.2508C4.44618 11.2332 4.44618 12.2157 4.44989 13.1981C4.44989 13.3204 4.42396 13.376 4.29065 13.4094C3.09824 13.6986 2.25393 14.7514 2.22431 15.9859C2.2169 16.3418 2.22431 16.7014 2.22431 17.0721C2.59092 17.0721 2.94642 17.0721 3.32784 17.0721C3.32784 16.9832 3.32413 16.9016 3.32784 16.8163C3.34265 16.4419 3.30932 16.0564 3.37968 15.6931C3.53892 14.8775 4.31287 14.351 5.13867 14.4437C5.93114 14.5327 6.54586 15.2111 6.56437 16.0156C6.57178 16.3455 6.56437 16.6792 6.56437 17.0202C6.94209 17.0202 7.29389 17.0202 7.65309 17.0202C7.76048 15.845 7.67161 14.7255 6.64954 13.9358C6.33478 13.6911 5.95336 13.5354 5.60156 13.339C5.58675 13.3538 5.57564 13.3686 5.56082 13.3834C5.56082 13.3093 5.56082 13.2352 5.56082 13.1647C5.56082 12.0043 5.56082 10.8403 5.56453 9.67991C5.56453 9.60947 5.60156 9.51679 5.6534 9.46859C5.73857 9.39074 5.84226 9.39816 5.92743 9.49084C6.04964 9.61688 6.19776 9.7281 6.29775 9.86898C7.08651 10.9663 7.86787 12.0711 8.64553 13.1758C8.70108 13.2574 8.75292 13.3612 8.75292 13.4576C8.76033 15.2741 8.75662 17.0907 8.75662 18.9072C8.75662 18.9369 8.75292 18.9703 8.74922 18.9999C5.82745 18.9925 2.91309 18.9925 0.00242939 18.9925Z" fill="#454545"/>
<path d="M8.06836 10.4541C8.90897 10.6246 9.70884 10.6246 10.5458 10.4541C10.1199 11.051 9.72366 11.6145 9.3052 12.2002C8.89416 11.6182 8.49422 11.0547 8.06836 10.4541Z" fill="#454545"/>
<path d="M14.2552 15.0374C14.2515 15.3118 14.0293 15.5231 13.7516 15.5194C13.485 15.512 13.2776 15.2969 13.2813 15.0263C13.285 14.752 13.5072 14.537 13.7849 14.5444C14.0515 14.5518 14.2589 14.7705 14.2552 15.0374Z" fill="#454545"/>
</svg>
