<svg width="22" height="22" viewBox="0 0 22 22" fill="none" xmlns="http://www.w3.org/2000/svg">
<path d="M13.1054 21.9999C12.783 21.897 12.5704 21.6707 12.3921 21.3895C11.9601 20.7243 11.5143 20.066 11.0754 19.4008C11 19.2842 10.9177 19.243 10.7805 19.243C10.2594 19.2499 9.73815 19.2499 9.2101 19.243C8.65461 19.243 8.25 18.8521 8.25 18.3309C8.25 17.8097 8.64776 17.412 9.20324 17.4051C9.94389 17.3983 10.6777 17.3983 11.4183 17.4051C11.7749 17.4051 12.0493 17.556 12.2481 17.8509C12.5499 18.3104 12.8585 18.763 13.1739 19.243C13.2425 19.1127 13.3042 18.9961 13.3591 18.8864C13.9626 17.6863 14.5661 16.4862 15.1627 15.2792C15.341 14.9157 15.6016 14.6757 16.0131 14.662C16.4177 14.6483 16.692 14.8677 16.8909 15.2106C17.659 16.4999 18.4339 17.7892 19.202 19.0784C19.2774 19.2087 19.3597 19.2499 19.5037 19.2499C19.9564 19.243 20.409 19.2636 20.8547 19.243C21.4239 19.2156 21.808 19.4351 21.9931 19.9768C21.9931 20.1071 21.9931 20.2374 21.9931 20.3609C21.7943 20.9095 21.3897 21.1084 20.8205 21.0878C20.1895 21.0672 19.5586 21.0741 18.9277 21.0878C18.4751 21.0947 18.1527 20.9163 17.9196 20.5255C17.3641 19.5791 16.7949 18.6464 16.2325 17.7069C16.1914 17.6452 16.1503 17.5834 16.1022 17.5011C16.0474 17.604 16.0131 17.6657 15.9788 17.7343C15.3959 18.907 14.7993 20.0728 14.2301 21.2455C14.0655 21.5884 13.8529 21.8627 13.4825 21.993C13.366 21.9999 13.2357 21.9999 13.1054 21.9999Z" fill="#454545"/>
<path d="M15.6026 12.879C15.4517 12.9202 15.3214 12.9476 15.1911 12.9888C14.4642 13.2288 13.9155 13.6814 13.5726 14.3741C13.3463 14.8198 13.1269 15.2656 12.9006 15.7182C12.8663 15.7799 12.832 15.8416 12.7909 15.9308C12.1325 15.533 11.4124 15.5879 10.6992 15.5879C10.2054 15.5879 9.71168 15.5879 9.21791 15.5879C7.69547 15.5948 6.52278 16.6783 6.43362 18.1939C6.41305 18.5368 6.49534 18.8865 6.53649 19.25C6.49534 19.25 6.42677 19.25 6.35819 19.25C4.51342 19.25 2.6618 19.25 0.817039 19.25C0.268411 19.25 0.0078125 18.9894 0.0078125 18.4339C0.0078125 17.5012 0.0078125 16.5754 0.0078125 15.6428C0.0146704 13.3317 1.57826 11.4595 3.86193 11.0617C4.10881 11.0206 4.36255 11.0069 4.60943 11.0069C7.03711 11 9.46479 11 11.8925 11.0069C13.3189 11.0137 14.4985 11.5761 15.4311 12.6527C15.4791 12.7213 15.534 12.7899 15.6026 12.879Z" fill="#454545"/>
<path d="M8.24903 9.1621C5.71848 9.1621 3.66799 7.1116 3.66799 4.58791C3.66113 2.05736 5.71848 0 8.24903 0C10.7796 0 12.8438 2.07107 12.8301 4.59476C12.8232 7.12531 10.7727 9.1621 8.24903 9.1621Z" fill="#454545"/>
</svg>
