<svg width="24" height="24" viewBox="0 0 24 24" fill="none" xmlns="http://www.w3.org/2000/svg">
<path d="M12.6844 23.9939C12.6844 22.0615 12.6782 20.1229 12.6844 18.1906C12.6844 16.9086 13.18 15.8455 14.2024 15.0701C15.3691 14.1883 16.6237 13.4629 18.0476 13.0752C18.3486 12.9939 18.6811 12.9751 18.9947 13.0002C19.5091 13.0377 19.7349 13.4066 19.5969 13.9132C19.4652 14.4135 19.1766 14.8324 18.7815 15.1451C18.0664 15.7142 17.3199 16.2395 16.586 16.7835C16.2097 17.0587 15.827 17.3339 15.4256 17.6278C15.7079 18.003 15.9839 18.3657 16.2661 18.7534C16.6801 18.4532 17.0878 18.1656 17.4893 17.8717C18.0601 17.4589 18.6309 17.0524 19.1955 16.6335C20.3183 15.8017 21.0333 14.7011 21.2905 13.3378C21.4223 12.6375 21.4285 11.912 21.5163 11.1991C21.6732 9.90465 21.8362 8.61017 22.3192 7.39073C22.4196 7.13434 22.5702 6.88419 22.7458 6.67157C23.0155 6.35264 23.3354 6.39642 23.5424 6.75287C23.7996 7.19062 23.8498 7.67839 23.9062 8.16617C23.9439 8.49761 23.969 8.82904 24.0003 9.16048C24.0003 9.94217 24.0003 10.7239 24.0003 11.4993C23.9878 11.5743 23.969 11.6494 23.969 11.7244C23.9313 12.3936 23.8811 13.0627 23.8623 13.7318C23.831 14.8575 23.5236 15.883 22.8022 16.7648C22.6015 17.0149 22.4133 17.2776 22.1875 17.5027C21.3282 18.3594 20.4437 19.1849 19.5969 20.0479C18.9445 20.7108 18.2985 21.3799 17.7026 22.0865C17.2447 22.6244 16.9248 23.256 16.9122 24.0001C15.5071 23.9939 14.0958 23.9939 12.6844 23.9939Z" fill="#454545"/>
<path d="M7.05131 23.994C7.02622 23.2498 6.71259 22.6119 6.24214 22.0616C5.62115 21.3362 4.95624 20.6296 4.27252 19.9604C3.28144 18.9911 2.22763 18.0906 1.35573 17.015C0.810011 16.3459 0.314471 15.6267 0.207835 14.7325C0.113745 13.9258 0.044746 13.1191 0.025928 12.3061C-0.00543534 11.0804 -0.011708 9.85472 0.025928 8.63528C0.044746 8.09122 0.182745 7.54091 0.301925 7.0031C0.358379 6.74045 0.496378 6.4778 0.810011 6.45279C1.10483 6.42778 1.27419 6.65916 1.40591 6.88428C1.776 7.49713 1.97045 8.17251 2.07082 8.86666C2.27782 10.2299 2.45972 11.5995 2.61654 12.969C2.75454 14.1822 3.2689 15.2203 4.12825 16.0582C4.63634 16.5585 5.25106 16.9525 5.82187 17.384C6.43659 17.8405 7.05759 18.2845 7.69113 18.741C7.9734 18.3658 8.24312 18.0093 8.53166 17.6279C8.46894 17.5778 8.41248 17.5278 8.34976 17.484C7.41513 16.8024 6.47423 16.127 5.5396 15.4454C5.11933 15.139 4.75552 14.77 4.51716 14.301C4.34779 13.9758 4.20352 13.6256 4.42934 13.2817C4.66143 12.9377 5.04406 12.944 5.40788 12.969C6.2045 13.0315 6.92586 13.3504 7.60331 13.7319C8.31212 14.1259 9.02093 14.5324 9.67956 15.0076C10.7522 15.7831 11.2728 16.8712 11.2791 18.1844C11.2916 20.1168 11.2854 22.0554 11.2854 23.9877C9.86774 23.994 8.46266 23.994 7.05131 23.994Z" fill="#454545"/>
<path d="M11.9948 13.3442C11.1166 12.6689 10.251 11.9872 9.37282 11.3306C8.44447 10.6302 7.48475 9.97358 6.56267 9.26068C5.8664 8.72287 5.26423 8.09126 4.83141 7.31582C3.22561 4.46421 5.00078 0.712086 8.22493 0.111746C9.64255 -0.150902 10.872 0.186789 11.9007 1.20612C11.9195 1.22488 11.9446 1.24364 11.9634 1.25614C12.252 1.03102 12.5217 0.787128 12.8228 0.599522C14.2341 -0.257213 15.6706 -0.138395 17.0694 0.593269C19.9172 2.07536 20.7828 6.07137 18.1859 8.51025C17.5524 9.11059 16.8498 9.63589 16.1536 10.1674C15.4573 10.699 14.7297 11.1868 14.0334 11.7121C13.3434 12.2436 12.666 12.8064 11.9948 13.3442ZM14.0773 7.09695C14.0773 6.60917 14.0773 6.15267 14.0773 5.68365C13.6069 5.68365 13.1615 5.68365 12.6848 5.68365C12.6848 5.21463 12.6848 4.75813 12.6848 4.30162C12.2018 4.30162 11.7439 4.30162 11.2734 4.30162C11.2734 4.77063 11.2734 5.21463 11.2734 5.6899C10.803 5.6899 10.3451 5.6899 9.88718 5.6899C9.88718 6.17143 9.88718 6.62793 9.88718 7.09695C10.3576 7.09695 10.803 7.09695 11.2797 7.09695C11.2797 7.57222 11.2797 8.02247 11.2797 8.47898C11.7627 8.47898 12.2206 8.47898 12.6911 8.47898C12.6911 8.00997 12.6911 7.56597 12.6911 7.09695C13.1615 7.09695 13.6069 7.09695 14.0773 7.09695Z" fill="#454545"/>
</svg>
