<svg width="24" height="19" viewBox="0 0 24 19" fill="none" xmlns="http://www.w3.org/2000/svg">
<path d="M23.5358 18.4447C23.3577 18.8595 23.0384 19.0059 22.5901 18.9998C21.227 18.9815 19.8639 18.9937 18.5007 18.9937C17.9419 18.9937 17.6595 18.707 17.6595 18.1458C17.6595 16.7611 17.6595 15.3764 17.6595 13.9918C17.6595 13.4306 17.9419 13.15 18.5069 13.15C18.949 13.15 19.3911 13.15 19.8516 13.15C19.8516 12.174 19.8516 11.2163 19.8516 10.2403C17.4139 10.2403 14.9823 10.2403 12.5323 10.2403C12.5323 11.198 12.5323 12.1618 12.5323 13.15C12.9622 13.15 13.3981 13.15 13.8279 13.15C14.4543 13.15 14.7183 13.4184 14.7183 14.0406C14.7183 15.413 14.7183 16.7794 14.7183 18.1519C14.7183 18.7131 14.4358 18.9937 13.8709 18.9937C12.4771 18.9937 11.0832 18.9937 9.68939 18.9937C9.12448 18.9937 8.83589 18.7131 8.83589 18.158C8.83589 16.7672 8.83589 15.3703 8.83589 13.9796C8.83589 13.4367 9.12448 13.15 9.67097 13.15C10.1131 13.15 10.5613 13.15 11.0218 13.15C11.0218 12.1801 11.0218 11.2224 11.0218 10.2464C8.59027 10.2464 6.15258 10.2464 3.7026 10.2464C3.7026 11.2041 3.7026 12.1618 3.7026 13.1378C3.764 13.1439 3.8254 13.15 3.89295 13.15C4.30435 13.15 4.72189 13.15 5.13329 13.15C5.57539 13.1561 5.89468 13.455 5.89468 13.8942C5.90082 15.3459 5.90082 16.8038 5.89468 18.2556C5.89468 18.6826 5.58153 18.9937 5.15171 18.9937C3.69032 18.9998 2.22279 18.9998 0.761397 18.9937C0.325436 18.9937 0.0122806 18.6765 0.0122806 18.2373C0 16.7916 0 15.3459 0 13.9003C0 13.4611 0.313155 13.1561 0.755256 13.15C1.22806 13.1439 1.70086 13.15 2.20437 13.15C2.20437 13.0524 2.20437 12.9731 2.20437 12.8938C2.20437 11.7958 2.20437 10.7039 2.20437 9.6059C2.20437 9.0447 2.48682 8.7702 3.05787 8.7702C5.61837 8.7702 8.17273 8.7702 10.7332 8.7702C10.8253 8.7702 10.9113 8.7702 11.0157 8.7702C11.0157 7.79421 11.0157 6.84262 11.0157 5.86053C10.9604 5.85443 10.8929 5.84833 10.8315 5.84833C10.4201 5.84833 10.0025 5.84833 9.59114 5.84833C9.1429 5.84223 8.82975 5.54333 8.82975 5.10413C8.82361 3.65234 8.82361 2.19446 8.82975 0.742669C8.82975 0.315672 9.1429 0.00457496 9.56658 0.00457496C11.028 -0.00152499 12.4955 -0.00152499 13.9569 0.00457496C14.399 0.00457496 14.706 0.315672 14.706 0.754869C14.7121 2.20056 14.7121 3.64624 14.706 5.09193C14.706 5.53113 14.3929 5.83613 13.9508 5.84223C13.4779 5.84833 13.0051 5.84223 12.5139 5.84223C12.5139 6.81822 12.5139 7.78201 12.5139 8.7641C12.6122 8.7641 12.6981 8.7641 12.7902 8.7641C15.3385 8.7641 17.8928 8.7641 20.441 8.7641C21.0489 8.7641 21.3252 9.0386 21.3252 9.6425C21.3252 10.8015 21.3252 11.9544 21.3252 13.15C21.491 13.15 21.6445 13.15 21.8042 13.15C22.0621 13.15 22.3261 13.1683 22.584 13.1439C23.0384 13.1073 23.3515 13.2842 23.5358 13.6929C23.5358 15.2788 23.5358 16.8648 23.5358 18.4447Z" fill="#454545"/>
</svg>
