<svg width="24" height="25" viewBox="0 0 24 25" fill="none" xmlns="http://www.w3.org/2000/svg">
<path d="M12.1826 24.4979C12.0135 24.4979 11.8382 24.4979 11.6691 24.4979C11.6253 24.4854 11.5814 24.4666 11.5376 24.4541C10.6107 24.2287 10.0033 23.6402 9.77155 22.7324C9.5461 21.8684 9.78408 21.1108 10.5105 20.5411C10.5544 20.5035 10.6045 20.4471 10.6045 20.3971C10.6107 19.9901 10.6107 19.5894 10.6107 19.1699C9.70893 19.0009 8.87601 18.644 8.16835 18.1369C7.88027 18.3998 7.61098 18.6315 7.36048 18.8882C7.29786 18.9508 7.27281 19.076 7.26654 19.1699C7.24776 19.3891 7.27907 19.6144 7.23523 19.8211C6.95342 21.1484 5.47546 21.8934 4.1666 21.3738C3.16459 20.9793 2.65733 19.9087 2.93288 18.788C3.19591 17.7111 4.12902 17.0224 5.18739 17.1226C5.27506 17.1289 5.40031 17.1351 5.44415 17.085C5.7197 16.8033 5.98273 16.4965 6.26454 16.1772C5.78233 15.476 5.45041 14.6308 5.29385 13.723C4.89931 13.723 4.5173 13.7167 4.13528 13.7292C4.07266 13.7292 3.99125 13.7856 3.94741 13.8419C3.35873 14.6746 2.03734 14.925 1.08544 14.2802C0.346458 13.7793 -0.104443 13.1031 0.0208072 12.189C0.15232 11.1936 0.778572 10.5487 1.72421 10.2857C2.5947 10.0416 3.35873 10.2795 3.94115 11.0057C3.97872 11.0496 4.03508 11.1059 4.08518 11.1059C4.49851 11.1122 4.90557 11.1122 5.28132 11.1122C5.42536 10.6676 5.54435 10.2294 5.7197 9.81616C5.90131 9.39668 6.13929 9.0085 6.33343 8.65163C6.08919 8.38868 5.86374 8.11946 5.61324 7.87528C5.54435 7.80641 5.41284 7.78137 5.31264 7.76885C5.10597 7.75007 4.88679 7.78137 4.68639 7.73754C3.47146 7.48711 2.71995 6.20363 3.03308 4.93893C3.30863 3.84327 4.34821 3.18588 5.48799 3.37997C6.69039 3.58658 7.47321 4.53823 7.36674 5.67145C7.36048 5.75284 7.34169 5.8718 7.38553 5.91563C7.67987 6.19737 7.993 6.46658 8.31865 6.76085C9.02005 6.27876 9.86549 5.95319 10.7673 5.79041C10.7673 5.38971 10.7736 5.01406 10.761 4.64467C10.761 4.5758 10.6984 4.48814 10.6358 4.44432C9.90933 3.84327 9.6463 2.88536 9.99074 2.01509C10.3602 1.07596 11.2808 0.443611 12.2014 0.50622C13.0719 0.562568 13.9048 1.23874 14.1992 2.12779C14.4747 2.96675 14.2054 3.85579 13.504 4.44432C13.4539 4.48814 13.3913 4.55075 13.3913 4.6071C13.3788 5.0078 13.385 5.41476 13.385 5.79041C13.8234 5.93441 14.2618 6.04711 14.6751 6.22867C15.0947 6.41024 15.4892 6.64815 15.8525 6.84224C16.1092 6.60432 16.3722 6.37893 16.6227 6.1285C16.6916 6.05963 16.723 5.93441 16.7355 5.82797C16.7605 5.60884 16.723 5.38345 16.7668 5.17684C17.0737 3.76188 18.7332 3.02936 20.0483 3.72432C20.9439 4.19388 21.3572 5.28954 21.0441 6.34763C20.7498 7.33059 19.8166 7.96294 18.8209 7.87528C18.727 7.86902 18.5954 7.88781 18.5266 7.94415C18.2698 8.16329 18.0318 8.4012 17.8001 8.63911C17.7563 8.68294 17.75 8.80816 17.7751 8.8645C17.869 9.05859 18.013 9.2339 18.0944 9.43425C18.3324 10.029 18.5516 10.6363 18.7833 11.2687C19.1027 11.2687 19.4847 11.2749 19.8667 11.2624C19.9294 11.2624 20.0108 11.2061 20.0546 11.1497C20.637 10.317 21.9897 10.0478 22.9917 10.7616C23.5303 11.1497 23.856 11.6694 24 12.308C24 12.477 24 12.6523 24 12.8214C23.9812 12.8777 23.9687 12.9403 23.9499 12.9967C23.6994 13.9045 23.1107 14.5056 22.2152 14.7247C21.3635 14.9376 20.6057 14.6997 20.0421 13.9796C20.0045 13.9358 19.9481 13.8857 19.898 13.8857C19.4972 13.8795 19.0902 13.8795 18.6769 13.8795C18.5078 14.781 18.1508 15.6137 17.6373 16.3275C17.9003 16.6092 18.1383 16.8784 18.395 17.1289C18.4577 17.1915 18.5829 17.2165 18.6769 17.2228C18.896 17.2416 19.1215 17.2103 19.3282 17.2541C20.7372 17.5546 21.4762 19.22 20.7873 20.5348C20.3176 21.4301 19.2217 21.8433 18.1633 21.5303C17.1801 21.236 16.5476 20.3094 16.6353 19.3077C16.6415 19.22 16.6478 19.0948 16.5977 19.051C16.3159 18.7755 16.009 18.5188 15.6896 18.2308C14.9882 18.7129 14.1491 19.0384 13.2347 19.2012C13.2347 19.5957 13.2285 19.9776 13.241 20.3595C13.241 20.4221 13.2974 20.5035 13.3537 20.5473C14.1866 21.1296 14.4497 22.4757 13.7545 23.4649C13.36 24.0221 12.8339 24.3477 12.1826 24.4979ZM9.30186 11.3876C10.0471 11.3814 10.6358 10.7866 10.6358 10.0478C10.6358 9.2965 10.0283 8.69546 9.27681 8.70172C8.53784 8.70798 7.94916 9.31529 7.95542 10.0603C7.96168 10.7991 8.56289 11.3876 9.30186 11.3876ZM13.3161 10.9995C14.0551 10.9995 14.6563 10.3984 14.6626 9.6659C14.6688 8.92085 14.0551 8.31355 13.3036 8.31981C12.5646 8.32607 11.9634 8.93337 11.9697 9.6659C11.9697 10.4047 12.5772 11.0057 13.3161 10.9995ZM16.5977 13.9108C16.5977 13.172 15.9965 12.5709 15.2575 12.5709C14.5185 12.5709 13.9173 13.172 13.9173 13.9108C13.9173 14.6621 14.5248 15.2694 15.27 15.2631C16.0028 15.2506 16.5977 14.6496 16.5977 13.9108ZM10.5293 15.9831C11.2746 15.9894 11.8695 15.4009 11.882 14.6558C11.8945 13.9233 11.2933 13.3097 10.5544 13.2972C9.80913 13.291 9.18914 13.8983 9.18914 14.637C9.18914 15.3758 9.79034 15.9769 10.5293 15.9831Z" fill="#454545"/>
<path d="M9.29582 10.5302C9.02653 10.5302 8.80734 10.311 8.81361 10.0418C8.81361 9.7726 9.04532 9.55347 9.30835 9.55347C9.57137 9.55973 9.79682 9.78512 9.79682 10.0481C9.7843 10.3173 9.55885 10.5364 9.29582 10.5302Z" fill="#454545"/>
<path d="M12.8271 9.66575C12.8271 9.39027 13.0401 9.1774 13.3094 9.17114C13.5787 9.17114 13.7978 9.39027 13.7978 9.65949C13.7978 9.92871 13.5787 10.1478 13.3094 10.1541C13.0463 10.1541 12.8271 9.93497 12.8271 9.66575Z" fill="#454545"/>
<path d="M15.2701 13.4288C15.5394 13.4351 15.7586 13.6542 15.746 13.9235C15.7398 14.1864 15.5081 14.4118 15.245 14.4055C14.982 14.3993 14.7566 14.1676 14.7628 13.9047C14.7753 13.6292 14.9945 13.4226 15.2701 13.4288Z" fill="#454545"/>
<path d="M10.543 15.1256C10.2674 15.1319 10.0483 14.9128 10.042 14.6435C10.042 14.3743 10.2674 14.1489 10.5367 14.1489C10.7935 14.1489 11.0127 14.3681 11.0189 14.6248C11.0315 14.9065 10.8185 15.1256 10.543 15.1256Z" fill="#454545"/>
</svg>
