<svg width="18" height="18" viewBox="0 0 18 18" fill="none" xmlns="http://www.w3.org/2000/svg">
<path d="M8.72821 0.000244141C8.90542 0.000244141 9.08743 0.000244141 9.26464 0.000244141C9.29817 0.0146128 9.33169 0.0289815 9.37001 0.0385606C10.2178 0.249301 10.759 0.776151 10.917 1.63348C10.9601 1.86817 11.0703 1.9448 11.2571 2.03101C13.4411 3.02724 14.6912 4.72274 14.8397 7.11752C14.9259 8.51128 15.2324 9.81883 15.8599 11.0545C16.358 12.0316 16.9758 12.9368 17.6368 13.8133C18.3935 14.8239 17.9146 16.1267 16.6932 16.4428C15.5485 16.7397 14.3895 16.9169 13.216 17.0319C11.7504 17.1756 10.28 17.2474 8.80963 17.2139C7.42066 17.1852 6.03648 17.1037 4.6523 17.0079C3.48365 16.9265 2.32937 16.7254 1.19424 16.4045C0.758395 16.2799 0.413547 16.0261 0.207597 15.619C-0.132462 14.958 -0.0462496 14.3258 0.403968 13.7415C1.03619 12.932 1.60615 12.0795 2.07552 11.1647C2.67422 10.0056 3.08612 8.79386 3.12922 7.47194C3.14359 6.96425 3.19628 6.44698 3.33038 5.96324C3.85245 4.04742 5.05462 2.70634 6.8986 1.95917C7.01355 1.91128 7.04229 1.8538 7.05666 1.73885C7.12371 1.22637 7.34882 0.800099 7.74156 0.460041C8.02415 0.215774 8.37378 0.105614 8.72821 0.000244141Z" fill="#454545"/>
</svg>
