<svg width="20" height="14" viewBox="0 0 20 14" fill="none" xmlns="http://www.w3.org/2000/svg">
<path d="M20 13.9697C19.9276 13.9697 19.8553 13.9745 19.7829 13.9745C13.2706 13.9745 6.75832 13.9745 0.241196 13.9745C0.164014 13.9745 0.0868307 13.9745 0 13.9745C0 13.4873 0 13.0194 0 12.5225C0.395562 12.5225 0.7863 12.5225 1.16257 12.5225C1.16257 9.71984 1.16257 6.94126 1.16257 4.16268C1.16257 3.65134 1.43271 3.3619 1.93922 3.3619C3.1452 3.35708 4.35118 3.3619 5.55234 3.3619C5.59575 3.3619 5.63917 3.37155 5.70671 3.37638C5.70671 3.46803 5.70671 3.55004 5.70671 3.63204C5.70671 6.38168 5.70671 9.13132 5.70671 11.8761C5.70671 11.9485 5.70188 12.0209 5.70671 12.0932C5.76459 12.566 5.68741 12.5467 6.20357 12.5032C6.20357 8.6827 6.20357 4.85732 6.20357 1.03677C6.20357 0.583322 6.49783 0.289062 6.95128 0.289062C8.97733 0.289062 11.0034 0.289062 13.0294 0.289062C13.4973 0.289062 13.7868 0.578498 13.7868 1.04642C13.7868 4.76567 13.7868 8.48491 13.7868 12.2042C13.7868 12.3006 13.7723 12.3971 13.7627 12.5081C13.9074 12.5081 14.0473 12.5081 14.2354 12.5081C14.2547 12.3248 14.2836 12.1366 14.2836 11.9437C14.2885 9.17474 14.2836 6.4058 14.2836 3.63687C14.2836 3.55486 14.2836 3.46803 14.2836 3.36673C14.3657 3.3619 14.438 3.35708 14.5055 3.35708C15.6922 3.35708 16.8741 3.36673 18.0608 3.35226C18.5962 3.34743 18.9243 3.65134 18.9194 4.21574C18.905 6.85443 18.9146 9.49311 18.9146 12.127C18.9146 12.2476 18.9146 12.373 18.9146 12.5225C19.2764 12.5225 19.6382 12.5225 20 12.5225C20 13.0098 20 13.4873 20 13.9697ZM9.9807 5.58091C11.3507 5.59056 12.465 4.4907 12.4843 3.11106C12.5036 1.75554 11.3796 0.61709 10.0145 0.607442C8.63965 0.597794 7.51085 1.7073 7.50121 3.08694C7.49156 4.45211 8.60588 5.57126 9.9807 5.58091ZM11.5533 8.77435C10.5596 8.77435 9.58514 8.77435 8.60106 8.77435C8.60106 10.0045 8.60106 11.2249 8.60106 12.455C9.58997 12.455 10.5692 12.455 11.5533 12.455C11.5533 11.2249 11.5533 10.0093 11.5533 8.77435ZM2.28172 9.62336C2.61939 9.62336 2.9426 9.62336 3.26097 9.62336C3.26097 9.28569 3.26097 8.95766 3.26097 8.62963C2.92812 8.62963 2.60974 8.62963 2.28172 8.62963C2.28172 8.95766 2.28172 9.28086 2.28172 9.62336ZM4.85769 8.63446C4.51037 8.63446 4.18717 8.63446 3.86397 8.63446C3.86397 8.97213 3.86397 9.29533 3.86397 9.61854C4.20164 9.61854 4.52967 9.61854 4.85769 9.61854C4.85769 9.28569 4.85769 8.96731 4.85769 8.63446ZM16.9995 8.62963C16.9995 8.96731 16.9995 9.29533 16.9995 9.61854C17.3372 9.61854 17.6652 9.61854 17.9884 9.61854C17.9884 9.28086 17.9884 8.95766 17.9884 8.62963C17.6507 8.62963 17.3275 8.62963 16.9995 8.62963ZM3.2658 6.14049C3.2658 5.78834 3.2658 5.46996 3.2658 5.14676C2.93295 5.14676 2.60974 5.14676 2.27207 5.14676C2.27207 5.45066 2.26725 5.74492 2.27689 6.03436C2.27689 6.07295 2.3396 6.13566 2.3782 6.13566C2.66763 6.14049 2.95707 6.14049 3.2658 6.14049ZM4.85769 5.13711C4.51519 5.13711 4.19682 5.13711 3.86397 5.13711C3.86397 5.46996 3.86397 5.79316 3.86397 6.12119C4.19682 6.12119 4.52484 6.12119 4.85769 6.12119C4.85769 5.79316 4.85769 5.47961 4.85769 5.13711ZM17.9884 5.14193C17.6507 5.14193 17.3227 5.14193 16.9995 5.14193C16.9995 5.47961 16.9995 5.79799 16.9995 6.12601C17.3372 6.12601 17.6556 6.12601 17.9884 6.12601C17.9884 5.79316 17.9884 5.46996 17.9884 5.14193ZM2.28172 7.84816C2.62422 7.84816 2.9426 7.84816 3.26097 7.84816C3.26097 7.51048 3.26097 7.18245 3.26097 6.85925C2.92812 6.85925 2.60974 6.85925 2.28172 6.85925C2.28172 7.18728 2.28172 7.51048 2.28172 7.84816ZM4.85287 7.84333C4.85287 7.51048 4.85287 7.18728 4.85287 6.86407C4.51519 6.86407 4.18717 6.86407 3.86879 6.86407C3.86879 7.20175 3.86879 7.52013 3.86879 7.84333C4.20164 7.84333 4.52484 7.84333 4.85287 7.84333ZM16.9947 7.84333C17.3372 7.84333 17.6604 7.84333 17.9884 7.84333C17.9884 7.51048 17.9884 7.18728 17.9884 6.85925C17.6507 6.85925 17.3227 6.85925 16.9947 6.85925C16.9947 7.1921 16.9947 7.51048 16.9947 7.84333ZM16.4014 6.13084C16.4014 5.78834 16.4014 5.46514 16.4014 5.14193C16.0637 5.14193 15.7453 5.14193 15.4221 5.14193C15.4221 5.47961 15.4221 5.79799 15.4221 6.13084C15.7549 6.13084 16.0733 6.13084 16.4014 6.13084ZM16.4062 7.84816C16.4062 7.51048 16.4062 7.18728 16.4062 6.85925C16.0733 6.85925 15.7501 6.85925 15.4221 6.85925C15.4221 7.1921 15.4221 7.5153 15.4221 7.84816C15.7501 7.84816 16.0685 7.84816 16.4062 7.84816ZM16.4062 8.63446C16.0589 8.63446 15.7405 8.63446 15.4173 8.63446C15.4173 8.97213 15.4173 9.29533 15.4173 9.62336C15.7501 9.62336 16.0733 9.62336 16.4062 9.62336C16.4062 9.29051 16.4062 8.96731 16.4062 8.63446Z" fill="#454545"/>
<path d="M9.36656 4.65019C9.36656 4.33664 9.36656 4.03755 9.36656 3.71435C9.05301 3.71435 8.7491 3.71435 8.43555 3.71435C8.43555 3.29467 8.43555 2.90393 8.43555 2.48907C8.73463 2.48907 9.03854 2.48907 9.36656 2.48907C9.36656 2.16105 9.36656 1.85231 9.36656 1.53394C9.79107 1.53394 10.1915 1.53394 10.6111 1.53394C10.6111 1.84749 10.6111 2.1514 10.6111 2.4746C10.9295 2.4746 11.2334 2.4746 11.547 2.4746C11.547 2.88946 11.547 3.28502 11.547 3.69988C11.2479 3.69988 10.944 3.69988 10.6208 3.69988C10.6208 4.02308 10.6208 4.32699 10.6208 4.65019C10.1963 4.65019 9.78625 4.65019 9.36656 4.65019Z" fill="#454545"/>
</svg>
