<svg width="23" height="22" viewBox="0 0 23 22" fill="none" xmlns="http://www.w3.org/2000/svg">
<path d="M17.7389 22C13.5756 22 9.41836 22 5.25509 22C5.20709 21.9885 5.1591 21.9714 5.10511 21.9599C2.71753 21.6276 1.10381 20.3672 0.28795 18.2016C0.137976 17.8063 0.0899843 17.3823 0 16.9698C0 12.988 0 9.00625 0 5.02448C0.0119979 4.96146 0.0299948 4.89844 0.0419927 4.84115C0.395931 2.61823 1.67371 1.1 3.86933 0.309375C4.30725 0.154688 4.79317 0.103125 5.25509 0C9.41836 0 13.5756 0 17.7389 0C17.7869 0.0114583 17.8409 0.0286458 17.8889 0.034375C20.7804 0.355208 22.976 2.6526 22.988 5.43698C23.006 9.14948 23.006 12.8677 22.988 16.5802C22.976 19.0036 21.2543 21.1292 18.8127 21.7823C18.4588 21.8797 18.0929 21.9312 17.7389 22ZM11.494 20.1609C13.3657 20.1609 15.2374 20.1667 17.109 20.1552C17.421 20.1552 17.7389 20.138 18.0449 20.075C19.8565 19.6969 21.0743 18.2417 21.0743 16.437C21.0803 12.8047 21.0743 9.17813 21.0743 5.54583C21.0743 5.36823 21.0743 5.1849 21.0443 5.01302C20.7324 3.11094 19.1847 1.83906 17.175 1.83333C13.3957 1.8276 9.61633 1.83333 5.83699 1.83333C5.63302 1.83333 5.42906 1.83333 5.23109 1.86771C3.25143 2.17135 1.92567 3.65521 1.91967 5.56875C1.91367 9.18958 1.91967 12.8161 1.91967 16.437C1.91967 16.7062 1.93766 16.9813 1.99765 17.2448C2.38758 18.9807 3.90532 20.1495 5.78299 20.1609C7.69066 20.1667 9.59233 20.1609 11.494 20.1609Z" fill="#5F5BFE"/>
<path d="M10.5403 10.0893C10.5403 9.96897 10.5403 9.88303 10.5403 9.79709C10.5403 8.67417 10.5343 7.55126 10.5463 6.42834C10.5523 5.77522 11.1882 5.34553 11.8181 5.55751C12.214 5.68928 12.448 6.0273 12.448 6.47417C12.448 7.58563 12.448 8.69136 12.448 9.80282C12.448 9.88876 12.448 9.96897 12.448 10.0893C12.556 10.0893 12.64 10.0893 12.73 10.0893C13.9118 10.0893 15.0935 10.0835 16.2753 10.095C16.9532 10.1007 17.3971 10.6966 17.1932 11.2924C17.0612 11.682 16.7073 11.9169 16.2274 11.9169C15.0696 11.9169 13.9058 11.9169 12.748 11.9169C12.658 11.9169 12.574 11.9169 12.448 11.9169C12.448 12.02 12.448 12.1002 12.448 12.1862C12.448 13.3148 12.454 14.4492 12.442 15.5778C12.436 16.2252 11.8181 16.6492 11.1882 16.4544C10.7863 16.3283 10.5343 15.9903 10.5343 15.5492C10.5283 14.432 10.5343 13.3148 10.5343 12.1976C10.5343 12.1117 10.5343 12.0315 10.5343 11.9112C10.4264 11.9112 10.3424 11.9112 10.2524 11.9112C9.0706 11.9112 7.8888 11.9169 6.70701 11.9054C6.02912 11.8997 5.5852 11.3096 5.78917 10.708C5.92114 10.3242 6.26908 10.0835 6.731 10.0835C7.9008 10.0778 9.0646 10.0835 10.2344 10.0835C10.3304 10.0893 10.4204 10.0893 10.5403 10.0893Z" fill="#5F5BFE"/>
</svg>
