<svg width="28" height="28" viewBox="0 0 28 28" fill="none" xmlns="http://www.w3.org/2000/svg">
<path d="M21.7416 19.9943C21.8472 20.0673 21.9608 20.1241 22.0501 20.2133C23.5518 21.7059 25.0453 23.2067 26.547 24.6993C26.9203 25.0724 27.0908 25.5024 26.9528 26.0215C26.7012 26.9463 25.6135 27.2951 24.8667 26.6867C24.7774 26.6137 24.7044 26.5326 24.6232 26.4596C23.1378 24.9751 21.6605 23.4987 20.175 22.0142C20.102 21.9412 20.0289 21.8763 19.9478 21.7952C16.912 24.0909 13.5353 24.8777 9.83388 23.9773C6.96044 23.2716 4.69577 21.6411 3.02365 19.2156C-0.263767 14.4457 0.539824 7.85874 4.86623 4.00553C9.34686 0.0144178 15.9055 -0.00991809 20.4348 3.98119C24.883 7.90741 25.7921 14.8513 21.7416 19.9943ZM21.7416 12.6854C21.7741 7.6965 17.7318 3.63238 12.7154 3.59993C7.69097 3.56748 3.6162 7.59104 3.59185 12.6124C3.5675 17.6418 7.60169 21.7141 12.6505 21.7384C17.6425 21.7708 21.7092 17.7148 21.7416 12.6854Z" fill="#5F5BFE" fill-opacity="0.55"/>
<path d="M26.6883 24.5578L26.6879 24.5574C25.9373 23.8114 25.1887 23.0632 24.4399 22.3148L24.4388 22.3137C23.6905 21.5659 22.942 20.8178 22.1914 20.0718C22.1397 20.0201 22.0841 19.979 22.033 19.9446C25.9954 14.7347 25.0434 7.78222 20.5671 3.83125L20.567 3.83114C15.9619 -0.226723 9.28948 -0.20231 4.7332 3.85619C0.331722 7.77627 -0.485878 14.4759 2.85897 19.3291L2.85899 19.3291C4.55732 21.7926 6.86255 23.4535 9.78618 24.1715L9.78661 24.1716C13.4941 25.0736 16.8858 24.3078 19.9314 22.0571C19.9676 22.0914 20.0008 22.1228 20.0337 22.1557L24.4818 26.6011L24.4816 26.6012L24.4895 26.6083C24.5186 26.6345 24.546 26.6613 24.5771 26.6917C24.5853 26.6997 24.5936 26.7079 24.6024 26.7164C24.6428 26.7558 24.6885 26.7993 24.7401 26.8416L24.7404 26.8418C25.5988 27.5411 26.856 27.1392 27.1458 26.0741L27.1461 26.0729C27.3065 25.4693 27.0997 24.9689 26.6883 24.5578ZM12.6518 21.5384H12.6515C7.7128 21.5146 3.76803 17.532 3.79184 12.6133C3.81566 7.70279 7.80006 3.76819 12.7142 3.79992C17.6213 3.83167 21.5734 7.80693 21.5416 12.6841C21.5099 17.6048 17.5316 21.5701 12.6518 21.5384Z" stroke="#5F5BFE" stroke-opacity="0.55" stroke-width="0.4"/>
</svg>
