<svg width="12" height="15" viewBox="0 0 12 15" fill="none" xmlns="http://www.w3.org/2000/svg">
<path d="M9.94157 15.0001C7.10325 15.0001 4.26492 15.0001 1.42659 15.0001C1.41545 14.9927 1.4043 14.9817 1.38944 14.9781C0.501537 14.7946 0 14.182 0 13.2869C0 11.2693 0 9.25538 0 7.23778C0 5.99786 0 4.76162 0 3.52171C0 2.81004 0.42352 2.21576 1.08852 1.98099C1.5009 1.83425 1.92441 1.89662 2.3628 1.88194C2.32193 2.09838 2.28478 2.2928 2.24391 2.48723C2.06559 3.3603 2.66372 4.10131 3.56648 4.10498C4.9745 4.11232 6.38623 4.10865 7.79425 4.10865C8.10632 4.10865 8.39238 4.03161 8.63758 3.83719C9.09453 3.47402 9.24685 3.00447 9.12797 2.4432C9.09082 2.25979 9.05367 2.07637 9.02023 1.90028C9.34716 1.90028 9.6518 1.88561 9.95643 1.90762C10.1162 1.91863 10.2796 1.96632 10.4245 2.03601C11.0672 2.34783 11.3793 2.86874 11.3793 3.57673C11.3793 4.88634 11.3793 6.19229 11.3793 7.5019C11.3793 9.43513 11.3793 11.3684 11.3793 13.3016C11.3793 13.9582 11.1155 14.4682 10.536 14.791C10.3539 14.89 10.1385 14.9304 9.94157 15.0001ZM6.88034 8.37864C7.43389 8.37864 7.98744 8.38231 8.54098 8.37864C8.80847 8.37497 8.99423 8.18422 8.99423 7.93477C8.99051 7.69265 8.80476 7.5019 8.54842 7.5019C7.44132 7.49823 6.33422 7.49823 5.22713 7.5019C5.06366 7.5019 4.92992 7.56793 4.84076 7.711C4.7516 7.85039 4.74788 8.0008 4.82218 8.14386C4.90763 8.30527 5.05252 8.38231 5.23456 8.38231C5.78067 8.37864 6.33051 8.37864 6.88034 8.37864ZM4.50269 5.15047C3.94914 5.15047 3.39559 5.1468 2.84204 5.15047C2.52254 5.15414 2.31821 5.4256 2.40738 5.71907C2.46682 5.91716 2.64143 6.02721 2.90891 6.02721C3.69651 6.02721 4.48039 6.02721 5.26799 6.02721C5.55405 6.02721 5.84012 6.02721 6.12989 6.02721C6.32679 6.02721 6.48654 5.95384 6.5757 5.76676C6.71316 5.46962 6.50512 5.15414 6.1559 5.15047C5.59864 5.14313 5.05252 5.15047 4.50269 5.15047ZM6.88034 10.7301C7.43017 10.7301 7.97629 10.7337 8.52612 10.7301C8.82333 10.7264 9.02023 10.5173 8.99051 10.2458C8.96822 10.0111 8.77875 9.85333 8.50012 9.85333C7.42274 9.84966 6.34537 9.85333 5.26799 9.85333C5.2197 9.85333 5.16769 9.857 5.11939 9.868C4.91506 9.90835 4.77389 10.0771 4.77017 10.2825C4.76646 10.5393 4.95221 10.7264 5.23084 10.7301C5.78067 10.7337 6.33051 10.7301 6.88034 10.7301ZM6.86919 12.2121C6.86919 12.2084 6.86919 12.2084 6.86919 12.2121C6.31565 12.2121 5.7621 12.2084 5.20855 12.2121C4.98565 12.2158 4.81104 12.3662 4.7776 12.5643C4.74045 12.7734 4.84819 12.9825 5.04509 13.0485C5.13053 13.0778 5.22713 13.0852 5.32 13.0852C6.35651 13.0888 7.39674 13.0852 8.43325 13.0852C8.48154 13.0852 8.53355 13.0888 8.58185 13.0778C8.64501 13.0668 8.70816 13.0522 8.76389 13.0228C8.93478 12.9348 9.02395 12.7367 8.98308 12.5496C8.9385 12.3515 8.77503 12.2084 8.55956 12.2084C7.99858 12.2084 7.43389 12.2121 6.86919 12.2121ZM3.26928 7.93477C3.26556 7.69265 3.06866 7.49823 2.82347 7.5019C2.58199 7.50557 2.38137 7.70733 2.38509 7.94577C2.3888 8.18422 2.59313 8.38231 2.83461 8.37864C3.07981 8.37497 3.27299 8.17688 3.26928 7.93477ZM3.26928 10.2972C3.27299 10.0551 3.07609 9.857 2.83461 9.85333C2.59313 9.84966 2.3888 10.0478 2.38509 10.2862C2.38137 10.5246 2.57827 10.7227 2.82347 10.7264C3.07238 10.7301 3.26928 10.5393 3.26928 10.2972ZM2.82718 12.2121C2.58199 12.2121 2.38509 12.4102 2.38509 12.6523C2.3888 12.8907 2.59313 13.0888 2.83461 13.0888C3.07981 13.0852 3.27299 12.8907 3.27299 12.645C3.26928 12.3992 3.07238 12.2084 2.82718 12.2121Z" fill="#4A64C1"/>
<path d="M5.68005 3.23184C4.99647 3.23184 4.31661 3.23184 3.63303 3.23184C3.22437 3.22817 3.04605 3.0044 3.12778 2.60455C3.27267 1.88921 3.41756 1.17021 3.56245 0.454879C3.62932 0.128393 3.78164 0 4.11228 0C5.16365 0 6.21873 0 7.2701 0C7.5896 0 7.74563 0.121057 7.80879 0.4292C7.96111 1.17388 8.11343 1.91856 8.26203 2.66691C8.3289 2.9934 8.13943 3.22817 7.80136 3.22817C7.09549 3.23184 6.38963 3.23184 5.68005 3.23184Z" fill="#4A64C1"/>
</svg>
