<svg width="13" height="12" viewBox="0 0 13 12" fill="none" xmlns="http://www.w3.org/2000/svg">
<path d="M8.6511 11.6695C6.09593 11.6695 3.54386 11.6695 0.988697 11.6695C0.973249 11.6638 0.96089 11.6553 0.942352 11.6524C0.655012 11.6097 0.423286 11.4815 0.237905 11.2736C0.105049 11.1227 0.0463452 10.9432 0 10.7581C0 7.47682 0 4.19556 0 0.914308C0.00617936 0.902915 0.0123587 0.89437 0.0154484 0.882977C0.0926903 0.367432 0.57468 0 1.18026 0C3.13293 0.00569662 5.08561 0.00284831 7.03829 0C7.39051 0 7.68712 0.105388 7.94047 0.333252C8.36376 0.70923 8.79013 1.08521 9.22269 1.45549C9.50694 1.70044 9.64289 1.99667 9.6398 2.35555C9.63362 3.38949 9.63671 4.42058 9.63671 5.45452C9.63671 5.49439 9.63671 5.53142 9.63671 5.59693C9.68614 5.54281 9.71395 5.51433 9.74175 5.48585C10.0909 5.11272 10.4277 4.7282 10.7922 4.36646C11.0889 4.07309 11.5708 4.01327 11.9941 4.17847C12.3772 4.32943 12.6491 4.70826 12.6522 5.09563C12.6553 5.37476 12.541 5.61117 12.3494 5.82195C11.472 6.77898 10.5945 7.73601 9.72013 8.69589C9.67378 8.74432 9.64289 8.82122 9.64289 8.88673C9.63671 9.45924 9.6398 10.0346 9.6398 10.6071C9.6398 10.9632 9.50385 11.2679 9.17943 11.4673C9.02186 11.5584 8.82721 11.6012 8.6511 11.6695ZM8.89827 9.57602C8.80867 9.62444 8.73761 9.67287 8.66037 9.7042C8.19383 9.89503 7.72728 10.083 7.25765 10.2653C7.19277 10.2909 7.10935 10.2995 7.04138 10.2881C6.81274 10.2511 6.70151 10.0659 6.76022 9.83522C6.86526 9.41937 6.97649 9.00351 7.08463 8.58481C7.13407 8.39682 7.22676 8.23162 7.3627 8.08351C7.85087 7.55372 8.33595 7.02394 8.82103 6.4913C8.86738 6.44288 8.89827 6.36598 8.89827 6.30047C8.90445 5.1526 8.90136 4.00757 8.90136 2.8597C8.90136 2.81983 8.90136 2.77995 8.90136 2.73438C8.29578 2.73438 7.70566 2.73438 7.11862 2.73438C6.81892 2.73438 6.67679 2.6062 6.67679 2.33277C6.67679 1.82862 6.67679 1.32162 6.67679 0.817465C6.67679 0.777589 6.67679 0.734864 6.67679 0.683595C6.61809 0.683595 6.56866 0.683595 6.51922 0.683595C4.75192 0.683595 2.98463 0.683595 1.21733 0.683595C0.8682 0.686443 0.741523 0.803224 0.741523 1.12508C0.741523 4.26392 0.741523 7.40561 0.741523 10.5444C0.741523 10.8663 0.8682 10.9831 1.21733 10.9831C3.61801 10.9831 6.01869 10.9831 8.42246 10.9831C8.45954 10.9831 8.49661 10.9831 8.53369 10.9831C8.7407 10.9717 8.89518 10.8378 8.89827 10.6498C8.90136 10.2966 8.89827 9.94346 8.89827 9.57602ZM10.5451 5.67099C9.85916 6.42009 9.17943 7.16066 8.49661 7.90691C8.69126 8.05787 8.87664 8.20029 9.06511 8.34555C9.75102 7.5936 10.4308 6.85304 11.1105 6.10963C10.9127 5.95867 10.7305 5.81625 10.5451 5.67099ZM7.41832 2.04509C7.88177 2.04509 8.33595 2.04509 8.80867 2.04509C8.33904 1.63208 7.88795 1.23332 7.41832 0.820314C7.41832 1.24186 7.41832 1.64063 7.41832 2.04509ZM11.0209 5.1469C11.2124 5.29501 11.3947 5.43743 11.5863 5.58554C11.6604 5.50579 11.7284 5.43173 11.7964 5.35767C11.818 5.33489 11.8366 5.30925 11.8551 5.28362C11.9509 5.13551 11.9169 4.95321 11.7748 4.84498C11.6295 4.73674 11.4287 4.73959 11.2928 4.86207C11.2001 4.94752 11.1167 5.04721 11.0209 5.1469ZM7.65622 9.3567C7.96828 9.1972 8.36376 9.18011 8.58004 8.86395C8.38848 8.71583 8.20309 8.57342 8.01771 8.431C7.72111 8.6902 7.76745 9.04624 7.65622 9.3567Z" fill="#F78080"/>
<path d="M4.81618 4.81055C3.86456 4.81055 2.91294 4.81055 1.96132 4.81055C1.92425 4.81055 1.88717 4.81055 1.85009 4.81055C1.64 4.802 1.48242 4.65389 1.48242 4.4659C1.48551 4.28076 1.64309 4.1355 1.85627 4.12695C1.89026 4.12695 1.92116 4.12695 1.95514 4.12695C3.86765 4.12695 5.77707 4.12695 7.68959 4.12695C7.7143 4.12695 7.73902 4.12695 7.76374 4.12695C7.99237 4.13265 8.15613 4.27507 8.15613 4.4716C8.15304 4.66528 7.98928 4.81055 7.75756 4.81055C6.77813 4.81055 5.79561 4.81055 4.81618 4.81055Z" fill="#F78080"/>
<path d="M4.82034 6.86133C3.844 6.86133 2.86766 6.86133 1.89133 6.86133C1.6009 6.86133 1.41551 6.64201 1.50512 6.40845C1.55764 6.26888 1.67196 6.19482 1.82953 6.18058C1.8697 6.17773 1.91295 6.17773 1.95312 6.17773C3.86563 6.17773 5.77505 6.17773 7.68756 6.17773C7.98417 6.17773 8.15719 6.30306 8.15719 6.51953C8.15719 6.736 7.98417 6.86133 7.68756 6.86133C6.73285 6.86133 5.77505 6.86133 4.82034 6.86133Z" fill="#F78080"/>
<path d="M3.71692 2.054C4.3225 2.054 4.92808 2.05115 5.53366 2.054C5.81791 2.054 6.0002 2.28471 5.90751 2.51543C5.85189 2.6493 5.72213 2.73475 5.55219 2.7376C5.3699 2.74044 5.1907 2.7376 5.00841 2.7376C3.97028 2.7376 2.93215 2.7376 1.89402 2.7376C1.59741 2.7376 1.41203 2.51258 1.50781 2.27617C1.56651 2.1366 1.69937 2.054 1.88784 2.054C2.49959 2.054 3.10826 2.054 3.71692 2.054Z" fill="#F78080"/>
<path d="M3.708 8.91338C3.09933 8.91338 2.48758 8.91622 1.87891 8.91338C1.59466 8.91338 1.41237 8.68266 1.50815 8.4491C1.56376 8.31523 1.69662 8.23263 1.86655 8.22978C2.14771 8.22693 2.42578 8.22978 2.70694 8.22978C3.6462 8.22978 4.58547 8.22978 5.52473 8.22978C5.81825 8.22978 6.00363 8.45765 5.90785 8.69406C5.84914 8.83362 5.71629 8.91338 5.52473 8.91338C4.91915 8.91338 4.31357 8.91338 3.708 8.91338Z" fill="#F78080"/>
</svg>
