<svg width="21" height="20" viewBox="0 0 21 20" fill="none" xmlns="http://www.w3.org/2000/svg">
<path d="M10.9839 3.57145C9.65784 3.57145 8.38607 4.09823 7.44839 5.03591C6.51071 5.97359 5.98392 7.24536 5.98392 8.57145V12.1429C5.98392 12.7112 5.75816 13.2562 5.35629 13.6581C4.95443 14.06 4.40939 14.2857 3.84106 14.2857H18.1268C17.5585 14.2857 17.0134 14.06 16.6115 13.6581C16.2097 13.2562 15.9839 12.7112 15.9839 12.1429V8.57145C15.9839 7.24536 15.4571 5.97359 14.5195 5.03591C13.5818 4.09823 12.31 3.57145 10.9839 3.57145ZM10.9839 3.57145V1.42859M12.2196 17.1429C12.0941 17.3594 11.9138 17.5391 11.6969 17.664C11.4801 17.7889 11.2342 17.8546 10.9839 17.8546C10.7337 17.8546 10.4878 17.7889 10.2709 17.664C10.054 17.5391 9.87379 17.3594 9.74821 17.1429" stroke="#828E99" stroke-linecap="round" stroke-linejoin="round"/>
</svg>
