<svg width="26" height="22" viewBox="0 0 26 22" fill="none" xmlns="http://www.w3.org/2000/svg">
<path d="M25.0007 21.0371C22.8049 21.0371 20.6337 21.0371 18.4297 21.0371C18.4297 20.922 18.4297 20.8151 18.4297 20.7082C18.4297 14.2934 18.4297 7.87865 18.4297 1.47211C18.4297 0.518115 18.9478 0 19.8936 0C21.119 0 22.3361 0 23.5615 0C24.4661 0 25.0089 0.52634 25.0089 1.43099C25.0089 7.88687 25.0089 14.3428 25.0089 20.7904C25.0172 20.8644 25.0089 20.9384 25.0007 21.0371Z" fill="#A7A5FF"/>
<path d="M15.7816 21.0295C13.5858 21.0295 11.4229 21.0295 9.22704 21.0295C9.22704 20.8897 9.22704 20.7745 9.22704 20.6512C9.22704 16.0375 9.24349 11.4238 9.21882 6.8101C9.2106 5.74919 9.92609 5.21463 10.7732 5.24753C11.9739 5.28865 13.1746 5.25575 14.3835 5.25575C15.2553 5.25575 15.8063 5.78209 15.8063 6.64561C15.8063 11.3662 15.8063 16.0786 15.8063 20.7992C15.7898 20.8732 15.7816 20.939 15.7816 21.0295Z" fill="#A7A5FF"/>
<path d="M6.58747 21.0381C4.3752 21.0381 2.21227 21.0381 0 21.0381C0 20.9147 0 20.8078 0 20.7009C0 17.8143 0 14.9276 0 12.0328C0 11.0376 0.518115 10.5195 1.52967 10.5195C2.73039 10.5195 3.9311 10.5195 5.14004 10.5195C6.06113 10.5195 6.58747 11.0623 6.58747 11.9834C6.58747 14.8947 6.58747 17.7978 6.58747 20.7091C6.58747 20.8078 6.58747 20.9147 6.58747 21.0381Z" fill="#A7A5FF"/>
</svg>
