<svg width="22" height="22" viewBox="0 0 22 22" fill="none" xmlns="http://www.w3.org/2000/svg">
<circle cx="11" cy="11" r="11" fill="white"/>
<path d="M6 15.7047C6.05891 15.4871 6.11985 15.2676 6.17469 15.0501C6.31891 14.4727 6.4611 13.8954 6.60735 13.32C6.62157 13.2631 6.65407 13.2042 6.6947 13.1615C8.50254 11.3481 10.3144 9.53674 12.1243 7.7254C12.1385 7.71117 12.1528 7.69897 12.1609 7.69287C12.8739 8.40643 13.5828 9.11592 14.2998 9.83355C14.2876 9.84778 14.2633 9.87421 14.2389 9.8986C12.4473 11.6896 10.6557 13.4827 8.86004 15.2737C8.8052 15.3286 8.73004 15.3733 8.65488 15.3916C7.88097 15.5888 7.10502 15.7819 6.3311 15.975C6.15438 16.0198 6.09547 15.9954 6 15.8409C6 15.7961 6 15.7514 6 15.7047Z" fill="#59ADEB"/>
<path d="M15.9935 7.83326C15.9793 7.88611 15.9732 7.94303 15.9508 7.98979C15.8858 8.12397 15.8371 8.2744 15.7396 8.38011C15.4775 8.66066 15.1952 8.92087 14.9271 9.18109C14.2263 8.47973 13.5133 7.76617 12.8125 7.06481C13.0745 6.79646 13.3284 6.50575 13.6128 6.2496C13.9906 5.9101 14.6244 5.92026 15.0043 6.25976C15.2622 6.49152 15.5019 6.74564 15.7416 6.99772C15.8899 7.15222 15.9488 7.35348 15.9955 7.55881C15.9935 7.65029 15.9935 7.74177 15.9935 7.83326Z" fill="#59ADEB"/>
</svg>
