<svg width="23" height="22" viewBox="0 0 23 22" fill="none" xmlns="http://www.w3.org/2000/svg">
<g clip-path="url(#clip0_1466_662)">
<path d="M17.7389 22C13.5756 22 9.41836 22 5.25509 22C5.20709 21.9885 5.1591 21.9714 5.10511 21.9599C2.71753 21.6276 1.10381 20.3672 0.28795 18.2016C0.137976 17.8063 0.0899843 17.3823 0 16.9698C0 12.988 0 9.00625 0 5.02448C0.0119979 4.96146 0.0299948 4.89844 0.0419927 4.84115C0.395931 2.61823 1.67371 1.1 3.86933 0.309375C4.30725 0.154688 4.79317 0.103125 5.25509 0C9.41836 0 13.5756 0 17.7389 0C17.7869 0.0114583 17.8409 0.0286458 17.8889 0.034375C20.7804 0.355208 22.976 2.6526 22.988 5.43698C23.006 9.14948 23.006 12.8677 22.988 16.5802C22.976 19.0036 21.2543 21.1292 18.8127 21.7823C18.4588 21.8797 18.0929 21.9312 17.7389 22ZM11.494 20.1609C13.3657 20.1609 15.2374 20.1667 17.109 20.1552C17.421 20.1552 17.7389 20.138 18.0449 20.075C19.8565 19.6969 21.0743 18.2417 21.0743 16.437C21.0803 12.8047 21.0743 9.17813 21.0743 5.54583C21.0743 5.36823 21.0743 5.1849 21.0443 5.01302C20.7324 3.11094 19.1847 1.83906 17.175 1.83333C13.3957 1.8276 9.61633 1.83333 5.83699 1.83333C5.63302 1.83333 5.42906 1.83333 5.23109 1.86771C3.25143 2.17135 1.92567 3.65521 1.91967 5.56875C1.91367 9.18958 1.91967 12.8161 1.91967 16.437C1.91967 16.7062 1.93766 16.9813 1.99765 17.2448C2.38758 18.9807 3.90532 20.1495 5.78299 20.1609C7.69066 20.1667 9.59233 20.1609 11.494 20.1609Z" fill="#5F5BFE"/>
<path d="M7 15.7047C7.05891 15.4871 7.11985 15.2676 7.17469 15.0501C7.31891 14.4727 7.4611 13.8954 7.60735 13.32C7.62157 13.2631 7.65407 13.2042 7.6947 13.1615C9.50254 11.3481 11.3144 9.53674 13.1243 7.7254C13.1385 7.71117 13.1528 7.69897 13.1609 7.69287C13.8739 8.40643 14.5828 9.11592 15.2998 9.83355C15.2876 9.84778 15.2633 9.87421 15.2389 9.8986C13.4473 11.6896 11.6557 13.4827 9.86004 15.2737C9.8052 15.3286 9.73004 15.3733 9.65488 15.3916C8.88097 15.5888 8.10502 15.7819 7.3311 15.975C7.15438 16.0198 7.09547 15.9954 7 15.8409C7 15.7961 7 15.7514 7 15.7047Z" fill="#5F5BFE"/>
<path d="M16.9935 7.83326C16.9793 7.88611 16.9732 7.94303 16.9508 7.98979C16.8858 8.12397 16.8371 8.2744 16.7396 8.38011C16.4775 8.66066 16.1952 8.92088 15.9271 9.18109C15.2263 8.47973 14.5133 7.76617 13.8125 7.06481C14.0745 6.79646 14.3284 6.50575 14.6128 6.2496C14.9906 5.9101 15.6244 5.92026 16.0043 6.25976C16.2622 6.49152 16.5019 6.74564 16.7416 6.99772C16.8899 7.15222 16.9488 7.35348 16.9955 7.55881C16.9935 7.65029 16.9935 7.74177 16.9935 7.83326Z" fill="#5F5BFE"/>
</g>
<defs>
<clipPath id="clip0_1466_662">
<rect width="23" height="22" fill="white"/>
</clipPath>
</defs>
</svg>
