<svg width="29" height="22" viewBox="0 0 29 22" fill="none" xmlns="http://www.w3.org/2000/svg">
<path d="M29.0002 11.1266C28.9829 11.1612 28.957 11.1871 28.9483 11.2217C28.7236 11.9046 28.2481 12.2677 27.5306 12.285C26.9427 12.2937 26.3462 12.285 25.7584 12.285C19.9922 12.285 14.2347 12.285 8.46854 12.285C7.79424 12.285 7.27554 12.0429 6.99026 11.4205C6.59259 10.5387 7.1718 9.54457 8.13139 9.43218C8.287 9.41489 8.45125 9.41489 8.60686 9.41489C14.8053 9.41489 20.995 9.42354 27.1934 9.40625C28.0925 9.40625 28.7149 9.69153 29.0002 10.5733C29.0002 10.7462 29.0002 10.9364 29.0002 11.1266Z" fill="#A7A5FF"/>
<path d="M29.0001 2.12713C28.9656 2.21358 28.9223 2.29139 28.8877 2.37783C28.637 2.92246 28.2221 3.21639 27.6256 3.25962C27.5478 3.26826 27.4786 3.25962 27.4008 3.25962C21.09 3.25962 14.7879 3.25962 8.47711 3.25962C8.07944 3.25962 7.71635 3.1991 7.39649 2.93975C6.93831 2.56802 6.75677 1.95423 6.92967 1.39231C7.11985 0.813105 7.62126 0.424084 8.23505 0.389504C8.35608 0.380859 8.47711 0.380859 8.59813 0.380859C14.8138 0.380859 21.0209 0.380859 27.2366 0.380859C28.2653 0.380859 28.6111 0.614272 29.0001 1.55657C29.0001 1.74676 29.0001 1.93694 29.0001 2.12713Z" fill="#A7A5FF"/>
<path d="M28.9983 20.126C28.8081 20.7312 28.445 21.1634 27.7966 21.2845C27.6843 21.3018 27.5719 21.3104 27.4595 21.3104C21.1055 21.3104 14.7515 21.3104 8.39746 21.3104C7.32549 21.3104 6.62525 20.3854 6.94512 19.4172C7.1353 18.8466 7.64535 18.4576 8.2505 18.4403C8.37153 18.4403 8.49256 18.4403 8.61358 18.4403C14.7947 18.4403 20.9845 18.4489 27.1656 18.4316C28.0646 18.4316 28.6871 18.7083 28.9896 19.5728C28.9983 19.7457 28.9983 19.9359 28.9983 20.126Z" fill="#A7A5FF"/>
<path d="M0.203125 1.93652C0.203125 0.8732 1.06762 0.00870856 2.1223 6.36473e-05C3.17698 -0.00858127 4.05876 0.864555 4.05876 1.92788C4.0674 2.98256 3.19427 3.86434 2.13094 3.86434C1.08491 3.86434 0.203125 2.99985 0.203125 1.93652Z" fill="#A7A5FF"/>
<path d="M2.1223 17.8184C3.18562 17.8098 4.05011 18.6743 4.05876 19.7376C4.0674 20.7923 3.19427 21.6741 2.13959 21.6827C1.08491 21.6913 0.203125 20.8182 0.203125 19.7635C0.203125 18.7002 1.06762 17.8271 2.1223 17.8184Z" fill="#A7A5FF"/>
<path d="M2.10507 12.7611C1.04175 12.7438 0.194546 11.8793 0.203191 10.8074C0.211835 9.74404 1.08497 8.90548 2.15694 8.91413C3.22027 8.92277 4.08476 9.8132 4.05882 10.8679C4.04153 11.9398 3.17704 12.7784 2.10507 12.7611Z" fill="#A7A5FF"/>
</svg>
