<svg width="22" height="22" viewBox="0 0 22 22" fill="none" xmlns="http://www.w3.org/2000/svg">
<g clip-path="url(#clip0_1129_7370)">
<path d="M22 10.3553C22 10.785 22 11.2147 22 11.6444C21.9678 11.929 21.9356 12.2083 21.898 12.493C21.517 15.0926 20.3795 17.3001 18.4531 19.0887C16.8702 20.555 15.0083 21.4681 12.8834 21.8333C12.4756 21.9032 12.0624 21.9461 11.6546 21.9998C11.2253 21.9998 10.7961 21.9998 10.3668 21.9998C9.95898 21.9461 9.54581 21.9032 9.13801 21.8333C6.19752 21.307 3.81508 19.846 2.098 17.4129C-0.155654 14.2117 -0.584923 10.7205 0.761907 7.04671C2.24825 2.9969 6.25118 0.150224 10.5492 0.00520401C12.8887 -0.0699913 15.0619 0.488602 17.0151 1.78841C19.6551 3.54475 21.2648 5.99934 21.8336 9.12532C21.9087 9.53352 21.9463 9.9471 22 10.3553ZM13.9404 16.7469C14.4019 16.7469 14.8419 16.6556 15.2658 16.4622C15.797 16.2205 16.178 15.8016 16.5751 15.4041C16.8702 15.1087 16.8702 14.8724 16.5751 14.577C15.9473 13.9486 15.3248 13.3201 14.697 12.6917C14.3858 12.3802 14.1497 12.3856 13.8385 12.7025C13.5004 13.0408 13.1678 13.39 12.8297 13.7283C12.4112 14.1473 11.9122 14.1849 11.4346 13.8465C10.2004 12.9657 9.13264 11.9183 8.23118 10.7044C7.84483 10.1888 7.87703 9.7054 8.33313 9.24349C8.69264 8.88362 9.05215 8.52913 9.41166 8.16389C9.66922 7.90071 9.66922 7.65901 9.41166 7.39583C8.76239 6.74055 8.10776 6.08528 7.45313 5.43538C7.20093 5.18831 6.9541 5.18831 6.70191 5.43538C6.49264 5.63948 6.28337 5.84358 6.07947 6.05843C5.42483 6.7513 5.12435 7.57307 5.25849 8.52913C5.34971 9.20589 5.6341 9.81819 5.94532 10.4144C7.28142 12.9388 9.22922 14.8455 11.7995 16.097C12.4702 16.43 13.1731 16.6932 13.9404 16.7469Z" fill="white"/>
</g>
<defs>
<clipPath id="clip0_1129_7370">
<rect width="22" height="22" fill="white"/>
</clipPath>
</defs>
</svg>
