<svg width="34" height="34" viewBox="0 0 34 34" fill="none" xmlns="http://www.w3.org/2000/svg">
<rect width="34" height="34" rx="8" fill="#59ADEB" fill-opacity="0.3"/>
<path d="M20.6622 19.7726C21.9259 21.0363 23.1722 22.2827 24.4273 23.5377C23.7759 24.2239 22.9942 24.7059 22.0432 24.9013C21.0313 25.1098 20.0499 24.9708 19.0815 24.6581C17.77 24.2325 16.5975 23.5421 15.4944 22.7256C13.4143 21.1797 11.6685 19.3253 10.3353 17.0932C9.7404 16.0901 9.2714 15.0261 9.08032 13.8623C8.81107 12.2425 9.20191 10.8224 10.3831 9.64989C10.4135 9.61949 10.4439 9.59344 10.47 9.56738C11.7207 10.8181 12.967 12.0601 14.2307 13.3281C14.1004 13.4541 13.9571 13.5843 13.8225 13.7233C13.2666 14.2792 13.2058 14.9566 13.6488 15.6037C14.9386 17.4841 16.5236 19.0691 18.404 20.3546C19.038 20.7888 19.7198 20.7237 20.2627 20.1852C20.406 20.0506 20.5363 19.9073 20.6622 19.7726Z" fill="#2E89CC"/>
<path d="M14.6476 12.7682C13.4403 11.561 12.2331 10.3537 11.0215 9.14213C11.3124 8.99448 11.6338 8.95539 11.9465 9.05962C12.1549 9.1291 12.3764 9.23332 12.5327 9.38097C13.1711 9.98895 13.7921 10.6186 14.4088 11.2483C14.8083 11.6565 14.8951 12.2775 14.6476 12.7682Z" fill="#2E89CC"/>
<path d="M24.8576 22.9782C23.6503 21.771 22.4474 20.5637 21.2314 19.3521C21.5181 19.2044 21.8394 19.1654 22.1521 19.2696C22.3605 19.3391 22.582 19.4433 22.7427 19.5909C23.3811 20.1989 24.0064 20.8243 24.6187 21.4583C25.0052 21.8578 25.0877 22.3485 24.9097 22.874C24.901 22.9 24.8923 22.9261 24.8793 22.9478C24.8749 22.9652 24.8619 22.9739 24.8576 22.9782Z" fill="#2E89CC"/>
<path d="M21.1392 9.98047C22.2813 9.98047 23.4278 9.98047 24.5699 9.98047C24.8912 9.98047 24.9998 10.089 24.9998 10.4104C24.9998 11.9868 24.9998 13.5632 24.9998 15.1395C24.9998 15.4696 24.8912 15.5738 24.5568 15.5738C22.2683 15.5738 19.984 15.5738 17.6954 15.5738C17.3654 15.5738 17.2568 15.4696 17.2568 15.1352C17.2568 13.5588 17.2568 11.9824 17.2568 10.406C17.2568 10.0934 17.3654 9.98481 17.6737 9.98481C18.8289 9.98047 19.984 9.98047 21.1392 9.98047ZM21.7862 12.2951C21.7602 12.3516 21.7428 12.382 21.7254 12.4167C21.5126 12.8814 21.6169 13.4199 21.9947 13.7499C22.3725 14.0886 22.924 14.1321 23.3496 13.8628C23.7708 13.5979 23.9749 13.0855 23.8403 12.6078C23.7057 12.1127 23.2714 11.774 22.7503 11.7696C21.669 11.7653 20.5833 11.7653 19.502 11.7696C18.9809 11.774 18.5509 12.1127 18.412 12.6078C18.2817 13.0855 18.4815 13.5979 18.9027 13.8628C19.3283 14.1321 19.8841 14.0843 20.2576 13.7499C20.6311 13.4155 20.7396 12.8814 20.5269 12.4124C20.5095 12.3733 20.4965 12.3385 20.4747 12.2908C20.9177 12.2951 21.3389 12.2951 21.7862 12.2951Z" fill="#2E89CC"/>
<path d="M20.1187 12.899C20.123 13.2421 19.8407 13.52 19.502 13.52C19.172 13.52 18.894 13.2421 18.8897 12.912C18.8854 12.5733 19.1676 12.291 19.5064 12.291C19.8451 12.291 20.1187 12.5646 20.1187 12.899Z" fill="#2E89CC"/>
<path d="M22.1357 12.9034C22.1357 12.5603 22.4137 12.2867 22.7567 12.2911C23.0911 12.2954 23.3647 12.5733 23.3647 12.9034C23.3647 13.2378 23.0781 13.5244 22.7437 13.52C22.4093 13.5157 22.1357 13.2378 22.1357 12.9034Z" fill="#2E89CC"/>
</svg>
