<svg width="8" height="8" viewBox="0 0 8 8" fill="none" xmlns="http://www.w3.org/2000/svg">
<path d="M7.92158 7.19601C7.88445 7.2971 7.85969 7.40644 7.80399 7.49515C7.62863 7.77778 7.35837 7.85618 7.04066 7.82317C6.84468 7.80254 6.68788 7.7097 6.54966 7.57148C5.70794 6.7277 4.86622 5.88598 4.02244 5.04426C3.99974 5.02157 3.98118 4.99681 3.95642 4.96793C3.92754 4.99681 3.90484 5.01744 3.88421 5.03807C3.02805 5.89217 2.17396 6.74833 1.31779 7.60449C1.06198 7.86031 0.618424 7.90982 0.311031 7.71589C-0.0376225 7.49721 -0.105703 6.9732 0.170744 6.64105C0.197564 6.61011 0.226446 6.57916 0.255329 6.55028C1.11562 5.69205 1.97178 4.83589 2.82794 3.97973C2.84857 3.9591 2.87126 3.94466 2.89808 3.92403C2.8692 3.89308 2.85063 3.87245 2.83 3.85182C1.9759 2.9936 1.11768 2.13744 0.261518 1.27921C-0.0169921 1.0007 -0.0376225 0.567464 0.214068 0.268324C0.463696 -0.028754 0.896934 -0.0885822 1.21671 0.136289C1.2559 0.165172 1.29304 0.19818 1.32811 0.233252C2.17602 1.07703 3.02599 1.92082 3.8739 2.7646C3.89866 2.78936 3.92341 2.81824 3.95436 2.85125C3.98118 2.82649 4.00181 2.80586 4.0245 2.78523C4.86828 1.93939 5.71207 1.09354 6.55585 0.251819C6.97258 -0.164915 7.65545 -0.00399758 7.81843 0.548897C7.90095 0.827407 7.84112 1.08116 7.63276 1.28953C6.78691 2.13537 5.94106 2.98122 5.09522 3.82707C5.07253 3.84976 5.04777 3.86626 5.01682 3.89308C5.04571 3.92403 5.06634 3.94466 5.08697 3.96735C5.92869 4.80288 6.76834 5.64048 7.61213 6.47394C7.76273 6.62248 7.88032 6.78546 7.92365 6.99383C7.92158 7.06191 7.92158 7.12793 7.92158 7.19601Z" fill="#454545"/>
</svg>
