<svg width="28" height="28" viewBox="0 0 28 28" fill="none" xmlns="http://www.w3.org/2000/svg">
<rect width="28" height="28" rx="6" fill="#F78080"/>
<path d="M16.3545 6C16.5757 6.21967 16.8072 6.43445 17.0233 6.66388C17.1467 6.79568 17.2805 6.83961 17.4657 6.83473C18.3351 6.82497 19.2045 6.82985 20.0739 6.82985C20.1356 6.82985 20.1973 6.82985 20.2694 6.82985C20.2694 7.38634 20.2694 7.92818 20.2694 8.48467C16.1847 8.48467 12.1001 8.48467 8 8.48467C8 7.94283 8 7.3961 8 6.82985C8.06173 6.82985 8.11832 6.82985 8.18005 6.82985C9.09061 6.82985 10.0012 6.82985 10.9117 6.82985C11.0198 6.82985 11.0969 6.80544 11.1689 6.73222C11.385 6.51744 11.6114 6.31241 11.8326 6.09763C11.8634 6.07322 11.884 6.03417 11.9097 6C13.3913 6 14.8729 6 16.3545 6Z" fill="white"/>
<path d="M8.87195 9.34375C12.3907 9.34375 15.8889 9.34375 19.3974 9.34375C19.4025 9.39745 19.4025 9.44626 19.4025 9.49508C19.4025 12.7461 19.4025 15.9972 19.4025 19.2483C19.4025 20.1074 18.8726 20.7664 18.0341 20.9519C17.8901 20.9861 17.7409 20.9958 17.5917 20.9958C15.287 21.0007 12.9823 21.0007 10.6776 20.9958C9.63332 20.9958 8.86681 20.288 8.86166 19.2971C8.85652 16.0167 8.86166 12.7364 8.86166 9.45602C8.86681 9.42185 8.87195 9.38768 8.87195 9.34375Z" fill="white"/>
</svg>
