<svg width="7" height="9" viewBox="0 0 7 9" fill="none" xmlns="http://www.w3.org/2000/svg">
<path d="M2.47584 3.32097C2.12349 3.67332 1.78166 4.03619 1.42405 4.37802C1.00859 4.7777 0.40381 4.6883 0.114567 4.19921C-0.0800144 3.8679 -0.0274245 3.48399 0.277595 3.17372C0.892893 2.55316 1.51345 1.93786 2.12875 1.3173C2.33385 1.1122 2.52843 0.901845 2.72301 0.686228C3.04381 0.328618 3.66436 0.328619 3.99568 0.670451C4.58994 1.28575 5.18946 1.89053 5.78898 2.50057C6.0309 2.74774 6.28859 2.98965 6.51998 3.24734C6.78293 3.53658 6.7987 3.93626 6.58835 4.24654C6.36747 4.56734 5.99408 4.71459 5.64173 4.58312C5.51026 4.53579 5.3893 4.44638 5.28412 4.34646C4.97385 4.05196 4.67934 3.74694 4.37432 3.44192C4.33225 3.39985 4.28492 3.35778 4.20604 3.28415C4.20604 3.39459 4.20604 3.46822 4.20604 3.53658C4.20604 5.00909 4.2113 6.4816 4.20604 7.95411C4.20604 8.58518 3.75903 8.93227 3.14899 8.80606C2.81767 8.73769 2.58102 8.47475 2.54421 8.13817C2.53369 8.03825 2.53369 7.94359 2.53369 7.84367C2.53369 6.41323 2.53369 4.97754 2.53369 3.5471C2.53369 3.47873 2.53369 3.40511 2.53369 3.33674C2.50739 3.33148 2.49162 3.32623 2.47584 3.32097Z" fill="#454545"/>
</svg>
