<svg width="7" height="9" viewBox="0 0 7 9" fill="none" xmlns="http://www.w3.org/2000/svg">
<path d="M4.25658 5.51106C4.60893 5.15871 4.95076 4.79585 5.30837 4.45401C5.72383 4.05433 6.32861 4.14373 6.61785 4.63282C6.81244 4.96413 6.75985 5.34804 6.45483 5.65831C5.83953 6.27887 5.21897 6.89417 4.60367 7.51473C4.39857 7.71983 4.20399 7.93019 4.00941 8.1458C3.68861 8.50341 3.06806 8.50341 2.73674 8.16158C2.14248 7.54628 1.54296 6.9415 0.943438 6.33146C0.701526 6.08429 0.443836 5.84238 0.212441 5.58469C-0.0505066 5.29545 -0.0662827 4.89577 0.144076 4.58549C0.364952 4.26469 0.738338 4.11744 1.09069 4.24891C1.22216 4.29625 1.34312 4.38565 1.4483 4.48557C1.75858 4.78007 2.05308 5.08509 2.3581 5.39011C2.40017 5.43218 2.4475 5.47425 2.52638 5.54788C2.52638 5.43744 2.52638 5.36381 2.52638 5.29545C2.52638 3.82294 2.52112 2.35043 2.52638 0.877922C2.52638 0.246847 2.9734 -0.100244 3.58343 0.0259714C3.91475 0.0943384 4.1514 0.357285 4.18822 0.693859C4.19873 0.793779 4.19873 0.888441 4.19873 0.988361C4.19873 2.4188 4.19873 3.85449 4.19873 5.28493C4.19873 5.3533 4.19873 5.42692 4.19873 5.49529C4.22503 5.50055 4.2408 5.50581 4.25658 5.51106Z" fill="#454545"/>
</svg>
