<svg width="20" height="20" viewBox="0 0 20 20" fill="none" xmlns="http://www.w3.org/2000/svg">
<g clip-path="url(#clip0_1555_1941)">
<path d="M10 20C15.5228 20 20 15.5228 20 10C20 4.47715 15.5228 0 10 0C4.47715 0 0 4.47715 0 10C0 15.5228 4.47715 20 10 20Z" fill="#59ADEB"/>
<path d="M5.00391 14.7056C5.06281 14.4881 5.12375 14.2686 5.1786 14.051C5.32282 13.4737 5.46501 12.8963 5.61126 12.321C5.62548 12.2641 5.65798 12.2051 5.6986 12.1624C7.50644 10.3491 9.31835 8.53772 11.1282 6.72637C11.1424 6.71214 11.1567 6.69995 11.1648 6.69385C11.8778 7.40741 12.5867 8.1169 13.3037 8.83453C13.2915 8.84876 13.2672 8.87519 13.2428 8.89958C11.4512 10.6906 9.6596 12.4836 7.86395 14.2747C7.80911 14.3295 7.73395 14.3743 7.65879 14.3926C6.88487 14.5898 6.10892 14.7829 5.33501 14.976C5.15828 15.0207 5.09938 14.9963 5.00391 14.8418C5.00391 14.7971 5.00391 14.7524 5.00391 14.7056Z" fill="white"/>
<path d="M14.9984 6.83423C14.9842 6.88708 14.9781 6.94401 14.9557 6.99076C14.8907 7.12494 14.842 7.27537 14.7445 7.38109C14.4824 7.66163 14.2001 7.92185 13.932 8.18206C13.2312 7.4807 12.5182 6.76714 11.8174 6.06578C12.0794 5.79743 12.3333 5.50672 12.6177 5.25057C12.9955 4.91107 13.6293 4.92124 14.0091 5.26074C14.2671 5.49249 14.5068 5.74661 14.7465 5.99869C14.8948 6.15319 14.9537 6.35446 15.0004 6.55978C14.9984 6.65126 14.9984 6.74275 14.9984 6.83423Z" fill="white"/>
</g>
<defs>
<clipPath id="clip0_1555_1941">
<rect width="20" height="20" fill="white"/>
</clipPath>
</defs>
</svg>
