<svg width="20" height="20" viewBox="0 0 20 20" fill="none" xmlns="http://www.w3.org/2000/svg">
<circle cx="10" cy="10" r="10" fill="white"/>
<path d="M5.00391 14.7056C5.06281 14.4881 5.12375 14.2686 5.1786 14.051C5.32282 13.4737 5.46501 12.8963 5.61126 12.321C5.62548 12.2641 5.65798 12.2051 5.6986 12.1624C7.50644 10.3491 9.31835 8.53772 11.1282 6.72637C11.1424 6.71214 11.1567 6.69995 11.1648 6.69385C11.8778 7.40741 12.5867 8.1169 13.3037 8.83453C13.2915 8.84876 13.2672 8.87519 13.2428 8.89958C11.4512 10.6906 9.6596 12.4836 7.86395 14.2747C7.80911 14.3295 7.73395 14.3743 7.65879 14.3926C6.88487 14.5898 6.10892 14.7829 5.33501 14.976C5.15828 15.0207 5.09938 14.9963 5.00391 14.8418C5.00391 14.7971 5.00391 14.7524 5.00391 14.7056Z" fill="#59ADEB"/>
<path d="M14.9979 6.83399C14.9837 6.88684 14.9776 6.94377 14.9552 6.99052C14.8902 7.1247 14.8415 7.27513 14.744 7.38085C14.4819 7.66139 14.1996 7.92161 13.9315 8.18182C13.2307 7.48046 12.5177 6.7669 11.8169 6.06554C12.0789 5.79719 12.3328 5.50648 12.6172 5.25033C12.995 4.91083 13.6288 4.921 14.0086 5.2605C14.2666 5.49225 14.5063 5.74637 14.746 5.99845C14.8943 6.15295 14.9532 6.35422 14.9999 6.55954C14.9979 6.65102 14.9979 6.74251 14.9979 6.83399Z" fill="#59ADEB"/>
</svg>
