<svg width="10" height="10" viewBox="0 0 10 10" fill="none" xmlns="http://www.w3.org/2000/svg">
<path d="M0 9.70789C0.059145 9.48955 0.12033 9.26917 0.175396 9.05083C0.320199 8.47131 0.462963 7.89179 0.609806 7.31431C0.624082 7.25717 0.656714 7.19799 0.697504 7.15514C2.51264 5.33496 4.33186 3.51681 6.14904 1.69866C6.16332 1.68438 6.1776 1.67214 6.18576 1.66602C6.90161 2.38225 7.6134 3.09441 8.33333 3.81473C8.3211 3.82902 8.29662 3.85554 8.27215 3.88003C6.47332 5.67777 4.6745 7.47755 2.87159 9.27529C2.81653 9.33039 2.74107 9.37528 2.66561 9.39364C1.88856 9.59158 1.10948 9.78543 0.332436 9.97929C0.155001 10.0242 0.0958558 9.99969 0 9.84461C0 9.79972 0 9.75482 0 9.70789Z" fill="#454545"/>
<path d="M9.99722 1.92099C9.98233 1.97638 9.97595 2.03602 9.95255 2.08502C9.88448 2.22562 9.83343 2.38325 9.73132 2.49402C9.45691 2.788 9.16123 3.06066 8.88044 3.33333C8.14655 2.5984 7.3999 1.8507 6.66602 1.11577C6.94043 0.834576 7.20633 0.529954 7.50413 0.261545C7.8998 -0.0942028 8.56348 -0.0835516 8.96127 0.272196C9.23143 0.515042 9.48244 0.781321 9.73345 1.04547C9.88873 1.20737 9.95042 1.41826 9.99935 1.63341C9.99722 1.72927 9.99722 1.82513 9.99722 1.92099Z" fill="#454545"/>
</svg>
