<svg width="28" height="28" viewBox="0 0 28 28" fill="none" xmlns="http://www.w3.org/2000/svg">
<rect width="28" height="28" rx="6" fill="#E9B83B"/>
<path d="M7.41211 20.1567C7.49948 19.834 7.58987 19.5084 7.67121 19.1858C7.88512 18.3294 8.09602 17.4731 8.31295 16.6198C8.33404 16.5353 8.38224 16.4479 8.4425 16.3846C11.1239 13.6949 13.8114 11.0083 16.4958 8.32168C16.5169 8.30058 16.538 8.28248 16.55 8.27344C17.6075 9.3318 18.659 10.3841 19.7226 11.4485C19.7045 11.4696 19.6683 11.5088 19.6322 11.545C16.9748 14.2015 14.3175 16.861 11.6542 19.5174C11.5728 19.5989 11.4614 19.6652 11.3499 19.6923C10.202 19.9848 9.05109 20.2713 7.9032 20.5577C7.64108 20.6241 7.55371 20.5879 7.41211 20.3587C7.41211 20.2924 7.41211 20.226 7.41211 20.1567Z" fill="white"/>
<path d="M22.2337 8.48474C22.2126 8.56314 22.2036 8.64757 22.1705 8.71692C22.074 8.91593 22.0017 9.13906 21.8571 9.29586C21.4685 9.71197 21.0497 10.0979 20.652 10.4839C19.6126 9.44361 18.5551 8.38524 17.5156 7.34497C17.9043 6.94695 18.2809 6.51576 18.7027 6.13584C19.2631 5.63228 20.2031 5.64736 20.7665 6.15091C21.1491 6.49466 21.5046 6.87157 21.8601 7.24546C22.0801 7.47462 22.1674 7.77314 22.2367 8.07768C22.2337 8.21337 22.2337 8.34906 22.2337 8.48474Z" fill="white"/>
</svg>
