<svg width="28" height="28" viewBox="0 0 28 28" fill="none" xmlns="http://www.w3.org/2000/svg">
<rect width="28" height="28" rx="6" fill="#59ADEB"/>
<path d="M22.4844 14.5138C22.3813 14.922 22.0891 15.2014 21.8183 15.4979C20.7353 16.7013 19.5277 17.7499 18.1095 18.5492C17.0995 19.1165 16.0294 19.5076 14.8691 19.615C13.7517 19.7182 12.6687 19.542 11.6244 19.138C10.146 18.5621 8.87388 17.6596 7.73071 16.5723C7.23219 16.091 6.75945 15.5753 6.29531 15.0553C5.91712 14.6298 5.90852 14.0582 6.26093 13.6285C7.48145 12.1587 8.88247 10.8995 10.5757 9.99697C11.5986 9.45118 12.6773 9.08588 13.8419 9.01282C15.1484 8.93116 16.3732 9.24489 17.5379 9.80358C19.042 10.5256 20.3141 11.5527 21.4616 12.7517C21.6249 12.9237 21.7796 13.0999 21.9386 13.2761C22.1664 13.5296 22.3942 13.7832 22.4844 14.127C22.4844 14.2559 22.4844 14.3848 22.4844 14.5138ZM17.7957 14.329C17.8 12.3693 16.2142 10.7791 14.2545 10.7791C12.2905 10.7748 10.7047 12.3607 10.7047 14.3204C10.7004 16.2801 12.2819 17.8702 14.2459 17.8745C16.2013 17.8745 17.7914 16.2887 17.7957 14.329Z" fill="white"/>
<path d="M16.7845 14.3165C16.7845 15.7132 15.6456 16.8564 14.2532 16.8607C12.8565 16.865 11.7133 15.7218 11.709 14.3294C11.7047 12.9326 12.8436 11.7895 14.2403 11.7852C15.637 11.7809 16.7802 12.924 16.7845 14.3165Z" fill="white"/>
</svg>
