<svg width="15" height="13" viewBox="0 0 15 13" fill="none" xmlns="http://www.w3.org/2000/svg">
<path d="M13.2781 11.7036C12.95 11.7036 12.6176 11.7076 12.2895 11.6995C12.183 11.6955 12.1361 11.732 12.0935 11.8255C11.7355 12.6179 10.879 13.0812 9.97557 12.9837C9.10626 12.8902 8.37756 12.24 8.21137 11.4069C8.01535 10.4397 8.62472 9.4807 9.62614 9.18404C10.6063 8.89145 11.6801 9.35472 12.0935 10.2609C12.1403 10.3666 12.1915 10.4032 12.3108 10.3991C12.9798 10.395 13.6531 10.395 14.3222 10.3991C14.6716 10.4032 14.9401 10.6307 14.9955 10.9558C15.0466 11.2566 14.8506 11.5654 14.5395 11.6589C14.4457 11.6873 14.3392 11.6955 14.2412 11.6995C13.9173 11.7036 13.5977 11.7036 13.2781 11.7036Z" fill="#3A72A6"/>
<path d="M1.6874 5.85176C2.02405 5.85176 2.35644 5.8477 2.69308 5.85583C2.80388 5.85989 2.85928 5.82738 2.90615 5.72579C3.25558 4.94961 4.12064 4.46602 4.97291 4.55948C5.89337 4.66108 6.6178 5.2869 6.78825 6.14029C6.98002 7.10747 6.37916 8.06652 5.39479 8.36317C4.39763 8.65983 3.33229 8.20469 2.91468 7.2944C2.86354 7.18062 2.80388 7.14811 2.6803 7.15217C2.01553 7.15623 1.35075 7.15623 0.681721 7.15217C0.379164 7.15217 0.144789 6.98555 0.0425162 6.72954C-0.0554952 6.47758 0.016948 6.20125 0.230016 6.02244C0.362118 5.90866 0.519789 5.85989 0.698766 5.85989C1.02689 5.85176 1.35928 5.85176 1.6874 5.85176Z" fill="#3A72A6"/>
<path d="M12.9627 5.73487e-06C14.0963 0.012197 15.0039 0.87778 14.9997 1.95468C14.9954 3.03158 14.0622 3.91342 12.9329 3.90123C11.8079 3.88903 10.9002 3.0072 10.9088 1.93436C10.9258 0.849334 11.8377 -0.0121856 12.9627 5.73487e-06Z" fill="#3A72A6"/>
<path d="M4.76393 2.59667C3.41308 2.59667 2.05796 2.59667 0.70711 2.59667C0.234099 2.59667 -0.0855032 2.21874 0.0210309 1.79204C0.0849513 1.54009 0.259667 1.3816 0.523872 1.31658C0.600576 1.30033 0.681542 1.29626 0.762508 1.29626C3.43438 1.29626 6.10626 1.29626 8.77813 1.29626C8.88467 1.29626 8.9912 1.30846 9.08921 1.34097C9.39177 1.4385 9.57927 1.73515 9.53666 2.03587C9.48978 2.34878 9.21705 2.58854 8.88041 2.59667C8.55654 2.6048 8.23268 2.60073 7.90455 2.60073C6.86052 2.59667 5.81222 2.59667 4.76393 2.59667Z" fill="#3A72A6"/>
<path d="M3.41322 11.7036C2.5226 11.7036 1.63623 11.7036 0.745607 11.7036C0.3493 11.7036 0.0723118 11.4964 0.0126527 11.155C-0.0555291 10.7852 0.225721 10.4357 0.617766 10.4032C0.643335 10.3992 0.668903 10.3992 0.698732 10.3992C2.50981 10.3992 4.32089 10.3992 6.13197 10.3992C6.51123 10.3992 6.80527 10.6714 6.82231 11.025C6.83936 11.3582 6.57515 11.6467 6.21294 11.6914C6.14049 11.6996 6.06379 11.6996 5.99135 11.6996C5.12629 11.7036 4.26975 11.7036 3.41322 11.7036Z" fill="#3A72A6"/>
<path d="M11.5907 7.14412C10.6915 7.14412 9.79236 7.14819 8.89322 7.14412C8.41594 7.14006 8.1006 6.77025 8.20288 6.34356C8.2668 6.07535 8.51396 5.87216 8.80373 5.85184C8.84208 5.84778 8.87617 5.84778 8.91452 5.84778C10.7 5.84778 12.4813 5.84778 14.2668 5.84778C14.6503 5.84778 14.9188 6.0469 14.987 6.37201C15.0679 6.76213 14.7739 7.12787 14.3563 7.14006C13.9898 7.15225 13.6233 7.14412 13.2526 7.14412C12.6986 7.14819 12.1446 7.14819 11.5907 7.14412Z" fill="#3A72A6"/>
</svg>
