<svg width="38" height="38" viewBox="0 0 38 38" fill="none" xmlns="http://www.w3.org/2000/svg">
<rect width="38" height="38" rx="19" fill="#CECCFF" fill-opacity="0.41"/>
<path d="M7.43359 24.9926C7.45071 24.9641 7.46784 24.9298 7.47354 24.9013C7.679 24.1365 8.27824 23.6743 9.06581 23.6686C10.641 23.6628 12.2104 23.6686 13.7856 23.6686C18.3969 23.6686 23.0139 23.6686 27.6252 23.6686C28.4984 23.6686 29.1547 24.1936 29.2745 25.0268C29.3202 25.3693 29.3088 25.7288 29.2517 26.0655C29.1319 26.7561 28.5041 27.2697 27.8078 27.304C27.7279 27.3097 27.6537 27.3097 27.5738 27.3097C21.4387 27.3097 15.2979 27.3097 9.16283 27.3154C8.48369 27.3154 7.95864 27.0643 7.62763 26.4707C7.54203 26.3166 7.49637 26.1454 7.43359 25.9799C7.43359 25.6432 7.43359 25.3179 7.43359 24.9926Z" fill="#5F5BFE"/>
<path d="M20.6425 15.4607C20.6425 15.358 20.6425 15.2724 20.6425 15.1925C20.6425 13.5546 20.6425 11.9166 20.6425 10.2844C20.6425 9.69659 20.3229 9.26286 19.7922 9.12589C19.6837 9.09735 19.5696 9.09164 19.4554 9.09164C18.7363 9.08594 18.0173 9.08594 17.2982 9.08594C16.562 9.09164 16.0997 9.55392 16.094 10.2844C16.0883 11.9166 16.094 13.5432 16.094 15.1754C16.094 15.261 16.094 15.3466 16.094 15.4607C16.0027 15.4607 15.9285 15.4607 15.8543 15.4607C15.1295 15.4607 14.4047 15.4664 13.6742 15.4607C13.3432 15.455 13.0863 15.5749 12.9551 15.8888C12.8238 16.1969 12.9265 16.4538 13.1491 16.682C14.7014 18.3086 16.2538 19.9351 17.8118 21.5616C18.1828 21.9497 18.5651 21.944 18.9361 21.5559C20.4827 19.9351 22.0293 18.3143 23.5816 16.6935C23.8099 16.4538 23.9184 16.1969 23.7814 15.8831C23.6444 15.5692 23.3876 15.4607 23.0566 15.4664C22.3375 15.4721 21.6184 15.4664 20.8993 15.4664C20.8194 15.4607 20.7452 15.4607 20.6425 15.4607Z" fill="#5F5BFE"/>
</svg>
