<svg width="38" height="38" viewBox="0 0 38 38" fill="none" xmlns="http://www.w3.org/2000/svg">
<rect width="38" height="38" rx="19" fill="#CECCFF" fill-opacity="0.41"/>
<path d="M9.87695 28.4259C9.92235 28.3855 9.96271 28.3351 10.0081 28.2998C12.1772 26.6099 14.3463 24.9251 16.5154 23.2403C16.591 23.1797 16.7071 23.1444 16.8029 23.1444C18.0741 23.1394 19.3453 23.1394 20.6165 23.1444C20.7174 23.1444 20.8384 23.1898 20.9191 23.2503C23.0882 24.9301 25.2523 26.615 27.4163 28.2947C27.4668 28.33 27.5021 28.3805 27.5475 28.4208C21.6607 28.4259 15.7688 28.4259 9.87695 28.4259Z" fill="#5F5BFE"/>
<path d="M18.7252 11.623C20.5109 11.623 22.2966 11.623 24.0874 11.623C24.5413 11.623 24.7583 11.84 24.7583 12.294C24.7583 14.4479 24.7583 16.5968 24.7633 18.7508C24.7633 18.8769 24.7229 18.9576 24.6221 19.0333C23.3811 19.9967 22.1402 20.9653 20.8942 21.9237C20.8287 21.9742 20.7379 22.0044 20.6572 22.0044C19.3607 22.0095 18.0643 22.0095 16.7679 22.0044C16.6923 22.0044 16.6065 21.9742 16.546 21.9288C15.2899 20.9602 14.0389 19.9867 12.7929 19.008C12.7274 18.9576 12.6769 18.8466 12.6769 18.7609C12.6719 16.5918 12.6719 14.4176 12.6719 12.2486C12.6719 11.85 12.9039 11.623 13.3075 11.623C15.1184 11.623 16.9243 11.623 18.7252 11.623ZM19.6533 19.0635C19.6836 19.0938 19.7088 19.1241 19.734 19.1493C20.0367 19.5024 20.415 19.6689 20.8842 19.6336C21.5601 19.5781 22.0645 19.2401 22.3773 18.6549C22.796 17.8731 22.9574 17.0306 22.7758 16.1529C22.4126 14.3975 20.8085 13.0456 18.9925 12.9497C16.1222 12.7933 13.9683 15.4871 14.7502 18.2514C15.2344 19.9614 16.8537 21.2276 18.589 21.2528C18.937 21.2578 19.1943 21.0258 19.2044 20.703C19.2145 20.3902 18.9723 20.143 18.6344 20.1229C18.4881 20.1128 18.3468 20.1027 18.2056 20.0775C17.0151 19.8656 16.0617 18.9425 15.7843 17.7369C15.522 16.5918 15.9961 15.3559 16.9647 14.6547C17.9534 13.9384 19.2649 13.888 20.3091 14.5185C21.1767 15.0431 21.9788 16.1731 21.6206 17.4745C21.5349 17.7823 21.4643 18.1001 21.212 18.3271C21.0607 18.4633 20.8741 18.5591 20.6773 18.4834C20.4856 18.4078 20.521 18.206 20.521 18.0345C20.526 17.0458 20.531 16.0571 20.531 15.0684C20.531 14.6749 20.2133 14.4126 19.845 14.4933C19.613 14.5438 19.4869 14.7052 19.4061 14.917C19.3708 14.907 19.3456 14.9019 19.3254 14.8918C18.5335 14.5791 17.7465 14.7354 17.1664 15.3509C16.5308 16.0268 16.3896 16.844 16.5964 17.7217C16.778 18.5087 17.2219 19.1039 18.0189 19.3712C18.6041 19.5781 19.1489 19.4368 19.6533 19.0635Z" fill="#5F5BFE"/>
<path d="M9.09375 27.5784C9.09375 24.2289 9.09375 20.9198 9.09375 17.5703C11.2477 19.2451 13.3764 20.8996 15.5254 22.5744C13.3815 24.2441 11.2528 25.8986 9.09375 27.5784Z" fill="#5F5BFE"/>
<path d="M28.327 27.5742C26.178 25.9045 24.0543 24.2499 21.9004 22.5752C24.0443 20.9105 26.173 19.2509 28.327 17.5762C28.327 20.9156 28.327 24.2247 28.327 27.5742Z" fill="#5F5BFE"/>
<path d="M25.9062 14.9727C26.5418 15.5074 27.1573 16.0219 27.7929 16.5566C27.1674 17.0459 26.5469 17.5251 25.9062 18.0245C25.9062 17.0055 25.9062 16.0068 25.9062 14.9727Z" fill="#5F5BFE"/>
<path d="M11.5334 14.9629C11.5334 16.002 11.5334 16.9958 11.5334 18.0349C10.8928 17.5355 10.2723 17.0513 9.63672 16.562C10.2673 16.0273 10.8877 15.5077 11.5334 14.9629Z" fill="#5F5BFE"/>
<path d="M16.8672 10.4776C17.3918 10.0388 17.8811 9.62007 18.3856 9.21148C18.5974 9.03997 18.8547 9.04501 19.0665 9.22157C19.5609 9.62512 20.0502 10.0438 20.5698 10.4776C19.3238 10.4776 18.1132 10.4776 16.8672 10.4776Z" fill="#5F5BFE"/>
<path d="M19.3918 16.9451C19.3817 17.3789 19.3162 17.6967 19.1245 17.9742C18.8168 18.4181 18.3426 18.4483 17.9794 18.0549C17.5758 17.611 17.5153 16.7685 17.8583 16.2792C18.045 16.0119 18.2972 15.8404 18.6402 15.8757C18.9883 15.911 19.185 16.1481 19.2859 16.4558C19.3464 16.6424 19.3716 16.8442 19.3918 16.9451Z" fill="#5F5BFE"/>
</svg>
