<svg width="38" height="38" viewBox="0 0 38 38" fill="none" xmlns="http://www.w3.org/2000/svg">
<rect width="38" height="38" rx="19" fill="#CECCFF" fill-opacity="0.41"/>
<path d="M29.9012 14.8995C29.9012 17.5543 29.9012 20.2036 29.9012 22.8584C29.8902 22.8859 29.8792 22.9079 29.8737 22.9353C29.7528 23.7543 29.0053 24.4469 27.9994 24.4084C27.4058 24.3864 26.8177 24.4029 26.2241 24.4029C26.0812 24.4029 25.9383 24.4029 25.7734 24.4029C25.7734 24.5073 25.7734 24.5898 25.7734 24.6667C25.7734 25.8705 25.7734 27.0687 25.7734 28.2724C25.7734 28.9045 25.493 29.1903 24.8664 29.1903C20.7331 29.1903 16.6053 29.1903 12.4719 29.1903C11.8398 29.1903 11.5595 28.91 11.5595 28.2834C11.5595 27.0742 11.5595 25.865 11.5595 24.6557C11.5595 24.5788 11.5595 24.5018 11.5595 24.4084C11.4496 24.4084 11.3671 24.4084 11.2902 24.4084C10.6196 24.4084 9.94353 24.4139 9.27296 24.4084C8.16817 24.3974 7.43164 23.6554 7.43164 22.5506C7.43164 20.1047 7.43164 17.6587 7.43164 15.2073C7.43164 14.1025 8.17366 13.3605 9.27846 13.355C9.96002 13.355 10.6361 13.355 11.3176 13.355C11.3946 13.355 11.4715 13.355 11.5595 13.355C11.5595 13.2396 11.5595 13.1626 11.5595 13.0802C11.5595 11.7665 11.5595 10.4584 11.5595 9.1447C11.5595 8.55108 11.8508 8.25977 12.4499 8.25977C16.5943 8.25977 20.7441 8.25977 24.8884 8.25977C25.4876 8.25977 25.7734 8.55108 25.7734 9.15019C25.7734 10.4639 25.7734 11.772 25.7734 13.0857C25.7734 13.1681 25.7734 13.2561 25.7734 13.355C25.8833 13.355 25.9602 13.355 26.0427 13.355C26.7298 13.355 27.4168 13.355 28.1039 13.355C28.6975 13.355 29.2032 13.5694 29.5385 14.064C29.7088 14.3114 29.7858 14.6192 29.9012 14.8995ZM24.2673 27.6788C24.2673 25.6341 24.2673 23.6004 24.2673 21.5557C20.5297 21.5557 16.8086 21.5557 13.071 21.5557C13.071 23.6004 13.071 25.6341 13.071 27.6788C16.8031 27.6788 20.5187 27.6788 24.2673 27.6788ZM13.071 9.7658C13.071 10.975 13.071 12.1568 13.071 13.3385C16.8086 13.3385 20.5352 13.3385 24.2563 13.3385C24.2563 12.1403 24.2563 10.9585 24.2563 9.7658C20.5242 9.7658 16.8086 9.7658 13.071 9.7658ZM24.042 17.7577C24.3718 17.7577 24.7016 17.7632 25.0258 17.7577C25.4436 17.7467 25.7624 17.4224 25.7679 17.0156C25.7679 16.6144 25.4491 16.2736 25.0313 16.2681C24.3883 16.2571 23.7452 16.2571 23.1021 16.2681C22.6789 16.2736 22.3656 16.6034 22.3601 17.0101C22.3546 17.4224 22.6843 17.7522 23.1131 17.7577C23.4319 17.7632 23.7342 17.7577 24.042 17.7577Z" fill="#5F5BFE"/>
<path d="M18.6665 24.1791C17.5892 24.1791 16.5174 24.1846 15.4401 24.1791C14.8905 24.1736 14.5277 23.6625 14.7201 23.1678C14.8355 22.871 15.1048 22.6896 15.4621 22.6841C16.3195 22.6786 17.1715 22.6841 18.0289 22.6841C19.3096 22.6841 20.5903 22.6786 21.8655 22.6841C22.4316 22.6841 22.7999 23.1953 22.6075 23.7009C22.4921 24.0032 22.2228 24.1791 21.8655 24.1791C20.8047 24.1846 19.7383 24.1791 18.6665 24.1791Z" fill="#5F5BFE"/>
<path d="M18.6664 25.0513C19.7437 25.0513 20.8155 25.0458 21.8928 25.0513C22.448 25.0568 22.8053 25.5679 22.6129 26.0626C22.4975 26.3594 22.2281 26.5408 21.8709 26.5463C21.2058 26.5518 20.5407 26.5463 19.8756 26.5463C18.4136 26.5463 16.9515 26.5463 15.4894 26.5463C14.9123 26.5463 14.5386 26.0571 14.7199 25.5515C14.8299 25.2382 15.0992 25.0513 15.4675 25.0513C16.5338 25.0513 17.6001 25.0513 18.6664 25.0513Z" fill="#5F5BFE"/>
</svg>
