<svg width="22" height="22" viewBox="0 0 22 22" fill="none" xmlns="http://www.w3.org/2000/svg">
<circle cx="11" cy="11" r="11" fill="#F36A6A"/>
<g clip-path="url(#clip0_1129_8057)">
<path d="M13.6311 16.9999C11.543 16.9999 9.45794 16.9999 7.36983 16.9999C7.36066 16.994 7.34843 16.9852 7.33926 16.9852C6.79813 16.8769 6.46489 16.5342 6.41291 16.007C6.34871 15.3392 6.29674 14.6684 6.23559 14.0006C6.16528 13.1951 6.09496 12.3897 6.02464 11.5842C5.9635 10.8637 5.8993 10.1461 5.83815 9.42556C5.81369 9.12681 5.78923 8.82805 5.76172 8.52344C8.92292 8.52344 12.0749 8.52344 15.23 8.52344C15.2331 8.54101 15.2361 8.5498 15.2361 8.56151C15.1475 9.59251 15.0588 10.6235 14.9702 11.6545C14.8479 13.0633 14.7256 14.4693 14.6064 15.8781C14.5788 16.1856 14.5024 16.4668 14.2639 16.6923C14.0866 16.8622 13.8665 16.9442 13.6311 16.9999ZM9.03298 15.263C9.00852 14.891 8.99324 14.6069 8.97489 14.3228C8.91375 13.3562 8.84955 12.3926 8.7884 11.426C8.74866 10.8022 8.70891 10.1812 8.66611 9.55736C8.65694 9.42849 8.59579 9.32598 8.4735 9.26447C8.22281 9.13852 7.92931 9.31133 7.93848 9.58958C7.94766 9.8942 7.97211 10.1959 7.99351 10.5005C8.05466 11.4495 8.11886 12.4014 8.18001 13.3504C8.22281 13.986 8.26255 14.6186 8.3023 15.2542C8.31147 15.4095 8.39401 15.5208 8.54688 15.5735C8.8098 15.6643 9.04215 15.471 9.03298 15.263ZM13.0686 9.60716C13.0777 9.40213 12.9402 9.23518 12.7261 9.22346C12.5244 9.21175 12.3501 9.36405 12.3379 9.56615C12.2951 10.2076 12.2553 10.852 12.2125 11.4934C12.1606 12.3106 12.1055 13.1307 12.0505 13.9479C12.023 14.3726 11.9924 14.7973 11.971 15.222C11.9618 15.43 12.1208 15.5881 12.3256 15.594C12.5274 15.5969 12.6864 15.4563 12.7017 15.2513C12.7109 15.1224 12.72 14.9935 12.7261 14.8647C12.7781 14.0592 12.8301 13.2508 12.8821 12.4453C12.9432 11.511 13.0044 10.5766 13.0686 9.60716ZM10.8673 12.4073C10.8673 11.4934 10.8673 10.5796 10.8673 9.66574C10.8673 9.38456 10.7328 9.22053 10.5005 9.22053C10.2681 9.22053 10.1336 9.38456 10.1336 9.66574C10.1336 11.4934 10.1336 13.3211 10.1336 15.1488C10.1336 15.1868 10.1305 15.2279 10.1366 15.2659C10.155 15.4153 10.2345 15.5208 10.3812 15.5735C10.6319 15.6584 10.8673 15.4827 10.8673 15.2074C10.8673 14.2759 10.8673 13.3416 10.8673 12.4073Z" fill="white"/>
<path d="M7.94463 6.40859C7.94463 6.24457 7.92934 6.09519 7.94769 5.94874C8.018 5.39224 8.44908 5.01147 9.03607 5.00561C10.0144 4.99683 10.9927 4.99683 11.971 5.00561C12.6008 5.01147 13.0533 5.46253 13.0716 6.0659C13.0747 6.17427 13.0716 6.28265 13.0716 6.40859C13.1236 6.40859 13.1664 6.40859 13.2092 6.40859C13.8849 6.40859 14.5636 6.40566 15.2392 6.40859C15.6061 6.40859 15.8904 6.61069 15.9791 6.92702C16.0892 7.31364 15.8385 7.70906 15.4288 7.794C15.3524 7.80864 15.2759 7.8145 15.1995 7.8145C12.0689 7.8145 8.93824 7.8145 5.80761 7.8145C5.42851 7.8145 5.1503 7.64462 5.04635 7.35465C4.87515 6.87723 5.21756 6.41445 5.75564 6.41152C6.43129 6.40566 7.11 6.41152 7.78565 6.41152C7.82845 6.40859 7.87126 6.40859 7.94463 6.40859ZM8.66614 6.40273C9.89516 6.40273 11.1089 6.40273 12.3348 6.40273C12.3348 6.2885 12.3379 6.18013 12.3348 6.07176C12.3287 5.85209 12.1789 5.7115 11.9466 5.70564C11.8121 5.70271 11.6775 5.70564 11.543 5.70564C10.7206 5.70564 9.89822 5.70564 9.07582 5.70564C8.81289 5.70564 8.6692 5.84623 8.66614 6.09812C8.66614 6.19478 8.66614 6.29436 8.66614 6.40273Z" fill="white"/>
</g>
<defs>
<clipPath id="clip0_1129_8057">
<rect width="11" height="12" fill="white" transform="translate(5 5)"/>
</clipPath>
</defs>
</svg>
