<svg width="16" height="17" viewBox="0 0 16 17" fill="none" xmlns="http://www.w3.org/2000/svg">
<path d="M11.2532 13.4274C11.2532 13.3102 11.2532 13.2446 11.2532 13.1743C11.2532 9.41142 11.2532 5.65322 11.2532 1.89033C11.2532 1.77318 11.2532 1.65135 11.2814 1.54357C11.38 1.17806 11.718 0.967184 12.103 1.00936C12.4504 1.04685 12.7274 1.34675 12.7462 1.71226C12.7508 1.78724 12.7509 1.86222 12.7509 1.94188C12.7509 5.68602 12.7509 9.43016 12.7509 13.1743C12.7509 13.2446 12.7509 13.3149 12.7509 13.4133C12.8025 13.3711 12.8401 13.3524 12.8682 13.3196C13.1358 13.0525 13.4034 12.7807 13.6757 12.5089C14.0138 12.1762 14.4785 12.1574 14.7884 12.4667C15.0889 12.7713 15.0748 13.2352 14.7509 13.5679C14.0278 14.2943 13.3048 15.0206 12.5771 15.7423C12.2297 16.089 11.7837 16.089 11.441 15.7469C10.7086 15.0206 9.9809 14.2896 9.2532 13.5586C8.93395 13.2399 8.92456 12.776 9.22033 12.4714C9.5208 12.1668 9.99029 12.1715 10.3189 12.4948C10.6147 12.7901 10.9152 13.0946 11.2532 13.4274Z" fill="#5F5BFE"/>
<path d="M5.25362 2.49485C3.79353 2.49485 2.33813 2.49485 0.878033 2.49485C0.765357 2.49485 0.65268 2.49485 0.549394 2.46674C0.183197 2.36364 -0.0327655 2.02625 0.0141828 1.64199C0.0517415 1.29523 0.352211 1.01875 0.718408 1.00001C0.770051 0.995321 0.821695 1.00001 0.878033 1.00001C3.79353 1.00001 6.70902 1.00001 9.62451 1.00001C9.73719 1.00001 9.84986 1.00001 9.95315 1.02812C10.3147 1.12653 10.5306 1.46393 10.4884 1.84818C10.4508 2.19495 10.1503 2.48079 9.78414 2.48548C9.03296 2.49485 8.28648 2.49017 7.53531 2.49017C6.77475 2.49485 6.01418 2.49485 5.25362 2.49485Z" fill="#5F5BFE"/>
<path d="M4.49312 6.99346C3.25838 6.99346 2.02364 6.99346 0.788897 6.99346C0.291244 6.99346 -0.0326998 6.63732 0.00955376 6.16403C0.0377228 5.836 0.314718 5.55016 0.643357 5.51267C0.695 5.50798 0.746643 5.5033 0.802981 5.5033C3.26777 5.5033 5.73256 5.5033 8.19735 5.5033C8.63397 5.5033 8.92505 5.74228 8.99078 6.14528C9.0565 6.56234 8.74664 6.96534 8.32411 6.99346C8.10815 7.00751 7.89218 6.99814 7.67622 6.99814C6.61519 6.99346 5.55415 6.99346 4.49312 6.99346Z" fill="#5F5BFE"/>
<path d="M3.75598 11.4921C2.76067 11.4921 1.76537 11.4968 0.770065 11.4921C0.220769 11.4874 -0.131344 10.9813 0.0517548 10.4846C0.155041 10.1988 0.413257 10.0066 0.718421 10.002C1.02828 9.99258 1.33814 9.99727 1.648 9.99727C3.32875 9.99727 5.0095 9.99727 6.69025 9.99727C7.13626 9.99727 7.45551 10.2644 7.49776 10.6674C7.54471 11.1172 7.20199 11.4874 6.72312 11.4921C5.73251 11.4968 4.7419 11.4921 3.75598 11.4921Z" fill="#5F5BFE"/>
<path d="M2.98612 15.9906C2.23495 15.9906 1.48847 15.9953 0.737294 15.9906C0.418045 15.9906 0.187999 15.8266 0.0659328 15.5361C-0.0561329 15.2456 -0.00448969 14.9738 0.206778 14.7348C0.366402 14.5567 0.572975 14.4958 0.807717 14.4958C1.58706 14.5005 2.3664 14.4958 3.14575 14.4958C3.85936 14.4958 4.57298 14.4911 5.29129 14.5005C5.63401 14.5052 5.92509 14.7582 5.99082 15.0862C6.06124 15.4236 5.90161 15.7657 5.59175 15.9063C5.46969 15.9625 5.31945 15.986 5.1833 15.986C4.44621 15.9953 3.71852 15.9953 2.98612 15.9906Z" fill="#5F5BFE"/>
</svg>
