<svg width="18" height="15" viewBox="0 0 18 15" fill="none" xmlns="http://www.w3.org/2000/svg">
<path d="M0 13.0381C0.0140344 13.0147 0.0280688 12.9866 0.032747 12.9632C0.20116 12.3364 0.692365 11.9574 1.33795 11.9528C2.62911 11.9481 3.9156 11.9528 5.20677 11.9528C8.98671 11.9528 12.7713 11.9528 16.5513 11.9528C17.267 11.9528 17.805 12.3832 17.9032 13.0662C17.9407 13.3468 17.9313 13.6416 17.8845 13.9176C17.7863 14.4836 17.2717 14.9047 16.701 14.9327C16.6355 14.9374 16.5746 14.9374 16.5092 14.9374C11.4802 14.9374 6.44648 14.9374 1.41748 14.9421C0.860778 14.9421 0.430389 14.7363 0.159057 14.2497C0.0888847 14.1234 0.0514595 13.9831 0 13.8474C0 13.5714 0 13.3047 0 13.0381Z" fill="#0E5C0C"/>
<path d="M10.8267 5.23741C10.8267 5.32162 10.8267 5.39179 10.8267 5.45728C10.8267 6.79991 10.8267 8.14253 10.8267 9.48048C10.8267 9.96233 10.5647 10.3179 10.1297 10.4301C10.0408 10.4535 9.94723 10.4582 9.85367 10.4582C9.26423 10.4629 8.67478 10.4629 8.08534 10.4629C7.48186 10.4582 7.10293 10.0793 7.09825 9.48048C7.09357 8.14253 7.09825 6.80926 7.09825 5.47132C7.09825 5.40114 7.09825 5.33097 7.09825 5.23741C7.0234 5.23741 6.96258 5.23741 6.90177 5.23741C6.30764 5.23741 5.71352 5.23273 5.11472 5.23741C4.84338 5.24209 4.63287 5.14385 4.52527 4.88655C4.41767 4.63393 4.50188 4.42341 4.68433 4.23629C5.95678 2.90302 7.22924 1.56975 8.50637 0.236477C8.81045 -0.0816364 9.12388 -0.0769587 9.42796 0.241155C10.6957 1.56975 11.9635 2.89834 13.236 4.22693C13.4231 4.42341 13.512 4.63393 13.3997 4.89123C13.2874 5.14852 13.0769 5.23741 12.8056 5.23273C12.2161 5.22805 11.6267 5.23273 11.0372 5.23273C10.9717 5.23741 10.9109 5.23741 10.8267 5.23741Z" fill="#0E5C0C"/>
</svg>
