<svg width="18" height="15" viewBox="0 0 18 15" fill="none" xmlns="http://www.w3.org/2000/svg">
<path d="M0 13.0376C0.0140344 13.0142 0.0280688 12.9861 0.032747 12.9628C0.20116 12.3359 0.692365 11.957 1.33795 11.9523C2.62911 11.9476 3.9156 11.9523 5.20677 11.9523C8.98671 11.9523 12.7713 11.9523 16.5513 11.9523C17.267 11.9523 17.805 12.3827 17.9032 13.0657C17.9407 13.3464 17.9313 13.6411 17.8845 13.9171C17.7863 14.4831 17.2717 14.9042 16.701 14.9323C16.6355 14.9369 16.5746 14.9369 16.5092 14.9369C11.4802 14.9369 6.44648 14.9369 1.41748 14.9416C0.860778 14.9416 0.430389 14.7358 0.159057 14.2492C0.0888847 14.1229 0.0514595 13.9826 0 13.8469C0 13.5709 0 13.3043 0 13.0376Z" fill="#4AAEC5"/>
<path d="M7.10101 5.22548C7.10101 5.14128 7.10101 5.0711 7.10101 5.00561C7.10101 3.66298 7.10101 2.32036 7.10101 0.982409C7.10101 0.500561 7.36298 0.145022 7.79805 0.032747C7.88694 0.00935628 7.9805 0.00467814 8.07406 0.00467814C8.66351 0 9.25295 0 9.8424 0C10.4459 0.00467814 10.8248 0.383607 10.8295 0.982409C10.8342 2.32036 10.8295 3.65363 10.8295 4.99158C10.8295 5.06175 10.8295 5.13192 10.8295 5.22548C10.9043 5.22548 10.9652 5.22548 11.026 5.22548C11.6201 5.22548 12.2142 5.23016 12.813 5.22548C13.0843 5.2208 13.2949 5.31905 13.4025 5.57634C13.5101 5.82896 13.4259 6.03948 13.2434 6.2266C11.971 7.55987 10.6985 8.89314 9.42137 10.2264C9.11729 10.5445 8.80385 10.5398 8.49977 10.2217C7.232 8.89314 5.96422 7.56455 4.69177 6.23596C4.50464 6.03948 4.41576 5.82896 4.52803 5.57166C4.64031 5.31437 4.85082 5.22548 5.12216 5.23016C5.7116 5.23484 6.30105 5.23016 6.89049 5.23016C6.95599 5.22548 7.0168 5.22548 7.10101 5.22548Z" fill="#4AAEC5"/>
</svg>
