<svg width="48" height="48" viewBox="0 0 48 48" fill="none" xmlns="http://www.w3.org/2000/svg">
<rect width="48" height="48" rx="16" fill="#FFF3CE"/>
<path d="M24.2339 13.0304C24.3926 13.0476 24.5469 13.0734 24.7013 13.1034C24.8685 13.1378 25.0358 13.1721 25.1987 13.215C25.2073 13.215 25.2116 13.2193 25.2201 13.2193C25.2802 13.2365 25.3402 13.2537 25.4002 13.2708C27.5999 13.9362 29.4394 16.134 29.2036 18.9543C28.9892 21.4912 27.0553 23.4315 24.7656 23.8393C21.6955 24.3844 18.8227 22.3154 18.3724 19.229C18.3253 18.907 18.3081 18.5765 18.321 18.2503C18.3338 17.9326 18.3767 17.6107 18.4453 17.3016C18.5139 16.9925 18.6083 16.692 18.7283 16.4002C18.8484 16.1125 18.9942 15.8335 19.1614 15.5674C19.3286 15.3012 19.5173 15.0523 19.7274 14.8205C19.9375 14.5887 20.1648 14.374 20.4135 14.1809C20.6621 13.9834 20.9237 13.8117 21.2024 13.6615C21.4854 13.5112 21.777 13.3824 22.0814 13.2837C22.5016 13.1463 22.9433 13.0734 23.3806 13.0219C23.6636 12.9875 23.9509 12.9961 24.2339 13.0304Z" fill="#FFBD14"/>
<path d="M24.4094 34.9916C24.4094 32.8882 24.4137 30.7848 24.4094 28.6857C24.4094 28.5097 24.4566 28.3724 24.5552 28.235C25.4856 26.9343 26.4075 25.6251 27.3423 24.3244C27.4538 24.1656 27.6253 24.0454 27.7839 23.9295C27.9254 23.8265 28.3242 24.0626 28.3242 24.2429C28.3242 25.6594 28.3242 27.076 28.3285 28.4926C28.3285 28.6385 28.2599 28.6814 28.1484 28.7372C27.4152 29.0892 27.0121 29.8362 27.1107 30.656C27.2008 31.4073 27.8011 32.0511 28.5643 32.21C29.4605 32.3989 30.3566 31.9009 30.6739 31.0338C30.987 30.171 30.6268 29.2051 29.8164 28.7802C29.6577 28.6943 29.5977 28.6128 29.5977 28.4282C29.6106 27.3035 29.602 26.1831 29.602 25.0585C29.602 24.9898 29.602 24.9168 29.602 24.8181C29.6792 24.861 29.7349 24.8868 29.7864 24.9211C32.3591 26.7154 33.9327 29.1536 34.4215 32.2615C34.5202 32.8925 34.5116 33.545 34.5459 34.1846C34.5587 34.455 34.5587 34.7254 34.5673 34.9959C31.1842 34.9916 27.7968 34.9916 24.4094 34.9916ZM25.923 32.9397C26.266 32.9397 26.5662 32.6607 26.5662 32.3302C26.5662 31.961 26.2789 31.6605 25.9273 31.6648C25.5971 31.6691 25.3013 31.9481 25.2927 32.2658C25.2884 32.6349 25.5671 32.9354 25.923 32.9397Z" fill="#FFBD14"/>
<path d="M13.0028 34.9914C12.9985 33.9698 12.9771 32.9438 13.1743 31.9351C13.7703 28.8616 15.3911 26.4792 18.0025 24.7664C18.0368 24.7449 18.0753 24.7235 18.1354 24.6934C18.1397 24.7621 18.1482 24.8179 18.1482 24.8694C18.1482 26.007 18.1482 27.1445 18.1525 28.2821C18.1525 28.4237 18.1225 28.4881 17.9681 28.5267C16.5875 28.8616 15.6098 30.0807 15.5755 31.5101C15.5669 31.9222 15.5755 32.3386 15.5755 32.7678C16 32.7678 16.4117 32.7678 16.8533 32.7678C16.8533 32.6648 16.849 32.5704 16.8533 32.4717C16.8705 32.0381 16.8319 31.5917 16.9133 31.171C17.0977 30.2266 17.9939 29.6171 18.9501 29.7244C19.8677 29.8274 20.5795 30.613 20.6009 31.5445C20.6095 31.9265 20.6009 32.3128 20.6009 32.7078C21.0383 32.7078 21.4456 32.7078 21.8615 32.7078C21.9859 31.347 21.883 30.0506 20.6995 29.1363C20.335 28.853 19.8934 28.6727 19.486 28.4452C19.4689 28.4624 19.456 28.4795 19.4389 28.4967C19.4389 28.4108 19.4389 28.325 19.4389 28.2434C19.4389 26.8998 19.4389 25.552 19.4432 24.2084C19.4432 24.1268 19.486 24.0195 19.5461 23.9637C19.6447 23.8735 19.7648 23.8821 19.8634 23.9894C20.0049 24.1354 20.1764 24.2642 20.2922 24.4273C21.2055 25.6979 22.1102 26.9771 23.0107 28.2563C23.075 28.3507 23.135 28.4709 23.135 28.5825C23.1436 30.6859 23.1393 32.7893 23.1393 34.8927C23.1393 34.927 23.135 34.9657 23.1307 35C19.7476 34.9914 16.3731 34.9914 13.0028 34.9914Z" fill="#FFBD14"/>
<path d="M22.3424 25.1053C23.3157 25.3028 24.2419 25.3028 25.2109 25.1053C24.7178 25.7964 24.259 26.4489 23.7745 27.1271C23.2986 26.4532 22.8355 25.8007 22.3424 25.1053Z" fill="#FFBD14"/>
<path d="M29.5061 30.4118C29.5018 30.7295 29.2446 30.9742 28.923 30.9699C28.6143 30.9613 28.3741 30.7123 28.3784 30.399C28.3827 30.0813 28.64 29.8323 28.9616 29.8409C29.2703 29.8495 29.5104 30.1028 29.5061 30.4118Z" fill="#FFBD14"/>
</svg>
