<svg width="48" height="48" viewBox="0 0 48 48" fill="none" xmlns="http://www.w3.org/2000/svg">
<rect width="48" height="48" rx="16" fill="#FFDFEB"/>
<path d="M31.3578 36.3575C26.2356 36.3575 21.1201 36.3575 15.9979 36.3575C15.9712 36.3441 15.9379 36.3241 15.9112 36.3241C15.3443 36.2374 14.8841 35.964 14.5173 35.5171C13.9237 34.8035 14.0237 33.8831 14.0237 33.016C14.0237 32.0089 14.0237 30.9952 14.0237 29.9881C14.0237 27.9672 14.0237 25.9464 14.0237 23.9255C14.0237 21.9046 14.0237 19.8838 14.0237 17.8629C14.0237 17.0426 14.0237 16.2289 14.0237 15.4085C14.0237 15.0017 14.0237 14.6015 14.0237 14.1947C14.0237 13.9946 14.0237 13.7879 14.0237 13.5878C14.0237 13.4144 13.9704 13.1476 14.0237 12.9808C14.0971 12.7474 14.1438 12.494 14.2505 12.2805C14.6907 11.4002 15.4243 11 16.3914 11C19.9729 11 23.5544 11 27.136 11C27.216 11 27.296 11 27.3961 11C27.3961 11.1134 27.3961 11.2068 27.3961 11.2935C27.3961 12.8941 27.3961 14.4948 27.3961 16.0955C27.3961 16.6691 27.6695 16.9425 28.2498 16.9425C29.8504 16.9425 31.4511 16.9425 33.0518 16.9425C33.1385 16.9425 33.2252 16.9425 33.3386 16.9425C33.3386 17.0492 33.3386 17.1293 33.3386 17.2093C33.3386 18.1097 33.3319 19.0101 33.3453 19.9105C33.3453 20.0905 33.2852 20.2173 33.1585 20.3373C31.5778 21.9046 29.9905 23.472 28.4298 25.0593C28.1431 25.3528 27.8629 25.6996 27.7095 26.0797C27.3761 26.9001 27.0959 27.7538 26.8558 28.6075C26.6624 29.2878 26.8558 29.908 27.3761 30.3882C27.8963 30.8751 28.5232 31.0285 29.2102 30.8084C29.9038 30.5883 30.5841 30.3482 31.2711 30.1215C31.7646 29.9614 32.1981 29.7013 32.5649 29.3278C32.765 29.1277 32.9651 28.9343 33.1652 28.7409C33.2052 28.7009 33.2586 28.6675 33.3319 28.6208C33.3319 30.495 33.3453 32.3224 33.3253 34.1565C33.3186 34.8435 33.0251 35.4104 32.4916 35.8506C32.1581 36.1307 31.7646 36.2507 31.3578 36.3575ZM22.9142 19.9171C23.2676 19.9171 23.6211 19.9171 23.9813 19.9171C25.3352 19.9171 26.6891 19.9171 28.043 19.9171C28.5366 19.9171 28.87 19.6037 28.8567 19.1501C28.8434 18.7166 28.5165 18.4298 28.023 18.4298C24.6282 18.4298 21.2401 18.4298 17.8453 18.4298C17.7853 18.4298 17.732 18.4298 17.6719 18.4365C17.3718 18.4765 17.1517 18.6366 17.045 18.93C16.8649 19.4369 17.2317 19.9171 17.812 19.9171C19.5127 19.9171 21.2134 19.9171 22.9142 19.9171ZM21.4269 22.8851C22.6474 22.8851 23.8679 22.8851 25.0951 22.8851C25.582 22.8851 25.9088 22.5449 25.8821 22.0914C25.8554 21.6779 25.5419 21.3978 25.0751 21.3978C23.2076 21.3978 21.3468 21.3978 19.4794 21.3978C18.9125 21.3978 18.3389 21.3911 17.772 21.3978C17.4318 21.3978 17.165 21.5845 17.0583 21.8713C16.8649 22.3715 17.2251 22.8784 17.7987 22.8784C18.9992 22.8917 20.213 22.8851 21.4269 22.8851ZM21.4469 25.8597C21.4869 25.8597 21.5269 25.8597 21.5736 25.8597C22.7474 25.8597 23.9213 25.8597 25.0884 25.8597C25.5753 25.8597 25.9021 25.5262 25.8821 25.0727C25.8621 24.6591 25.5419 24.3724 25.0817 24.3724C23.5278 24.3724 21.9804 24.3724 20.4264 24.3724C19.5527 24.3724 18.679 24.3724 17.7987 24.3724C17.4585 24.3724 17.2051 24.5124 17.065 24.8192C16.8382 25.3194 17.2051 25.853 17.7853 25.853C18.9992 25.8597 20.2264 25.8597 21.4469 25.8597ZM21.4402 27.3403C20.88 27.3403 20.3197 27.3403 19.7595 27.3403C19.0925 27.3403 18.4189 27.3336 17.752 27.3403C17.3251 27.347 17.005 27.6671 16.9983 28.0673C16.9916 28.4808 17.3118 28.8009 17.752 28.8209C17.8187 28.8209 17.8854 28.8209 17.9521 28.8209C20.2797 28.8209 22.6074 28.8209 24.935 28.8209C25.0151 28.8209 25.1018 28.8209 25.1818 28.8209C25.6286 28.7876 25.9288 28.4141 25.8688 27.9672C25.8221 27.5871 25.5086 27.3403 25.0751 27.3403C23.8679 27.3403 22.6541 27.3403 21.4402 27.3403ZM25.8954 31.8022C25.1751 31.8022 24.4615 31.8022 23.7412 31.8022C23.2543 31.8022 22.9275 32.1023 22.9208 32.5358C22.9142 32.9827 23.2476 33.2895 23.7478 33.2895C25.1751 33.2895 26.6024 33.2895 28.0297 33.2895C28.5165 33.2895 28.8433 32.996 28.85 32.5558C28.8567 32.109 28.5232 31.8022 28.023 31.8022C27.316 31.8022 26.6091 31.8022 25.8954 31.8022Z" fill="#FF4286"/>
<path d="M31.9315 27.8137C31.2579 27.1401 30.5642 26.4464 29.8906 25.7728C31.4846 24.1788 33.1053 22.5581 34.706 20.9641C35.3663 21.6311 36.0599 22.3247 36.7402 23.0116C35.1595 24.5857 33.5322 26.2063 31.9315 27.8137Z" fill="#FF4286"/>
<path d="M28.8555 15.4421C28.8555 13.9681 28.8555 12.5075 28.8555 11.0135C29.389 10.9935 29.8892 11.1202 30.3028 11.4537C30.6296 11.7138 30.923 12.0206 31.2231 12.3141C31.7567 12.8476 32.3036 13.3812 32.8105 13.9414C33.1906 14.3549 33.324 14.8685 33.3107 15.4421C31.8234 15.4421 30.3428 15.4421 28.8555 15.4421Z" fill="#FF4286"/>
<path d="M35.8594 19.837C36.2195 19.4502 36.573 19.0033 36.9999 18.6299C37.5401 18.1563 38.4738 18.2497 38.9674 18.7632C39.4876 19.3101 39.5476 20.1638 39.0474 20.7241C38.6806 21.1309 38.2537 21.4844 37.8736 21.8446C37.2133 21.1843 36.5197 20.4973 35.8594 19.837Z" fill="#FF4286"/>
<path d="M30.6374 28.7744C30.0238 28.9744 29.3968 29.1945 28.7632 29.3946C28.4631 29.488 28.203 29.2412 28.303 28.9344C28.4965 28.3008 28.7232 27.6672 28.9233 27.0603C29.4902 27.6205 30.0571 28.1874 30.6374 28.7744Z" fill="#FF4286"/>
</svg>
