<svg width="48" height="48" viewBox="0 0 48 48" fill="none" xmlns="http://www.w3.org/2000/svg">
<rect width="48" height="48" rx="16" fill="#E0DFFF"/>
<g clip-path="url(#clip0_156_2033)">
<path d="M29.1054 34.9999C28.783 34.897 28.5704 34.6707 28.3921 34.3895C27.9601 33.7243 27.5143 33.066 27.0754 32.4008C27 32.2842 26.9177 32.243 26.7805 32.243C26.2594 32.2499 25.7382 32.2499 25.2101 32.243C24.6546 32.243 24.25 31.8521 24.25 31.3309C24.25 30.8097 24.6478 30.412 25.2032 30.4051C25.9439 30.3983 26.6777 30.3983 27.4183 30.4051C27.7749 30.4051 28.0493 30.556 28.2481 30.8509C28.5499 31.3104 28.8585 31.763 29.1739 32.243C29.2425 32.1127 29.3042 31.9961 29.3591 31.8864C29.9626 30.6863 30.5661 29.4862 31.1627 28.2792C31.341 27.9157 31.6016 27.6757 32.0131 27.662C32.4177 27.6483 32.692 27.8677 32.8909 28.2106C33.659 29.4999 34.4339 30.7892 35.202 32.0784C35.2774 32.2087 35.3597 32.2499 35.5037 32.2499C35.9564 32.243 36.409 32.2636 36.8547 32.243C37.4239 32.2156 37.808 32.4351 37.9931 32.9768C37.9931 33.1071 37.9931 33.2374 37.9931 33.3609C37.7943 33.9095 37.3897 34.1084 36.8205 34.0878C36.1895 34.0672 35.5586 34.0741 34.9277 34.0878C34.4751 34.0947 34.1527 33.9163 33.9196 33.5255C33.3641 32.5791 32.7949 31.6464 32.2325 30.7069C32.1914 30.6452 32.1503 30.5834 32.1022 30.5011C32.0474 30.604 32.0131 30.6657 31.9788 30.7343C31.3959 31.907 30.7993 33.0728 30.2301 34.2455C30.0655 34.5884 29.8529 34.8627 29.4825 34.993C29.366 34.9999 29.2357 34.9999 29.1054 34.9999Z" fill="#5F5BFE"/>
<path d="M31.6026 25.879C31.4517 25.9202 31.3214 25.9476 31.1911 25.9888C30.4642 26.2288 29.9155 26.6814 29.5726 27.3741C29.3463 27.8198 29.1269 28.2656 28.9006 28.7182C28.8663 28.7799 28.832 28.8416 28.7909 28.9308C28.1325 28.533 27.4124 28.5879 26.6992 28.5879C26.2054 28.5879 25.7117 28.5879 25.2179 28.5879C23.6955 28.5948 22.5228 29.6783 22.4336 31.1939C22.4131 31.5368 22.4953 31.8865 22.5365 32.25C22.4953 32.25 22.4268 32.25 22.3582 32.25C20.5134 32.25 18.6618 32.25 16.817 32.25C16.2684 32.25 16.0078 31.9894 16.0078 31.4339C16.0078 30.5012 16.0078 29.5754 16.0078 28.6428C16.0147 26.3317 17.5783 24.4595 19.8619 24.0617C20.1088 24.0206 20.3626 24.0069 20.6094 24.0069C23.0371 24 25.4648 24 27.8925 24.0069C29.3189 24.0137 30.4985 24.5761 31.4311 25.6527C31.4791 25.7213 31.534 25.7899 31.6026 25.879Z" fill="#5F5BFE"/>
<path d="M24.249 22.1621C21.7185 22.1621 19.668 20.1116 19.668 17.5879C19.6611 15.0574 21.7185 13 24.249 13C26.7796 13 28.8438 15.0711 28.8301 17.5948C28.8232 20.1253 26.7727 22.1621 24.249 22.1621Z" fill="#5F5BFE"/>
</g>
<defs>
<clipPath id="clip0_156_2033">
<rect width="22" height="22" fill="white" transform="translate(16 13)"/>
</clipPath>
</defs>
</svg>
