<svg width="48" height="48" viewBox="0 0 48 48" fill="none" xmlns="http://www.w3.org/2000/svg">
<rect width="48" height="48" rx="16" fill="#FFDEF2"/>
<path d="M24.2335 13.0304C24.3921 13.0476 24.5465 13.0734 24.7009 13.1034C24.8681 13.1378 25.0353 13.1721 25.1983 13.215C25.2068 13.215 25.2111 13.2193 25.2197 13.2193C25.2797 13.2365 25.3398 13.2537 25.3998 13.2708C27.5995 13.9362 29.4389 16.134 29.2031 18.9543C28.9887 21.4912 27.0549 23.4315 24.7652 23.8393C21.6951 24.3844 18.8222 22.3154 18.372 19.229C18.3248 18.907 18.3077 18.5765 18.3205 18.2503C18.3334 17.9326 18.3763 17.6107 18.4449 17.3016C18.5135 16.9925 18.6078 16.692 18.7279 16.4002C18.8479 16.1125 18.9937 15.8335 19.161 15.5674C19.3282 15.3012 19.5169 15.0523 19.727 14.8205C19.9371 14.5887 20.1643 14.374 20.413 14.1809C20.6617 13.9834 20.9233 13.8117 21.202 13.6615C21.485 13.5112 21.7766 13.3824 22.081 13.2837C22.5012 13.1463 22.9428 13.0734 23.3802 13.0219C23.6632 12.9875 23.9505 12.9961 24.2335 13.0304Z" fill="#FF55BE"/>
<path d="M24.4102 34.9917C24.4102 32.8883 24.4144 30.7849 24.4102 28.6858C24.4102 28.5098 24.4573 28.3725 24.5559 28.2351C25.4864 26.9345 26.4083 25.6252 27.343 24.3245C27.4545 24.1657 27.626 24.0455 27.7847 23.9296C27.9262 23.8266 28.325 24.0627 28.325 24.243C28.325 25.6595 28.325 27.0761 28.3293 28.4927C28.3293 28.6386 28.2606 28.6815 28.1492 28.7374C27.4159 29.0893 27.0129 29.8363 27.1115 30.6562C27.2015 31.4074 27.8018 32.0513 28.5651 32.2101C29.4612 32.399 30.3574 31.901 30.6747 31.0339C30.9877 30.1711 30.6275 29.2052 29.8171 28.7803C29.6585 28.6944 29.5985 28.6129 29.5985 28.4283C29.6113 27.3036 29.6027 26.1832 29.6027 25.0586C29.6027 24.9899 29.6027 24.9169 29.6027 24.8182C29.6799 24.8611 29.7357 24.8869 29.7871 24.9212C32.3598 26.7155 33.9335 29.1537 34.4223 32.2616C34.5209 32.8926 34.5123 33.5451 34.5466 34.1847C34.5595 34.4551 34.5595 34.7256 34.5681 34.996C31.185 34.9917 27.7976 34.9917 24.4102 34.9917ZM25.9238 32.9398C26.2668 32.9398 26.5669 32.6608 26.5669 32.3303C26.5669 31.9611 26.2797 31.6606 25.9281 31.6649C25.5979 31.6692 25.302 31.9482 25.2935 32.2659C25.2892 32.635 25.5679 32.9355 25.9238 32.9398Z" fill="#FF55BE"/>
<path d="M13.0028 34.9913C12.9985 33.9697 12.9771 32.9437 13.1743 31.935C13.7703 28.8615 15.3911 26.4791 18.0025 24.7663C18.0368 24.7448 18.0753 24.7234 18.1354 24.6933C18.1397 24.762 18.1482 24.8178 18.1482 24.8693C18.1482 26.0069 18.1482 27.1444 18.1525 28.282C18.1525 28.4236 18.1225 28.488 17.9681 28.5266C16.5875 28.8615 15.6098 30.0806 15.5755 31.51C15.5669 31.9221 15.5755 32.3385 15.5755 32.7677C16 32.7677 16.4117 32.7677 16.8533 32.7677C16.8533 32.6647 16.849 32.5703 16.8533 32.4716C16.8705 32.038 16.8319 31.5916 16.9133 31.1709C17.0977 30.2265 17.9939 29.617 18.9501 29.7243C19.8677 29.8273 20.5795 30.6128 20.6009 31.5443C20.6095 31.9264 20.6009 32.3127 20.6009 32.7076C21.0383 32.7076 21.4456 32.7076 21.8615 32.7076C21.9859 31.3469 21.883 30.0505 20.6995 29.1362C20.335 28.8529 19.8934 28.6726 19.486 28.4451C19.4689 28.4622 19.456 28.4794 19.4389 28.4966C19.4389 28.4107 19.4389 28.3249 19.4389 28.2433C19.4389 26.8997 19.4389 25.5519 19.4432 24.2083C19.4432 24.1267 19.486 24.0194 19.5461 23.9636C19.6447 23.8734 19.7648 23.882 19.8634 23.9893C20.0049 24.1353 20.1764 24.2641 20.2922 24.4272C21.2055 25.6978 22.1102 26.977 23.0107 28.2562C23.075 28.3506 23.135 28.4708 23.135 28.5824C23.1436 30.6858 23.1393 32.7892 23.1393 34.8926C23.1393 34.9269 23.135 34.9656 23.1307 34.9999C19.7476 34.9913 16.3731 34.9913 13.0028 34.9913Z" fill="#FF55BE"/>
<path d="M22.3418 25.1052C23.3151 25.3027 24.2413 25.3027 25.2104 25.1052C24.7173 25.7963 24.2585 26.4488 23.7739 27.127C23.298 26.4531 22.8349 25.8006 22.3418 25.1052Z" fill="#FF55BE"/>
<path d="M29.5067 30.412C29.5024 30.7296 29.2451 30.9743 28.9235 30.97C28.6148 30.9614 28.3747 30.7124 28.379 30.3991C28.3833 30.0814 28.6405 29.8325 28.9621 29.841C29.2708 29.8496 29.511 30.1029 29.5067 30.412Z" fill="#FF55BE"/>
</svg>
