<svg width="48" height="48" viewBox="0 0 48 48" fill="none" xmlns="http://www.w3.org/2000/svg">
<rect width="48" height="48" rx="16" fill="#DFFFE8"/>
<path d="M38.0012 23.2369C38.0012 23.7883 38.0012 24.3318 38.0012 24.8833C37.9775 25.0802 37.9539 25.2771 37.9303 25.4741C37.5915 28.4911 36.4414 31.1536 34.4091 33.4066C32.2507 35.8013 29.5724 37.298 26.3899 37.8651C25.8622 37.9597 25.3265 38.0148 24.7987 38.0857C24.2473 38.0857 23.7038 38.0857 23.1523 38.0857C22.6797 38.0306 22.2149 37.9833 21.7423 37.9045C18.8119 37.4161 16.2597 36.1558 14.1643 34.0525C11.0133 30.9016 9.62692 27.081 10.0287 22.6461C10.2965 19.6684 11.4623 17.0453 13.4474 14.8081C16.1021 11.8462 19.4264 10.2471 23.3965 10.0502C26.1615 9.91628 28.761 10.5622 31.1321 12.0038C34.7714 14.2252 37.0007 17.4392 37.7885 21.6378C37.883 22.1656 37.9303 22.7012 38.0012 23.2369ZM21.8289 26.3957C21.2775 25.8916 20.7655 25.4189 20.2535 24.9542C19.4815 24.2531 18.7253 23.5441 17.9375 22.8588C17.5279 22.5043 17.0395 22.4728 16.5511 22.6776C16.0627 22.8824 15.8028 23.2684 15.7476 23.7962C15.6925 24.324 15.9131 24.7257 16.299 25.0723C17.8036 26.443 19.3082 27.8136 20.8128 29.1843C21.5454 29.846 22.278 29.8302 22.979 29.137C25.8779 26.2618 28.7689 23.3866 31.6678 20.5113C31.7544 20.4247 31.8332 20.3459 31.912 20.2514C32.4713 19.5739 32.2822 18.5735 31.5181 18.1324C30.9194 17.7858 30.2735 17.9039 29.7142 18.4711C27.1619 21.0234 24.6175 23.5677 22.0653 26.12C21.9865 26.1988 21.9156 26.2854 21.8289 26.3957Z" fill="#13A210"/>
</svg>
