<svg width="48" height="48" viewBox="0 0 48 48" fill="none" xmlns="http://www.w3.org/2000/svg">
<rect width="48" height="48" rx="16" fill="#FFDEF2"/>
<path d="M29.0589 11.007C29.3383 11.1467 29.443 11.3702 29.436 11.6845C29.4221 12.2922 29.4361 12.9068 29.4291 13.5145C29.4291 13.9476 29.2405 14.1431 28.8144 14.1431C25.7411 14.1431 22.6678 14.1431 19.5945 14.1431C19.1824 14.1431 18.9869 13.9476 18.9799 13.5285C18.9729 12.8929 18.9869 12.2573 18.9729 11.6216C18.9659 11.3353 19.1056 11.1537 19.3291 11C22.577 11.007 25.818 11.007 29.0589 11.007Z" fill="#FF55BE"/>
<path d="M31.0009 12.5505C31.5457 12.5785 32.0765 12.5575 32.5794 12.6483C33.5922 12.8369 34.3466 13.7799 34.3885 14.8066C34.3885 14.8765 34.3954 14.9463 34.3954 15.0162C34.3885 21.7704 34.3815 28.5246 34.3745 35.2719C34.3745 36.3406 33.9275 37.1438 32.9356 37.5769C32.6562 37.7026 32.328 37.7655 32.0276 37.7655C26.7961 37.7794 21.5715 37.7794 16.3399 37.7724C15.0337 37.7724 14 36.7317 14 35.4186C14 28.6154 14.007 21.8053 14.021 15.0022C14.021 13.5563 15.0407 12.5715 16.4936 12.5645C16.7869 12.5645 17.0803 12.5645 17.4155 12.5645C17.4155 12.8998 17.4086 13.2211 17.4155 13.5354C17.4295 14.5552 18.0023 15.3444 18.9312 15.6099C19.1408 15.6657 19.3573 15.6937 19.5738 15.6937C22.6681 15.7007 25.7623 15.7007 28.8565 15.6937C30.0859 15.6937 30.9869 14.7926 31.0009 13.5703C31.0009 13.263 31.0009 12.9417 31.0009 12.5505ZM27.2501 32.4501C28.1581 32.4501 29.0591 32.4501 29.9671 32.4501C30.477 32.4501 30.8332 32.1288 30.8332 31.6748C30.8402 31.2068 30.477 30.8855 29.9532 30.8855C28.1511 30.8855 26.349 30.8855 24.547 30.8855C24.0371 30.8855 23.6809 31.2068 23.6809 31.6608C23.6739 32.1218 24.0371 32.4501 24.5609 32.4501C25.455 32.4501 26.356 32.4501 27.2501 32.4501ZM27.257 21.9869C28.1441 21.9869 29.0312 21.9869 29.9252 21.9869C30.4561 21.9869 30.8123 21.6726 30.8123 21.2046C30.8123 20.7367 30.4561 20.4154 29.9322 20.4154C28.1441 20.4154 26.363 20.4154 24.5749 20.4154C24.0441 20.4154 23.6878 20.7367 23.6809 21.1976C23.6809 21.6586 24.0441 21.9869 24.5679 21.9869C25.462 21.9869 26.356 21.9869 27.257 21.9869ZM27.2361 25.6469C26.349 25.6469 25.462 25.6469 24.5679 25.6469C24.0371 25.6469 23.6809 25.9612 23.6739 26.4292C23.6739 26.8902 24.0301 27.2185 24.5609 27.2185C26.349 27.2185 28.1301 27.2185 29.9182 27.2185C30.4491 27.2185 30.8053 26.9042 30.8053 26.4362C30.8053 25.9682 30.4491 25.6469 29.9252 25.6469C29.0312 25.6469 28.1371 25.6469 27.2361 25.6469ZM19.3014 26.52C19.1408 26.3524 19.015 26.1917 18.8684 26.059C18.5471 25.7727 18.0721 25.7866 17.7857 26.08C17.4994 26.3733 17.4714 26.8343 17.7578 27.1417C18.0931 27.5049 18.4493 27.8541 18.8125 28.1894C19.1128 28.4618 19.5459 28.4688 19.8323 28.1894C20.6565 27.3861 21.4667 26.5759 22.2699 25.7517C22.4865 25.5282 22.5284 25.2418 22.4026 24.9485C22.2839 24.6551 22.0604 24.4944 21.7461 24.4665C21.4737 24.4386 21.2571 24.5503 21.0686 24.7459C20.4958 25.3326 19.9161 25.9054 19.3014 26.52ZM19.3084 31.7516C19.1547 31.584 19.036 31.4373 18.8963 31.3046C18.568 30.9972 18.0931 31.0042 17.7927 31.3046C17.4854 31.6119 17.4854 32.0799 17.7927 32.4082C18.114 32.7434 18.4353 33.0717 18.7706 33.386C19.1128 33.7073 19.5529 33.7073 19.8951 33.3721C20.6844 32.5967 21.4597 31.8145 22.242 31.0252C22.4306 30.8366 22.5144 30.5991 22.4585 30.3337C22.4026 30.0403 22.228 29.8238 21.9347 29.733C21.6273 29.6352 21.348 29.7051 21.1175 29.9356C20.5238 30.5362 19.937 31.123 19.3084 31.7516ZM19.2805 20.8973C19.1478 20.7436 19.029 20.583 18.8963 20.4573C18.561 20.143 18.1 20.143 17.7927 20.4503C17.4784 20.7576 17.4784 21.2396 17.7997 21.5748C18.107 21.8961 18.4213 22.2104 18.7426 22.5178C19.1058 22.867 19.5459 22.867 19.9021 22.5178C20.6774 21.7564 21.4457 20.9811 22.2071 20.2058C22.5493 19.8566 22.5493 19.3746 22.228 19.0673C21.9137 18.76 21.4318 18.7809 21.0825 19.1232C20.5587 19.647 20.0348 20.1709 19.511 20.6947C19.4551 20.7436 19.3922 20.7995 19.2805 20.8973Z" fill="#FF55BE"/>
</svg>
