<svg width="34" height="34" viewBox="0 0 34 34" fill="none" xmlns="http://www.w3.org/2000/svg">
<rect width="34" height="34" rx="8" fill="#59ADEB" fill-opacity="0.3"/>
<path d="M12.9975 13.6743C11.6771 12.8887 11.2369 11.5293 11.4765 10.3982C11.7328 9.16689 12.7245 8.21972 13.9336 8.03585C14.6467 7.92999 15.3153 8.05814 15.9338 8.42587C16.5467 8.79359 16.9645 9.32847 17.2153 9.99707C18.2962 8.48158 20.3075 8.57073 21.3104 9.7352C22.2799 10.8607 22.1573 12.716 20.6418 13.6632C20.7421 13.6688 20.8034 13.6743 20.8703 13.6743C21.2547 13.6799 21.6391 13.6576 22.018 13.6966C22.9429 13.7969 23.6115 14.5379 23.6394 15.4684C23.6505 15.7637 23.6394 16.0646 23.6394 16.3933C23.9012 16.3933 24.1519 16.3989 24.3971 16.3877C24.4528 16.3822 24.5141 16.3209 24.5587 16.2707C24.9765 15.8306 25.3888 15.3904 25.8067 14.9558C26.0742 14.6772 26.3527 14.5992 26.648 14.7218C26.9433 14.8444 27.0993 15.0951 27.0993 15.474C27.0993 17.7026 27.0993 19.9369 27.0993 22.1655C27.0993 22.5388 26.9378 22.8007 26.648 22.9177C26.3527 23.0347 26.063 22.9567 25.8011 22.6781C25.4 22.2547 24.9933 21.8312 24.6032 21.4022C24.4862 21.2685 24.3581 21.2183 24.1854 21.2295C24.0127 21.2406 23.8399 21.235 23.6394 21.235C23.6394 21.5526 23.6449 21.8591 23.6394 22.1599C23.6338 22.3661 23.6282 22.5778 23.5781 22.7784C23.3998 23.525 22.798 24.0543 22.0292 24.1546C21.9456 24.1657 21.862 24.1769 21.7784 24.1769C18.4745 24.1769 15.176 24.1824 11.8721 24.1769C11.0308 24.1769 10.351 23.6866 10.1114 22.9288C10.0446 22.7227 10.0111 22.4942 10.0111 22.2769C10 20.0316 10 17.8029 10 15.5687C10 14.4655 10.7912 13.6799 11.8944 13.6743C12.2621 13.6688 12.6298 13.6743 12.9975 13.6743ZM15.2986 18.9117C15.2986 19.4076 15.2986 19.8979 15.2986 20.3937C15.2986 20.7559 15.4268 21.0456 15.7611 21.2183C16.0898 21.3855 16.4018 21.3353 16.7027 21.1236C17.3824 20.6333 18.0677 20.143 18.7475 19.6471C19.2823 19.2571 19.2879 18.6052 18.753 18.2097C18.0733 17.7138 17.3936 17.2235 16.7138 16.7276C16.4185 16.5103 16.1065 16.449 15.7778 16.6162C15.4323 16.7889 15.3042 17.0842 15.3042 17.4519C15.3042 17.9366 15.2986 18.4214 15.2986 18.9117ZM12.9418 10.9944C12.9418 11.8023 13.5937 12.4486 14.4016 12.4486C15.2095 12.4486 15.8558 11.7967 15.8558 10.9888C15.8558 10.1809 15.2039 9.52905 14.396 9.53462C13.5881 9.53462 12.9418 10.1921 12.9418 10.9944ZM19.3715 12.6659C20.0624 12.6714 20.6195 12.1199 20.6251 11.429C20.6307 10.7492 20.0735 10.1754 19.3938 10.1642C18.7029 10.1531 18.129 10.7214 18.129 11.4178C18.129 12.1031 18.6862 12.6603 19.3715 12.6659Z" fill="#2E89CC"/>
</svg>
