<svg width="14" height="9" viewBox="0 0 14 9" fill="none" xmlns="http://www.w3.org/2000/svg">
<path d="M13.5195 4.52311C13.4349 4.85803 13.1951 5.08718 12.973 5.33044C12.0846 6.31757 11.094 7.17779 9.93055 7.83352C9.10206 8.29888 8.22422 8.6197 7.27235 8.70784C6.35573 8.79245 5.46731 8.6479 4.61062 8.31651C3.39786 7.8441 2.35432 7.10375 1.41655 6.21181C1.0076 5.81696 0.619795 5.3939 0.239045 4.96732C-0.0711962 4.6183 -0.0782471 4.14941 0.210841 3.79686C1.21207 2.59116 2.36137 1.55819 3.75041 0.817847C4.58947 0.370113 5.47436 0.0704481 6.42976 0.0105152C7.5015 -0.0564686 8.50626 0.20089 9.46166 0.659201C10.6956 1.25148 11.7391 2.09407 12.6804 3.07767C12.8144 3.21869 12.9413 3.36323 13.0717 3.50778C13.2586 3.71578 13.4454 3.92378 13.5195 4.20582C13.5195 4.31158 13.5195 4.41735 13.5195 4.52311ZM9.67319 4.37152C9.67671 2.7639 8.37582 1.45948 6.76821 1.45948C5.15707 1.45596 3.85617 2.75685 3.85617 4.36446C3.85265 5.97208 5.15002 7.2765 6.76115 7.28002C8.36524 7.28002 9.66966 5.97913 9.67319 4.37152Z" fill="#F78080"/>
<path d="M8.84132 4.36166C8.84132 5.50744 7.90707 6.44521 6.76482 6.44874C5.61904 6.45227 4.68127 5.51449 4.67774 4.37224C4.67422 3.22647 5.60847 2.28869 6.75424 2.28517C7.90002 2.28164 8.83779 3.21941 8.84132 4.36166Z" fill="#F78080"/>
</svg>
